#N canvas 647 148 497 338 10;
#X obj 24 28 r notes;
#X obj 374 112 tgl 15 0 empty empty empty 17 7 0 10 #fcfcfc #000000 #000000 0 1;
#X obj 374 184 s notes;
#X floatatom 374 163 5 0 0 0 - - - 0;
#N canvas 1093 183 619 320 melody_player 0;
#X obj 37 13 inlet;
#X obj 39 290 outlet;
#X floatatom 37 159 5 0 0 0 - - - 0;
#X floatatom 39 235 5 0 0 0 - - - 0;
#X obj 149 114 list length;
#X obj 286 225 array set notepattern;
#X obj 39 214 tabread notepattern;
#X obj 288 248 array define notepattern;
#X floatatom 97 11 5 0 0 0 - - - 0;
#X obj 288 196 r noteList;
#X obj 369 154 s noteList;
#X obj 150 90 r noteList;
#X floatatom 149 135 5 0 0 0 - - - 0;
#X obj 37 34 metro 400;
#X msg 343 98 72 75 79 60 67 65 74 77 63 68 58 82;
#X obj 37 55 random 24;
#X obj 109 55 random 60;
#X obj 39 255 sel 0;
#X obj 345 70 loadbang;
#X connect 0 0 13 0;
#X connect 2 0 6 0;
#X connect 3 0 17 0;
#X connect 4 0 12 0;
#X connect 6 0 3 0;
#X connect 8 0 13 1;
#X connect 9 0 5 0;
#X connect 11 0 4 0;
#X connect 13 0 15 0;
#X connect 13 0 16 0;
#X connect 14 0 10 0;
#X connect 15 0 2 0;
#X connect 16 0 2 0;
#X connect 17 1 1 0;
#X connect 18 0 14 0;
#X restore 374 134 pd melody_player;
#N canvas 0 23 450 300 handle_polyphony 0;
#X obj 37 37 inlet;
#X obj 37 149 pack 0 0 0;
#X obj 38 120 - 1;
#X obj 38 78 poly 16 1;
#X obj 37 170 outlet;
#X connect 0 0 3 0;
#X connect 1 0 4 0;
#X connect 2 0 1 0;
#X connect 3 0 2 0;
#X connect 3 1 1 1;
#X connect 3 2 1 2;
#X restore 24 106 pd handle_polyphony;
#X floatatom 24 46 5 0 0 0 - - - 0;
#N canvas 0 23 450 367 create_midi_notes 1;
#X obj 37 37 inlet;
#X obj 36 194 makenote 100 500;
#X floatatom 36 120 5 0 0 0 - - - 0;
#X obj 36 236 pack 0 0;
#X obj 34 68 t i b;
#X obj 128 114 random 60;
#X obj 128 156 + 50;
#X obj 36 257 outlet;
#X floatatom 198 177 5 0 0 0 - - - 0;
#X obj 198 114 random 400;
#X obj 198 156 + 100;
#X connect 0 0 4 0;
#X connect 1 0 3 0;
#X connect 1 1 3 1;
#X connect 2 0 1 0;
#X connect 3 0 7 0;
#X connect 4 0 2 0;
#X connect 4 1 5 0;
#X connect 4 1 9 0;
#X connect 5 0 6 0;
#X connect 6 0 1 1;
#X connect 9 0 10 0;
#X connect 10 0 1 2;
#X connect 10 0 8 0;
#X restore 24 76 pd create_midi_notes;
#N canvas 760 95 616 378 LittleFermat 0;
#X floatatom 181 166 5 0 0 0 - - - 0;
#X obj 288 245 mod;
#X obj 181 130 f;
#X floatatom 288 269 5 0 0 0 - - - 0;
#X obj 301 139 - 1;
#X msg 426 163 2;
#X floatatom 301 163 5 0 0 0 - - - 0;
#X obj 370 213 pow;
#X text 162 165 n;
#X text 272 163 n-1;
#X text 411 162 a;
#X obj 108 147 mod 36;
#X obj 258 302 sel 1;
#X obj 258 328 bng 15 250 50 0 empty empty empty 17 7 0 10 #fcfcfc #000000 #000000;
#X obj 291 67 inlet;
#X obj 258 348 outlet;
#X text 43 189 limit to 36! 31 is the last prime number it can compute since pow is growing too big. 37 would be next;
#X text 9 5 If n is a prime number \, then for every a \, 1 < a < n-1 \, a^(n-1) % n = 1;
#X floatatom 63 294 5 0 0 0 - - - 0;
#X obj 175 297 sel 2;
#X connect 0 0 4 0;
#X connect 0 0 1 1;
#X connect 0 0 12 0;
#X connect 0 0 19 0;
#X connect 1 0 3 0;
#X connect 2 0 0 0;
#X connect 2 0 11 0;
#X connect 3 0 12 0;
#X connect 4 0 6 0;
#X connect 5 0 7 0;
#X connect 6 0 7 1;
#X connect 7 0 1 0;
#X connect 11 0 0 0;
#X connect 12 0 13 0;
#X connect 13 0 15 0;
#X connect 14 0 2 0;
#X connect 14 0 5 0;
#X connect 19 0 13 0;
#X restore 272 198 pd LittleFermat;
#X obj 272 126 tgl 15 0 empty empty empty 17 7 0 10 #fcfcfc #000000 #000000 0 1;
#X obj 272 148 metro 1000;
#X obj 305 171 + 1;
#X obj 272 172 f;
#X obj 272 224 bng 15 250 50 0 empty empty empty 17 7 0 10 #fcfcfc #000000 #000000;
#X msg 225 157 0;
#X floatatom 208 212 5 0 0 0 - - - 0;
#X obj 208 189 mod 36;
#X text 294 222 prime number;
#X obj 272 266 s notes;
#X obj 193 239 f;
#X floatatom 193 282 5 0 0 0 - - - 0;
#X obj 193 260 + 1;
#X obj 193 302 * 3;
#X obj 24 143 clone stringSynth.cl 16;
#X obj 98 32 inlet;
#X floatatom 98 53 5 0 0 0 - - - 0;
#X obj 24 187 outlet~;
#X obj 24 166 *~ 0.75;
#X connect 0 0 6 0;
#X connect 1 0 4 0;
#X connect 3 0 2 0;
#X connect 4 0 3 0;
#X connect 5 0 23 0;
#X connect 6 0 7 0;
#X connect 7 0 5 0;
#X connect 8 0 13 0;
#X connect 9 0 10 0;
#X connect 10 0 12 0;
#X connect 11 0 12 1;
#X connect 12 0 11 0;
#X connect 12 0 8 0;
#X connect 12 0 16 0;
#X connect 13 0 19 0;
#X connect 14 0 12 0;
#X connect 15 0 19 1;
#X connect 16 0 15 0;
#X connect 19 0 21 0;
#X connect 20 0 22 0;
#X connect 21 0 20 0;
#X connect 22 0 18 0;
#X connect 23 0 27 0;
#X connect 24 0 7 0;
#X connect 24 0 25 0;
#X connect 27 0 26 0;
