#N canvas 128 128 450 300 12;
#X obj 99 246 *~;
#X obj 99 222 osc~ 1000;
#X obj 99 102 mtof;
#N canvas 0 50 547 401 envelope 0;
#X obj 222 18 inlet;
#X obj 222 60 bng 15 250 50 0 empty empty empty 17 7 0 10 #fcfcfc #000000 #000000;
#X obj 246 172 vline~;
#X obj 246 198 pow~ 2;
#X floatatom 279 62 5 0 0 0 - - - 0;
#X floatatom 332 62 5 0 0 0 - - - 0;
#X obj 246 93 pack b f f;
#X msg 246 126 1 \$2 \, 0 \$3 \$2;
#X obj 279 18 inlet;
#X obj 332 18 inlet;
#X obj 245 234 outlet~;
#X connect 0 0 1 0;
#X connect 1 0 6 0;
#X connect 2 0 3 0;
#X connect 3 0 10 0;
#X connect 4 0 6 1;
#X connect 5 0 6 2;
#X connect 6 0 7 0;
#X connect 7 0 2 0;
#X connect 8 0 4 0;
#X connect 9 0 5 0;
#X restore 132 190 pd envelope;
#X f 13;
#X floatatom 220 148 5 0 0 0 - - - 0;
#X obj 143 121 bng 15 250 50 0 empty empty empty 17 7 0 10 #fcfcfc #000000 #000000;
#X obj 220 125 + 1000;
#X obj 66 128 loadbang;
#X obj 99 28 inlet;
#X obj 99 270 outlet~;
#X obj 294 28 inlet;
#X obj 220 99 random 2000;
#X floatatom 143 165 5 0 0 0 - - - 0;
#X obj 143 141 random 60;
#X connect 0 0 9 0;
#X connect 1 0 0 0;
#X connect 2 0 1 0;
#X connect 2 0 3 0;
#X connect 2 0 5 0;
#X connect 3 0 0 1;
#X connect 4 0 3 2;
#X connect 5 0 11 0;
#X connect 5 0 13 0;
#X connect 6 0 4 0;
#X connect 8 0 2 0;
#X connect 10 0 11 1;
#X connect 11 0 6 0;
#X connect 12 0 3 1;
#X connect 13 0 12 0;
