#N canvas 64 64 632 474 12;
#X obj 77 8 inlet;
#X obj 77 62 f;
#X obj 131 81 t f f;
#X obj 131 125 -;
#X obj 131 149 f;
#X floatatom 77 86 5 0 0 0 - - - 0;
#X obj 131 173 abs;
#X floatatom 131 197 5 0 0 0 - - - 0;
#X msg 131 247 9;
#X obj 161 415 outlet;
#X msg 191 268 8;
#X msg 251 293 7;
#X msg 311 317 6;
#X msg 371 341 5;
#X msg 431 365 4;
#X msg 491 365 3;
#X obj 131 220 moses 10;
#X obj 191 244 moses 20;
#X obj 251 269 moses 40;
#X obj 311 293 moses 80;
#X obj 371 317 moses 160;
#X obj 431 341 moses 320;
#X connect 0 0 1 0;
#X connect 1 0 2 0;
#X connect 1 0 5 0;
#X connect 2 0 3 1;
#X connect 2 1 3 0;
#X connect 3 0 4 0;
#X connect 4 0 6 0;
#X connect 6 0 7 0;
#X connect 7 0 16 0;
#X connect 8 0 9 0;
#X connect 10 0 9 0;
#X connect 11 0 9 0;
#X connect 12 0 9 0;
#X connect 13 0 9 0;
#X connect 14 0 9 0;
#X connect 15 0 9 0;
#X connect 16 0 8 0;
#X connect 16 1 17 0;
#X connect 17 0 10 0;
#X connect 17 1 18 0;
#X connect 18 0 11 0;
#X connect 18 1 19 0;
#X connect 19 0 12 0;
#X connect 19 1 20 0;
#X connect 20 0 13 0;
#X connect 20 1 21 0;
#X connect 21 0 14 0;
#X connect 21 1 15 0;
