#N canvas 1916 1022 1920 976 12;
#X floatatom 114 109 5 0 0 0 - - - 0;
#X floatatom 156 70 5 0 0 0 - - - 0;
#X floatatom 197 103 5 0 0 0 - - - 0;
#X floatatom 239 132 5 0 0 0 - - - 0;
#X obj 73 77 bng 15 250 50 0 empty empty empty 17 7 0 10 #fcfcfc #000000 #000000;
#X text 0 77 /endpoint;
#X text 40 110 person_id;
#X obj 73 11 OSC_server;
#X text 56 486 pitch;
#X obj 266 442 hsl 64 15 0 10 0 0 empty empty empty -2 -8 0 10 #fcfcfc #000000 #000000 0 1;
#N canvas 526 99 867 745 pluginEffectChain 0;
#X obj 168 220 vstplugin~;
#X obj 636 145 *~;
#X msg 305 151 open -e ValhallaSupermassive.vst3;
#X obj 723 23 bng 15 250 50 0 empty empty empty 17 7 0 10 #fcfcfc #000000 #000000;
#X obj 305 127 loadbang;
#X msg 25 91 param_set 0 \$1;
#X obj 28 25 hsl 128 15 0 1 0 0 empty empty empty -2 -8 0 10 #fcfcfc #000000 #000000 0 1;
#X msg 723 43 1 1000;
#X obj 812 47 del 1000;
#X obj 636 121 osc~ 1000;
#X obj 636 169 *~ 0.2;
#X obj 723 114 vline~;
#X obj 812 71 0 1000;
#X text 14 220 ValhallaSupermassive;
#X obj 168 272 vstplugin~;
#X msg 320 177 open -e LABS.vst3;
#X obj 728 186 vsl 15 64 0 0.2 0 0 empty empty empty 0 -9 0 10 #fcfcfc #000000 #000000 0 1;
#X msg 351 205 open -e RC-20_Retro_Color.vst3;
#X obj 169 31 inlet~;
#X obj 167 353 outlet~;
#X obj 240 354 outlet~;
#X obj 303 96 bng 15 250 50 0 empty empty empty 17 7 0 10 #fcfcfc #000000 #000000;
#X obj 306 28 inlet;
#X obj 450 28 inlet;
#X text 176 10 sound;
#X text 230 6 dry/wet Effect 1;
#X text 372 6 dry/wet Effect 2;
#X floatatom 306 54 5 0 0 0 - - - 0;
#X floatatom 450 54 5 0 0 0 - - - 0;
#X msg 24 137 param_set 0 \$1;
#X obj 415 259 vsl 15 64 0 1 0 0 empty empty empty 0 -9 0 10 #fcfcfc #000000 #000000 0 1;
#X msg 415 337 param_set 6 \$1;
#X text 528 338 feedback;
#X msg 415 365 param_set 7 \$1;
#X text 528 366 density;
#X msg 415 393 param_set 8 \$1;
#X text 528 394 width;
#X msg 415 421 param_set 9 \$1;
#X text 528 422 EQ Low;
#X msg 415 448 param_set 10 \$1;
#X text 528 449 EQ High;
#X msg 415 475 param_set 11 \$1;
#X text 528 476 MOD Rate;
#X msg 415 503 param_set 12 \$1;
#X text 528 504 MOD Depth;
#X text 20 654 RC-20_Retro_Color Preset: - Magnitude Transition 3 (PAD);
#X text 41 607 ValhallaSupermassive Preset: - SFX/Nebulae/Planetarium (PAD);
#X connect 0 0 14 0;
#X connect 0 1 14 1;
#X connect 1 0 10 0;
#X connect 2 0 14 0;
#X connect 3 0 7 0;
#X connect 3 0 8 0;
#X connect 4 0 2 0;
#X connect 4 0 15 0;
#X connect 4 0 17 0;
#X connect 5 0 0 0;
#X connect 6 0 5 0;
#X connect 7 0 11 0;
#X connect 8 0 12 0;
#X connect 9 0 1 0;
#X connect 11 0 1 1;
#X connect 12 0 11 0;
#X connect 14 0 19 0;
#X connect 14 1 20 0;
#X connect 16 0 10 1;
#X connect 17 0 0 0;
#X connect 18 0 0 0;
#X connect 18 0 0 1;
#X connect 21 0 2 0;
#X connect 21 0 15 0;
#X connect 21 0 17 0;
#X connect 22 0 27 0;
#X connect 23 0 28 0;
#X connect 27 0 5 0;
#X connect 28 0 29 0;
#X connect 29 0 14 0;
#X connect 30 0 31 0;
#X connect 30 0 33 0;
#X connect 30 0 35 0;
#X connect 30 0 37 0;
#X connect 30 0 39 0;
#X connect 30 0 41 0;
#X connect 30 0 43 0;
#X connect 31 0 14 0;
#X connect 33 0 14 0;
#X connect 35 0 14 0;
#X connect 37 0 14 0;
#X connect 39 0 14 0;
#X connect 41 0 14 0;
#X connect 43 0 14 0;
#X restore 102 874 pd pluginEffectChain;
#X obj 65 684 vsl 15 64 0 0.5 0 0 empty empty empty 0 -9 0 10 #fcfcfc #000000 #000000 0 1;
#N canvas 0 50 450 250 (subpatch) 0;
#X array \$0-sus-scale 18 float 3;
#A 0 60 62 65 67 69 70 72 74 77 79 81 82 84 86 89 91 93 94;
#X coords 0 127 18 0 200 127 1 0 0;
#X restore 1689 63 graph;
#X msg 1509 18 60 62 65 67 69 70 72 74 77 79 81 82 84 86 89 91 93 94;
#X obj 820 41 tgl 15 0 empty empty empty 17 7 0 10 #fcfcfc #000000 #000000 0 1;
#X msg 877 35 tempo \$1 permin;
#X floatatom 877 10 5 0 200 0 BPM - - 0;
#X obj 820 95 f;
#X obj 852 95 + 1;
#X obj 820 121 % 16;
#X floatatom 820 147 5 0 0 0 - - - 0;
#X obj 820 179 hradio 15 1 0 16 empty empty empty 0 -8 0 10 #fcfcfc #000000 #000000 0;
#X obj 820 229 sel 0 1 2 3 4 5 6 7 8 9 10 11 12 13 14 15, f 47;
#X obj 820 259 s one;
#X obj 841 285 s two;
#X obj 860 311 s three;
#X obj 881 337 s four;
#X obj 901 259 s five;
#X obj 922 285 s six;
#X obj 942 311 s seven;
#X obj 962 337 s eight;
#X obj 983 259 s nine;
#X obj 1004 285 s ten;
#X obj 1023 311 s eleven;
#X obj 1044 337 s twelve;
#X obj 1064 256 s thirteen;
#X obj 1085 282 s fourteen;
#X obj 1105 308 s fifteen;
#X obj 1125 334 s sixteen;
#X msg 785 68 0;
#X obj 1397 476 r kick;
#X obj 1397 507 bng 15 250 50 0 empty empty empty 17 7 0 10 #fcfcfc #000000 #000000;
#X obj 1397 649 readsf~;
#X obj 1665 341 dac~;
#X msg 1397 611 open kick.wav \, 1;
#N canvas -1928 -8 1536 773 drums 0;
#X obj 61 51 r one;
#X obj 61 90 bng 15 250 50 0 empty empty empty 17 7 0 10 #fcfcfc #000000 #000000;
#X obj 61 123 spigot;
#X obj 100 82 tgl 30 0 empty empty empty 17 7 0 10 #fcfcfc #000000 #000000 0 1;
#X obj 134 91 bng 15 250 50 0 empty empty empty 17 7 0 10 #fcfcfc #000000 #000000;
#X obj 134 124 spigot;
#X obj 173 83 tgl 30 0 empty empty empty 17 7 0 10 #fcfcfc #000000 #000000 0 1;
#X obj 208 91 bng 15 250 50 0 empty empty empty 17 7 0 10 #fcfcfc #000000 #000000;
#X obj 208 124 spigot;
#X obj 247 83 tgl 30 0 empty empty empty 17 7 0 10 #fcfcfc #000000 #000000 0 1;
#X obj 282 91 bng 15 250 50 0 empty empty empty 17 7 0 10 #fcfcfc #000000 #000000;
#X obj 282 124 spigot;
#X obj 321 83 tgl 30 0 empty empty empty 17 7 0 10 #fcfcfc #000000 #000000 0 1;
#X obj 356 91 bng 15 250 50 0 empty empty empty 17 7 0 10 #fcfcfc #000000 #000000;
#X obj 356 124 spigot;
#X obj 395 83 tgl 30 0 empty empty empty 17 7 0 10 #fcfcfc #000000 #000000 0 1;
#X obj 430 90 bng 15 250 50 0 empty empty empty 17 7 0 10 #fcfcfc #000000 #000000;
#X obj 430 123 spigot;
#X obj 469 82 tgl 30 0 empty empty empty 17 7 0 10 #fcfcfc #000000 #000000 0 1;
#X obj 503 90 bng 15 250 50 0 empty empty empty 17 7 0 10 #fcfcfc #000000 #000000;
#X obj 503 123 spigot;
#X obj 542 82 tgl 30 0 empty empty empty 17 7 0 10 #fcfcfc #000000 #000000 0 1;
#X obj 578 88 bng 15 250 50 0 empty empty empty 17 7 0 10 #fcfcfc #000000 #000000;
#X obj 578 121 spigot;
#X obj 617 80 tgl 30 0 empty empty empty 17 7 0 10 #fcfcfc #000000 #000000 0 1;
#X obj 651 88 bng 15 250 50 0 empty empty empty 17 7 0 10 #fcfcfc #000000 #000000;
#X obj 651 121 spigot;
#X obj 690 80 tgl 30 0 empty empty empty 17 7 0 10 #fcfcfc #000000 #000000 0 1;
#X obj 724 89 bng 15 250 50 0 empty empty empty 17 7 0 10 #fcfcfc #000000 #000000;
#X obj 724 122 spigot;
#X obj 763 81 tgl 30 0 empty empty empty 17 7 0 10 #fcfcfc #000000 #000000 0 1;
#X obj 798 89 bng 15 250 50 0 empty empty empty 17 7 0 10 #fcfcfc #000000 #000000;
#X obj 798 122 spigot;
#X obj 837 81 tgl 30 0 empty empty empty 17 7 0 10 #fcfcfc #000000 #000000 0 1;
#X obj 872 89 bng 15 250 50 0 empty empty empty 17 7 0 10 #fcfcfc #000000 #000000;
#X obj 872 122 spigot;
#X obj 911 81 tgl 30 0 empty empty empty 17 7 0 10 #fcfcfc #000000 #000000 0 1;
#X obj 946 89 bng 15 250 50 0 empty empty empty 17 7 0 10 #fcfcfc #000000 #000000;
#X obj 946 122 spigot;
#X obj 985 81 tgl 30 0 empty empty empty 17 7 0 10 #fcfcfc #000000 #000000 0 1;
#X obj 1026 88 bng 15 250 50 0 empty empty empty 17 7 0 10 #fcfcfc #000000 #000000;
#X obj 1026 121 spigot;
#X obj 1065 80 tgl 30 0 empty empty empty 17 7 0 10 #fcfcfc #000000 #000000 0 1;
#X obj 1106 88 bng 15 250 50 0 empty empty empty 17 7 0 10 #fcfcfc #000000 #000000;
#X obj 1106 121 spigot;
#X obj 1145 80 tgl 30 0 empty empty empty 17 7 0 10 #fcfcfc #000000 #000000 0 1;
#X obj 1184 87 bng 15 250 50 0 empty empty empty 17 7 0 10 #fcfcfc #000000 #000000;
#X obj 1184 120 spigot;
#X obj 1223 79 tgl 30 0 empty empty empty 17 7 0 10 #fcfcfc #000000 #000000 0 1;
#X obj 134 52 r two;
#X obj 208 52 r three;
#X obj 282 52 r four;
#X obj 356 52 r five;
#X obj 430 51 r six;
#X obj 503 51 r seven;
#X obj 578 50 r eight;
#X obj 651 49 r nine;
#X obj 724 50 r ten;
#X obj 798 50 r eleven;
#X obj 872 50 r twelve;
#X obj 946 50 r thirteen;
#X obj 1026 49 r fourteen;
#X obj 1106 49 r fifteen;
#X obj 1184 48 r sixteen;
#X obj 510 172 s kick;
#X obj 61 213 bng 15 250 50 0 empty empty empty 17 7 0 10 #fcfcfc #000000 #000000;
#X obj 61 246 spigot;
#X obj 100 203 tgl 30 0 empty empty empty 17 7 0 10 #fcfcfc #000000 #000000 0 1;
#X obj 134 214 bng 15 250 50 0 empty empty empty 17 7 0 10 #fcfcfc #000000 #000000;
#X obj 134 247 spigot;
#X obj 173 203 tgl 30 0 empty empty empty 17 7 0 10 #fcfcfc #000000 #000000 0 1;
#X obj 208 211 bng 15 250 50 0 empty empty empty 17 7 0 10 #fcfcfc #000000 #000000;
#X obj 208 247 spigot;
#X obj 247 203 tgl 30 0 empty empty empty 17 7 0 10 #fcfcfc #000000 #000000 0 1;
#X obj 282 211 bng 15 250 50 0 empty empty empty 17 7 0 10 #fcfcfc #000000 #000000;
#X obj 282 247 spigot;
#X obj 321 203 tgl 30 0 empty empty empty 17 7 0 10 #fcfcfc #000000 #000000 0 1;
#X obj 356 214 bng 15 250 50 0 empty empty empty 17 7 0 10 #fcfcfc #000000 #000000;
#X obj 356 247 spigot;
#X obj 395 203 tgl 30 0 empty empty empty 17 7 0 10 #fcfcfc #000000 #000000 0 1;
#X obj 430 213 bng 15 250 50 0 empty empty empty 17 7 0 10 #fcfcfc #000000 #000000;
#X obj 430 246 spigot;
#X obj 469 203 tgl 30 0 empty empty empty 17 7 0 10 #fcfcfc #000000 #000000 0 1;
#X obj 503 213 bng 15 250 50 0 empty empty empty 17 7 0 10 #fcfcfc #000000 #000000;
#X obj 503 246 spigot;
#X obj 542 203 tgl 30 0 empty empty empty 17 7 0 10 #fcfcfc #000000 #000000 0 1;
#X obj 578 211 bng 15 250 50 0 empty empty empty 17 7 0 10 #fcfcfc #000000 #000000;
#X obj 578 244 spigot;
#X obj 617 203 tgl 30 0 empty empty empty 17 7 0 10 #fcfcfc #000000 #000000 0 1;
#X obj 651 211 bng 15 250 50 0 empty empty empty 17 7 0 10 #fcfcfc #000000 #000000;
#X obj 651 244 spigot;
#X obj 690 203 tgl 30 0 empty empty empty 17 7 0 10 #fcfcfc #000000 #000000 0 1;
#X obj 724 212 bng 15 250 50 0 empty empty empty 17 7 0 10 #fcfcfc #000000 #000000;
#X obj 724 245 spigot;
#X obj 763 203 tgl 30 0 empty empty empty 17 7 0 10 #fcfcfc #000000 #000000 0 1;
#X obj 798 212 bng 15 250 50 0 empty empty empty 17 7 0 10 #fcfcfc #000000 #000000;
#X obj 798 245 spigot;
#X obj 837 203 tgl 30 0 empty empty empty 17 7 0 10 #fcfcfc #000000 #000000 0 1;
#X obj 872 212 bng 15 250 50 0 empty empty empty 17 7 0 10 #fcfcfc #000000 #000000;
#X obj 872 245 spigot;
#X obj 911 203 tgl 30 0 empty empty empty 17 7 0 10 #fcfcfc #000000 #000000 0 1;
#X obj 946 212 bng 15 250 50 0 empty empty empty 17 7 0 10 #fcfcfc #000000 #000000;
#X obj 946 245 spigot;
#X obj 985 203 tgl 30 0 empty empty empty 17 7 0 10 #fcfcfc #000000 #000000 0 1;
#X obj 1026 211 bng 15 250 50 0 empty empty empty 17 7 0 10 #fcfcfc #000000 #000000;
#X obj 1026 244 spigot;
#X obj 1065 203 tgl 30 0 empty empty empty 17 7 0 10 #fcfcfc #000000 #000000 0 1;
#X obj 1106 211 bng 15 250 50 0 empty empty empty 17 7 0 10 #fcfcfc #000000 #000000;
#X obj 1106 244 spigot;
#X obj 1145 203 tgl 30 0 empty empty empty 17 7 0 10 #fcfcfc #000000 #000000 0 1;
#X obj 1184 210 bng 15 250 50 0 empty empty empty 17 7 0 10 #fcfcfc #000000 #000000;
#X obj 1184 243 spigot;
#X obj 1223 203 tgl 30 0 empty empty empty 17 7 0 10 #fcfcfc #000000 #000000 0 1;
#X obj 510 295 s closed_hh;
#X obj 61 342 bng 15 250 50 0 empty empty empty 17 7 0 10 #fcfcfc #000000 #000000;
#X obj 61 375 spigot;
#X obj 100 334 tgl 30 0 empty empty empty 17 7 0 10 #fcfcfc #000000 #000000 0 1;
#X obj 134 343 bng 15 250 50 0 empty empty empty 17 7 0 10 #fcfcfc #000000 #000000;
#X obj 134 376 spigot;
#X obj 173 335 tgl 30 0 empty empty empty 17 7 0 10 #fcfcfc #000000 #000000 0 1;
#X obj 208 343 bng 15 250 50 0 empty empty empty 17 7 0 10 #fcfcfc #000000 #000000;
#X obj 208 376 spigot;
#X obj 247 335 tgl 30 0 empty empty empty 17 7 0 10 #fcfcfc #000000 #000000 0 1;
#X obj 282 343 bng 15 250 50 0 empty empty empty 17 7 0 10 #fcfcfc #000000 #000000;
#X obj 282 376 spigot;
#X obj 321 335 tgl 30 0 empty empty empty 17 7 0 10 #fcfcfc #000000 #000000 0 1;
#X obj 356 343 bng 15 250 50 0 empty empty empty 17 7 0 10 #fcfcfc #000000 #000000;
#X obj 356 376 spigot;
#X obj 395 335 tgl 30 0 empty empty empty 17 7 0 10 #fcfcfc #000000 #000000 0 1;
#X obj 430 342 bng 15 250 50 0 empty empty empty 17 7 0 10 #fcfcfc #000000 #000000;
#X obj 430 375 spigot;
#X obj 469 334 tgl 30 0 empty empty empty 17 7 0 10 #fcfcfc #000000 #000000 0 1;
#X obj 503 342 bng 15 250 50 0 empty empty empty 17 7 0 10 #fcfcfc #000000 #000000;
#X obj 503 375 spigot;
#X obj 542 334 tgl 30 0 empty empty empty 17 7 0 10 #fcfcfc #000000 #000000 0 1;
#X obj 578 340 bng 15 250 50 0 empty empty empty 17 7 0 10 #fcfcfc #000000 #000000;
#X obj 578 373 spigot;
#X obj 617 332 tgl 30 0 empty empty empty 17 7 0 10 #fcfcfc #000000 #000000 0 1;
#X obj 651 340 bng 15 250 50 0 empty empty empty 17 7 0 10 #fcfcfc #000000 #000000;
#X obj 651 373 spigot;
#X obj 690 332 tgl 30 0 empty empty empty 17 7 0 10 #fcfcfc #000000 #000000 0 1;
#X obj 724 341 bng 15 250 50 0 empty empty empty 17 7 0 10 #fcfcfc #000000 #000000;
#X obj 724 374 spigot;
#X obj 763 333 tgl 30 0 empty empty empty 17 7 0 10 #fcfcfc #000000 #000000 0 1;
#X obj 798 341 bng 15 250 50 0 empty empty empty 17 7 0 10 #fcfcfc #000000 #000000;
#X obj 798 374 spigot;
#X obj 837 333 tgl 30 0 empty empty empty 17 7 0 10 #fcfcfc #000000 #000000 0 1;
#X obj 872 341 bng 15 250 50 0 empty empty empty 17 7 0 10 #fcfcfc #000000 #000000;
#X obj 872 374 spigot;
#X obj 911 333 tgl 30 0 empty empty empty 17 7 0 10 #fcfcfc #000000 #000000 0 1;
#X obj 946 341 bng 15 250 50 0 empty empty empty 17 7 0 10 #fcfcfc #000000 #000000;
#X obj 946 374 spigot;
#X obj 985 333 tgl 30 0 empty empty empty 17 7 0 10 #fcfcfc #000000 #000000 0 1;
#X obj 1026 340 bng 15 250 50 0 empty empty empty 17 7 0 10 #fcfcfc #000000 #000000;
#X obj 1026 373 spigot;
#X obj 1065 332 tgl 30 0 empty empty empty 17 7 0 10 #fcfcfc #000000 #000000 0 1;
#X obj 1106 340 bng 15 250 50 0 empty empty empty 17 7 0 10 #fcfcfc #000000 #000000;
#X obj 1106 373 spigot;
#X obj 1145 332 tgl 30 0 empty empty empty 17 7 0 10 #fcfcfc #000000 #000000 0 1;
#X obj 1184 339 bng 15 250 50 0 empty empty empty 17 7 0 10 #fcfcfc #000000 #000000;
#X obj 1184 372 spigot;
#X obj 1223 331 tgl 30 0 empty empty empty 17 7 0 10 #fcfcfc #000000 #000000 0 1;
#X obj 509 424 s snare;
#X obj 1303 182 loadbang;
#X connect 0 0 1 0;
#X connect 0 0 65 0;
#X connect 0 0 114 0;
#X connect 1 0 2 0;
#X connect 2 0 64 0;
#X connect 3 0 2 1;
#X connect 4 0 5 0;
#X connect 5 0 64 0;
#X connect 6 0 5 1;
#X connect 7 0 8 0;
#X connect 8 0 64 0;
#X connect 9 0 8 1;
#X connect 10 0 11 0;
#X connect 11 0 64 0;
#X connect 12 0 11 1;
#X connect 13 0 14 0;
#X connect 14 0 64 0;
#X connect 15 0 14 1;
#X connect 16 0 17 0;
#X connect 17 0 64 0;
#X connect 18 0 17 1;
#X connect 19 0 20 0;
#X connect 20 0 64 0;
#X connect 21 0 20 1;
#X connect 22 0 23 0;
#X connect 23 0 64 0;
#X connect 24 0 23 1;
#X connect 25 0 26 0;
#X connect 26 0 64 0;
#X connect 27 0 26 1;
#X connect 28 0 29 0;
#X connect 29 0 64 0;
#X connect 30 0 29 1;
#X connect 31 0 32 0;
#X connect 32 0 64 0;
#X connect 33 0 32 1;
#X connect 34 0 35 0;
#X connect 35 0 64 0;
#X connect 36 0 35 1;
#X connect 37 0 38 0;
#X connect 38 0 64 0;
#X connect 39 0 38 1;
#X connect 40 0 41 0;
#X connect 41 0 64 0;
#X connect 42 0 41 1;
#X connect 43 0 44 0;
#X connect 44 0 64 0;
#X connect 45 0 44 1;
#X connect 46 0 47 0;
#X connect 46 0 159 0;
#X connect 46 0 110 0;
#X connect 47 0 64 0;
#X connect 48 0 47 1;
#X connect 49 0 4 0;
#X connect 49 0 68 0;
#X connect 49 0 117 0;
#X connect 50 0 7 0;
#X connect 50 0 71 0;
#X connect 50 0 120 0;
#X connect 51 0 10 0;
#X connect 51 0 74 0;
#X connect 51 0 123 0;
#X connect 52 0 13 0;
#X connect 52 0 77 0;
#X connect 52 0 126 0;
#X connect 53 0 16 0;
#X connect 53 0 80 0;
#X connect 53 0 129 0;
#X connect 54 0 19 0;
#X connect 54 0 83 0;
#X connect 54 0 132 0;
#X connect 55 0 22 0;
#X connect 55 0 86 0;
#X connect 55 0 135 0;
#X connect 56 0 25 0;
#X connect 56 0 89 0;
#X connect 56 0 138 0;
#X connect 57 0 28 0;
#X connect 57 0 92 0;
#X connect 57 0 141 0;
#X connect 58 0 31 0;
#X connect 58 0 95 0;
#X connect 58 0 144 0;
#X connect 59 0 34 0;
#X connect 59 0 98 0;
#X connect 59 0 147 0;
#X connect 60 0 37 0;
#X connect 60 0 101 0;
#X connect 60 0 150 0;
#X connect 61 0 40 0;
#X connect 61 0 104 0;
#X connect 61 0 153 0;
#X connect 62 0 43 0;
#X connect 62 0 107 0;
#X connect 62 0 156 0;
#X connect 63 0 46 0;
#X connect 65 0 66 0;
#X connect 66 0 113 0;
#X connect 67 0 66 1;
#X connect 68 0 69 0;
#X connect 69 0 113 0;
#X connect 70 0 69 1;
#X connect 71 0 72 0;
#X connect 72 0 113 0;
#X connect 73 0 72 1;
#X connect 74 0 75 0;
#X connect 75 0 113 0;
#X connect 76 0 75 1;
#X connect 77 0 78 0;
#X connect 78 0 113 0;
#X connect 79 0 78 1;
#X connect 80 0 81 0;
#X connect 81 0 113 0;
#X connect 82 0 81 1;
#X connect 83 0 84 0;
#X connect 84 0 113 0;
#X connect 85 0 84 1;
#X connect 86 0 87 0;
#X connect 87 0 113 0;
#X connect 88 0 87 1;
#X connect 89 0 90 0;
#X connect 90 0 113 0;
#X connect 91 0 90 1;
#X connect 92 0 93 0;
#X connect 93 0 113 0;
#X connect 94 0 93 1;
#X connect 95 0 96 0;
#X connect 96 0 113 0;
#X connect 97 0 96 1;
#X connect 98 0 99 0;
#X connect 99 0 113 0;
#X connect 100 0 99 1;
#X connect 101 0 102 0;
#X connect 102 0 113 0;
#X connect 103 0 102 1;
#X connect 104 0 105 0;
#X connect 105 0 113 0;
#X connect 106 0 105 1;
#X connect 107 0 108 0;
#X connect 108 0 113 0;
#X connect 109 0 108 1;
#X connect 110 0 111 0;
#X connect 111 0 113 0;
#X connect 112 0 111 1;
#X connect 114 0 115 0;
#X connect 115 0 162 0;
#X connect 116 0 115 1;
#X connect 117 0 118 0;
#X connect 118 0 162 0;
#X connect 119 0 118 1;
#X connect 120 0 121 0;
#X connect 121 0 162 0;
#X connect 122 0 121 1;
#X connect 123 0 124 0;
#X connect 124 0 162 0;
#X connect 125 0 124 1;
#X connect 126 0 127 0;
#X connect 127 0 162 0;
#X connect 128 0 127 1;
#X connect 129 0 130 0;
#X connect 130 0 162 0;
#X connect 131 0 130 1;
#X connect 132 0 133 0;
#X connect 133 0 162 0;
#X connect 134 0 133 1;
#X connect 135 0 136 0;
#X connect 136 0 162 0;
#X connect 137 0 136 1;
#X connect 138 0 139 0;
#X connect 139 0 162 0;
#X connect 140 0 139 1;
#X connect 141 0 142 0;
#X connect 142 0 162 0;
#X connect 143 0 142 1;
#X connect 144 0 145 0;
#X connect 145 0 162 0;
#X connect 146 0 145 1;
#X connect 147 0 148 0;
#X connect 148 0 162 0;
#X connect 149 0 148 1;
#X connect 150 0 151 0;
#X connect 151 0 162 0;
#X connect 152 0 151 1;
#X connect 153 0 154 0;
#X connect 154 0 162 0;
#X connect 155 0 154 1;
#X connect 156 0 157 0;
#X connect 157 0 162 0;
#X connect 158 0 157 1;
#X connect 159 0 160 0;
#X connect 160 0 162 0;
#X connect 161 0 160 1;
#X connect 163 0 3 0;
#X connect 163 0 30 0;
#X connect 163 0 33 0;
#X connect 163 0 67 0;
#X connect 163 0 70 0;
#X connect 163 0 73 0;
#X connect 163 0 76 0;
#X connect 163 0 79 0;
#X connect 163 0 82 0;
#X connect 163 0 85 0;
#X connect 163 0 88 0;
#X connect 163 0 91 0;
#X connect 163 0 94 0;
#X connect 163 0 97 0;
#X connect 163 0 100 0;
#X connect 163 0 103 0;
#X connect 163 0 106 0;
#X connect 163 0 109 0;
#X connect 163 0 112 0;
#X connect 163 0 152 0;
#X connect 163 0 128 0;
#X restore 1590 433 pd drums;
#X obj 1574 511 bng 15 250 50 0 empty empty empty 17 7 0 10 #fcfcfc #000000 #000000;
#X obj 1574 653 readsf~;
#X obj 1574 480 r closed_hh;
#X msg 1574 611 open closed_hh.wav \, 1;
#X obj 1755 511 bng 15 250 50 0 empty empty empty 17 7 0 10 #fcfcfc #000000 #000000;
#X obj 1755 653 readsf~;
#X obj 1755 480 r snare;
#X msg 1755 611 open snare.wav \, 1;
#X obj 1509 54 array set \$0-sus-scale;
#X obj 102 541 array get \$0-sus-scale;
#X obj 102 458 bng 15 250 50 0 empty empty empty 17 7 0 10 #fcfcfc #000000 #000000;
#X obj 102 751 *~ 0.5;
#X obj 1397 550 del;
#X obj 1671 488 vsl 15 64 0 100 0 0 empty empty swing 0 -9 0 10 #fcfcfc #000000 #000000 0 1;
#X obj 1397 582 bng 15 250 50 0 empty empty empty 17 7 0 10 #fcfcfc #000000 #000000;
#X obj 1574 555 del;
#X obj 1574 587 bng 15 250 50 0 empty empty empty 17 7 0 10 #fcfcfc #000000 #000000;
#X obj 1755 550 del;
#X obj 1755 582 bng 15 250 50 0 empty empty empty 17 7 0 10 #fcfcfc #000000 #000000;
#X obj 1463 483 vsl 15 64 0 100 0 0 empty empty swing 0 -9 0 10 #fcfcfc #000000 #000000 0 1;
#X obj 1826 483 vsl 15 64 0 100 0 0 empty empty swing 0 -9 0 10 #fcfcfc #000000 #000000 0 1;
#X obj 170 792 vsl 15 64 0 1 0 0 empty empty empty 0 -9 0 10 #fcfcfc #000000 #000000 0 1;
#X obj 239 792 vsl 15 64 0 1 0 0 empty empty empty 0 -9 0 10 #fcfcfc #000000 #000000 0 1;
#X text 924 10 70;
#X obj 102 513 spigot;
#X obj 184 457 -;
#X floatatom 878 124 5 0 0 0 - - - 0;
#X obj 170 767 tgl 15 0 empty empty empty 17 7 0 10 #fcfcfc #000000 #000000 0 1;
#X obj 239 766 tgl 15 0 empty empty empty 17 7 0 10 #fcfcfc #000000 #000000 0 1;
#X floatatom 263 462 5 0 0 0 - - - 0;
#X obj 1152 130 hsl 64 15 0 10 0 0 empty empty empty -2 -8 0 10 #fcfcfc #000000 #000000 0 1;
#X obj 1070 114 random 10;
#X obj 1070 145 -;
#X floatatom 1149 150 5 0 0 0 - - - 0;
#X obj 820 199 spigot;
#X obj 1070 180 >= 0;
#X obj 184 492 >= 0;
#N canvas 192 192 867 745 pluginEffectChain 0;
#X obj 168 220 vstplugin~;
#X obj 636 145 *~;
#X msg 305 151 open -e ValhallaSupermassive.vst3;
#X obj 723 23 bng 15 250 50 0 empty empty empty 17 7 0 10 #fcfcfc #000000 #000000;
#X obj 305 127 loadbang;
#X msg 25 91 param_set 0 \$1;
#X obj 28 25 hsl 128 15 0 1 0 0 empty empty empty -2 -8 0 10 #fcfcfc #000000 #000000 0 1;
#X msg 723 43 1 1000;
#X obj 812 47 del 1000;
#X obj 636 121 osc~ 1000;
#X obj 636 169 *~ 0.2;
#X obj 723 114 vline~;
#X obj 812 71 0 1000;
#X text 14 220 ValhallaSupermassive;
#X obj 168 272 vstplugin~;
#X msg 320 177 open -e LABS.vst3;
#X obj 728 186 vsl 15 64 0 0.2 0 0 empty empty empty 0 -9 0 10 #fcfcfc #000000 #000000 0 1;
#X msg 351 205 open -e RC-20_Retro_Color.vst3;
#X obj 169 31 inlet~;
#X obj 167 353 outlet~;
#X obj 240 354 outlet~;
#X obj 303 96 bng 15 250 50 0 empty empty empty 17 7 0 10 #fcfcfc #000000 #000000;
#X obj 306 28 inlet;
#X obj 450 28 inlet;
#X text 176 10 sound;
#X text 230 6 dry/wet Effect 1;
#X text 372 6 dry/wet Effect 2;
#X floatatom 306 54 5 0 0 0 - - - 0;
#X floatatom 450 54 5 0 0 0 - - - 0;
#X msg 24 137 param_set 0 \$1;
#X obj 415 259 vsl 15 64 0 1 0 0 empty empty empty 0 -9 0 10 #fcfcfc #000000 #000000 0 1;
#X msg 415 337 param_set 6 \$1;
#X text 528 338 feedback;
#X msg 415 365 param_set 7 \$1;
#X text 528 366 density;
#X msg 415 393 param_set 8 \$1;
#X text 528 394 width;
#X msg 415 421 param_set 9 \$1;
#X text 528 422 EQ Low;
#X msg 415 448 param_set 10 \$1;
#X text 528 449 EQ High;
#X msg 415 475 param_set 11 \$1;
#X text 528 476 MOD Rate;
#X msg 415 503 param_set 12 \$1;
#X text 528 504 MOD Depth;
#X text 110 644 RC-20_Retro_Color Preset: - Flux Pitch (DRUMS);
#X text 41 600 ValhallaSupermassive Preset: - REVERBS/C-Large/80s Space Verb (DRUMS), f 71;
#X connect 0 0 14 0;
#X connect 0 1 14 1;
#X connect 1 0 10 0;
#X connect 2 0 14 0;
#X connect 3 0 7 0;
#X connect 3 0 8 0;
#X connect 4 0 2 0;
#X connect 4 0 15 0;
#X connect 4 0 17 0;
#X connect 5 0 0 0;
#X connect 6 0 5 0;
#X connect 7 0 11 0;
#X connect 8 0 12 0;
#X connect 9 0 1 0;
#X connect 11 0 1 1;
#X connect 12 0 11 0;
#X connect 14 0 19 0;
#X connect 14 1 20 0;
#X connect 16 0 10 1;
#X connect 17 0 0 0;
#X connect 18 0 0 0;
#X connect 18 0 0 1;
#X connect 21 0 2 0;
#X connect 21 0 15 0;
#X connect 21 0 17 0;
#X connect 22 0 27 0;
#X connect 23 0 28 0;
#X connect 27 0 5 0;
#X connect 28 0 29 0;
#X connect 29 0 14 0;
#X connect 30 0 31 0;
#X connect 30 0 33 0;
#X connect 30 0 35 0;
#X connect 30 0 37 0;
#X connect 30 0 39 0;
#X connect 30 0 41 0;
#X connect 30 0 43 0;
#X connect 31 0 14 0;
#X connect 33 0 14 0;
#X connect 35 0 14 0;
#X connect 37 0 14 0;
#X connect 39 0 14 0;
#X connect 41 0 14 0;
#X connect 43 0 14 0;
#X restore 1572 856 pd pluginEffectChain;
#X obj 1640 774 vsl 15 64 0 1 0 0 empty empty empty 0 -9 0 10 #fcfcfc #000000 #000000 0 1;
#X obj 1709 774 vsl 15 64 0 1 0 0 empty empty empty 0 -9 0 10 #fcfcfc #000000 #000000 0 1;
#X obj 1640 749 tgl 15 0 empty empty empty 17 7 0 10 #fcfcfc #000000 #000000 0 1;
#X obj 1709 748 tgl 15 0 empty empty empty 17 7 0 10 #fcfcfc #000000 #000000 0 1;
#X text 880 438 pitch;
#X obj 1090 394 hsl 64 15 5 10 0 0 empty empty empty -2 -8 0 10 #fcfcfc #000000 #000000 0 1;
#N canvas 32 32 867 745 pluginEffectChain 0;
#X obj 168 220 vstplugin~;
#X obj 636 145 *~;
#X msg 305 151 open -e ValhallaSupermassive.vst3;
#X obj 723 23 bng 15 250 50 0 empty empty empty 17 7 0 10 #fcfcfc #000000 #000000;
#X obj 305 127 loadbang;
#X msg 25 91 param_set 0 \$1;
#X obj 28 25 hsl 128 15 0 1 0 0 empty empty empty -2 -8 0 10 #fcfcfc #000000 #000000 0 1;
#X msg 723 43 1 1000;
#X obj 812 47 del 1000;
#X obj 636 121 osc~ 1000;
#X obj 636 169 *~ 0.2;
#X obj 723 114 vline~;
#X obj 812 71 0 1000;
#X text 14 220 ValhallaSupermassive;
#X obj 168 272 vstplugin~;
#X msg 320 177 open -e LABS.vst3;
#X obj 728 186 vsl 15 64 0 0.2 0 0 empty empty empty 0 -9 0 10 #fcfcfc #000000 #000000 0 1;
#X msg 351 205 open -e RC-20_Retro_Color.vst3;
#X obj 169 31 inlet~;
#X obj 167 353 outlet~;
#X obj 240 354 outlet~;
#X obj 303 96 bng 15 250 50 0 empty empty empty 17 7 0 10 #fcfcfc #000000 #000000;
#X obj 306 28 inlet;
#X obj 450 28 inlet;
#X text 176 10 sound;
#X text 230 6 dry/wet Effect 1;
#X text 372 6 dry/wet Effect 2;
#X floatatom 306 54 5 0 0 0 - - - 0;
#X floatatom 450 54 5 0 0 0 - - - 0;
#X msg 24 137 param_set 0 \$1;
#X obj 415 259 vsl 15 64 0 1 0 0 empty empty empty 0 -9 0 10 #fcfcfc #000000 #000000 0 1;
#X msg 415 337 param_set 6 \$1;
#X text 528 338 feedback;
#X msg 415 365 param_set 7 \$1;
#X text 528 366 density;
#X msg 415 393 param_set 8 \$1;
#X text 528 394 width;
#X msg 415 421 param_set 9 \$1;
#X text 528 422 EQ Low;
#X msg 415 448 param_set 10 \$1;
#X text 528 449 EQ High;
#X msg 415 475 param_set 11 \$1;
#X text 528 476 MOD Rate;
#X msg 415 503 param_set 12 \$1;
#X text 528 504 MOD Depth;
#X text 20 654 RC-20_Retro_Color Preset: - Dist Fat Iron (BASS);
#X text 41 607 ValhallaSupermassive Preset: - REVERBS/B-Medium/CirrusMinorPlate (BASS), f 74;
#X connect 0 0 14 0;
#X connect 0 1 14 1;
#X connect 1 0 10 0;
#X connect 2 0 14 0;
#X connect 3 0 7 0;
#X connect 3 0 8 0;
#X connect 4 0 2 0;
#X connect 4 0 15 0;
#X connect 4 0 17 0;
#X connect 5 0 0 0;
#X connect 6 0 5 0;
#X connect 7 0 11 0;
#X connect 8 0 12 0;
#X connect 9 0 1 0;
#X connect 11 0 1 1;
#X connect 12 0 11 0;
#X connect 14 0 19 0;
#X connect 14 1 20 0;
#X connect 16 0 10 1;
#X connect 17 0 0 0;
#X connect 18 0 0 0;
#X connect 18 0 0 1;
#X connect 21 0 2 0;
#X connect 21 0 15 0;
#X connect 21 0 17 0;
#X connect 22 0 27 0;
#X connect 23 0 28 0;
#X connect 27 0 5 0;
#X connect 28 0 29 0;
#X connect 29 0 14 0;
#X connect 30 0 31 0;
#X connect 30 0 33 0;
#X connect 30 0 35 0;
#X connect 30 0 37 0;
#X connect 30 0 39 0;
#X connect 30 0 41 0;
#X connect 30 0 43 0;
#X connect 31 0 14 0;
#X connect 33 0 14 0;
#X connect 35 0 14 0;
#X connect 37 0 14 0;
#X connect 39 0 14 0;
#X connect 41 0 14 0;
#X connect 43 0 14 0;
#X restore 926 876 pd pluginEffectChain;
#X obj 893 686 vsl 15 64 0 0.5 0 0 empty empty empty 0 -9 0 10 #fcfcfc #000000 #000000 0 1;
#X obj 926 493 array get \$0-sus-scale;
#X obj 926 410 bng 15 250 50 0 empty empty empty 17 7 0 10 #fcfcfc #000000 #000000;
#X obj 926 753 *~ 0.5;
#X obj 994 794 vsl 15 64 0 1 0 0 empty empty empty 0 -9 0 10 #fcfcfc #000000 #000000 0 1;
#X obj 1063 794 vsl 15 64 0 1 0 0 empty empty empty 0 -9 0 10 #fcfcfc #000000 #000000 0 1;
#X obj 926 465 spigot;
#X obj 1008 409 -;
#X obj 994 769 tgl 15 0 empty empty empty 17 7 0 10 #fcfcfc #000000 #000000 0 1;
#X obj 1063 768 tgl 15 0 empty empty empty 17 7 0 10 #fcfcfc #000000 #000000 0 1;
#X floatatom 1087 414 5 0 0 0 - - - 0;
#X obj 1008 444 >= 0;
#X obj 926 522 f;
#X floatatom 990 572 5 0 0 0 - - - 0;
#X obj 102 485 random 18;
#X floatatom 982 524 5 0 0 0 - - - 0;
#X obj 926 437 random 8;
#X text 1088 372 bass chance 5-10;
#X text 265 420 pad chance 1-10;
#X text 1148 108 drum chance 1-10;
#X obj 1635 310 *~;
#X obj 1721 309 *~;
#X obj 1814 242 vsl 15 64 0 1 0 0 empty empty empty 0 -9 0 10 #fcfcfc #000000 #000000 0 1;
#X obj 1814 216 tgl 15 0 empty empty empty 17 7 0 10 #fcfcfc #000000 #000000 0 1;
#X obj 1553 612 vsl 15 64 0 1 0 0 empty empty empty 0 -9 0 10 #fcfcfc #000000 #000000 0 1;
#X obj 1553 587 tgl 15 0 empty empty empty 17 7 0 10 #fcfcfc #000000 #000000 0 1;
#X obj 65 596 loadbang;
#X obj 926 809 hip~;
#X msg 951 781 300;
#X text 395 493 pitch;
#X obj 605 449 hsl 64 15 0 10 0 0 empty empty empty -2 -8 0 10 #fcfcfc #000000 #000000 0 1;
#X obj 441 548 array get \$0-sus-scale;
#X obj 441 465 bng 15 250 50 0 empty empty empty 17 7 0 10 #fcfcfc #000000 #000000;
#X obj 441 758 *~ 0.5;
#X obj 441 520 spigot;
#X obj 523 464 -;
#X floatatom 602 469 5 0 0 0 - - - 0;
#X obj 523 499 >= 0;
#X obj 1574 679 *~;
#X obj 1573 724 *~ 0.5;
#X obj 412 691 vsl 15 64 0 0.5 0 0 empty empty empty 0 -9 0 10 #fcfcfc #000000 #000000 0 1;
#X floatatom 280 73 5 0 0 0 - - - 0;
#X text 179 101 x;
#X text 121 71 area;
#X text 222 131 y;
#X obj 184 426 random 10;
#N canvas 64 64 867 745 pluginEffectChain 0;
#X obj 168 220 vstplugin~;
#X obj 636 145 *~;
#X msg 305 151 open -e ValhallaSupermassive.vst3;
#X obj 723 23 bng 15 250 50 0 empty empty empty 17 7 0 10 #fcfcfc #000000 #000000;
#X obj 305 127 loadbang;
#X msg 25 91 param_set 0 \$1;
#X obj 28 25 hsl 128 15 0 1 0 0 empty empty empty -2 -8 0 10 #fcfcfc #000000 #000000 0 1;
#X msg 723 43 1 1000;
#X obj 812 47 del 1000;
#X obj 636 121 osc~ 1000;
#X obj 636 169 *~ 0.2;
#X obj 723 114 vline~;
#X obj 812 71 0 1000;
#X text 14 220 ValhallaSupermassive;
#X obj 168 272 vstplugin~;
#X msg 320 177 open -e LABS.vst3;
#X obj 728 186 vsl 15 64 0 0.2 0 0 empty empty empty 0 -9 0 10 #fcfcfc #000000 #000000 0 1;
#X msg 351 205 open -e RC-20_Retro_Color.vst3;
#X obj 169 31 inlet~;
#X obj 167 353 outlet~;
#X obj 240 354 outlet~;
#X obj 303 96 bng 15 250 50 0 empty empty empty 17 7 0 10 #fcfcfc #000000 #000000;
#X obj 306 28 inlet;
#X obj 450 28 inlet;
#X text 176 10 sound;
#X text 230 6 dry/wet Effect 1;
#X text 372 6 dry/wet Effect 2;
#X floatatom 306 54 5 0 0 0 - - - 0;
#X floatatom 450 54 5 0 0 0 - - - 0;
#X msg 24 137 param_set 0 \$1;
#X obj 415 259 vsl 15 64 0 1 0 0 empty empty empty 0 -9 0 10 #fcfcfc #000000 #000000 0 1;
#X msg 415 337 param_set 6 \$1;
#X text 528 338 feedback;
#X msg 415 365 param_set 7 \$1;
#X text 528 366 density;
#X msg 415 393 param_set 8 \$1;
#X text 528 394 width;
#X msg 415 421 param_set 9 \$1;
#X text 528 422 EQ Low;
#X msg 415 448 param_set 10 \$1;
#X text 528 449 EQ High;
#X msg 415 475 param_set 11 \$1;
#X text 528 476 MOD Rate;
#X msg 415 503 param_set 12 \$1;
#X text 528 504 MOD Depth;
#X text 41 607 ValhallaSupermassive Preset: - ECHOES/Guitar/Palm Mute (LEAD), f 62;
#X text 77 648 RC-20_Retro_Color Preset: - Lush & Crunch Guitar 2 (LEAD) Hotline Phase;
#X connect 0 0 14 0;
#X connect 0 1 14 1;
#X connect 1 0 10 0;
#X connect 2 0 14 0;
#X connect 3 0 7 0;
#X connect 3 0 8 0;
#X connect 4 0 2 0;
#X connect 4 0 15 0;
#X connect 4 0 17 0;
#X connect 5 0 0 0;
#X connect 6 0 5 0;
#X connect 7 0 11 0;
#X connect 8 0 12 0;
#X connect 9 0 1 0;
#X connect 11 0 1 1;
#X connect 12 0 11 0;
#X connect 14 0 19 0;
#X connect 14 1 20 0;
#X connect 16 0 10 1;
#X connect 17 0 0 0;
#X connect 18 0 0 0;
#X connect 18 0 0 1;
#X connect 21 0 2 0;
#X connect 21 0 15 0;
#X connect 21 0 17 0;
#X connect 22 0 27 0;
#X connect 23 0 28 0;
#X connect 27 0 5 0;
#X connect 28 0 29 0;
#X connect 29 0 14 0;
#X connect 30 0 31 0;
#X connect 30 0 33 0;
#X connect 30 0 35 0;
#X connect 30 0 37 0;
#X connect 30 0 39 0;
#X connect 30 0 41 0;
#X connect 30 0 43 0;
#X connect 31 0 14 0;
#X connect 33 0 14 0;
#X connect 35 0 14 0;
#X connect 37 0 14 0;
#X connect 39 0 14 0;
#X connect 41 0 14 0;
#X connect 43 0 14 0;
#X restore 440 867 pd pluginEffectChain;
#X obj 508 785 vsl 15 64 0 1 0 0 empty empty empty 0 -9 0 10 #fcfcfc #000000 #000000 0 1;
#X obj 577 785 vsl 15 64 0 1 0 0 empty empty empty 0 -9 0 10 #fcfcfc #000000 #000000 0 1;
#X obj 508 760 tgl 15 0 empty empty empty 17 7 0 10 #fcfcfc #000000 #000000 0 1;
#X obj 577 759 tgl 15 0 empty empty empty 17 7 0 10 #fcfcfc #000000 #000000 0 1;
#X obj 893 611 loadbang;
#X obj 1008 378 random 10;
#X obj 101 914 throw~ left;
#X obj 239 914 throw~ right;
#X obj 439 914 throw~ left;
#X obj 577 914 throw~ right;
#X obj 926 914 throw~ left;
#X obj 1064 914 throw~ right;
#X obj 1571 923 throw~ left;
#X obj 1709 923 throw~ right;
#X obj 1635 270 catch~ left;
#X obj 1720 270 catch~ right;
#X obj 523 433 random 10;
#X obj 412 669 tgl 15 0 empty empty empty 17 7 0 10 #fcfcfc #000000 #000000 0 1;
#X obj 65 659 tgl 15 0 empty empty empty 17 7 0 10 #fcfcfc #000000 #000000 0 1;
#X obj 893 664 tgl 15 0 empty empty empty 17 7 0 10 #fcfcfc #000000 #000000 0 1;
#X obj 1377 612 vsl 15 64 0 1 0 0 empty empty empty 0 -9 0 10 #fcfcfc #000000 #000000 0 1;
#X obj 1398 679 *~;
#X obj 1397 724 *~ 0.5;
#X obj 1377 587 tgl 15 0 empty empty empty 17 7 0 10 #fcfcfc #000000 #000000 0 1;
#X obj 1734 612 vsl 15 64 0 1 0 0 empty empty empty 0 -9 0 10 #fcfcfc #000000 #000000 0 1;
#X obj 1755 679 *~;
#X obj 1754 724 *~ 0.5;
#X obj 1734 587 tgl 15 0 empty empty empty 17 7 0 10 #fcfcfc #000000 #000000 0 1;
#X obj 441 492 random 12;
#X obj 73 39 unpack s f f f f f f, f 36;
#X floatatom 322 102 5 0 0 0 - - - 0;
#N canvas -17 41 1920 976 lead_voice 0;
#X obj 31 15 inlet;
#X text 21 268 pitch;
#X obj 231 224 hsl 64 15 0 10 0 0 empty empty empty -2 -8 0 10 #fcfcfc #000000 #000000 0 1;
#X obj 67 323 array get \$0-sus-scale;
#X obj 67 240 bng 15 250 50 0 empty empty empty 17 7 0 10 #fcfcfc #000000 #000000;
#X obj 67 533 *~ 0.5;
#X obj 67 295 spigot;
#X obj 149 239 -;
#X floatatom 228 244 5 0 0 0 - - - 0;
#X obj 149 276 >= 0;
#X text 230 202 pad chance 1-10;
#X obj 38 466 vsl 15 64 0 1 0 0 empty empty empty 0 -9 0 10 #fcfcfc #000000 #000000 0 1;
#X floatatom 318 291 5 0 0 0 - - - 0;
#X obj 318 267 * 1000;
#X floatatom 228 291 5 0 0 0 - - - 0;
#X obj 149 208 random 10;
#X obj 38 444 tgl 15 0 empty empty empty 17 7 0 10 #fcfcfc #000000 #000000 0 1;
#X obj 67 267 random 12;
#X obj 591 9 inlet;
#X obj 681 8 inlet;
#X obj 771 8 inlet;
#X text 9 14 id;
#X text 484 8 size;
#X text 665 8 x;
#X text 755 8 y;
#X obj 31 39 sel 1 2 3 4 5 6 7 8 9 10, f 68;
#X floatatom 591 58 5 0 0 0 - - - 0;
#X obj 591 33 / 400;
#X floatatom 12 423 5 0 0 0 - - - 0;
#X obj 67 557 throw~ voice1;
#X obj 12 399 r p1;
#X obj 681 32 / 400;
#X obj 771 32 / 400;
#X floatatom 681 76 5 0 0 0 - - - 0;
#X floatatom 771 76 5 0 0 0 - - - 0;
#X obj 851 58 s x1;
#X obj 892 58 s x2;
#X obj 933 58 s x3;
#X obj 974 58 s x4;
#X obj 1015 58 s x5;
#X obj 1056 58 s x6;
#X obj 1097 58 s x7;
#X obj 1138 58 s x8;
#X obj 1179 58 s x9;
#X obj 1220 58 s x10;
#X obj 1261 58 s x11;
#X obj 1751 58 s y11;
#X obj 1710 58 s y10;
#X obj 1669 58 s y9;
#X obj 1628 58 s y8;
#X obj 1587 58 s y7;
#X obj 1546 58 s y6;
#X obj 1505 58 s y5;
#X obj 1464 58 s y4;
#X obj 1423 58 s y3;
#X obj 1382 58 s y2;
#X obj 1341 58 s y1;
#X obj 354 181 r p1;
#X obj 354 205 * 10;
#X obj 67 207 r tick;
#X text 391 268 pitch;
#X obj 601 224 hsl 64 15 0 10 0 0 empty empty empty -2 -8 0 10 #fcfcfc #000000 #000000 0 1;
#X obj 437 323 array get \$0-sus-scale;
#X obj 437 240 bng 15 250 50 0 empty empty empty 17 7 0 10 #fcfcfc #000000 #000000;
#X obj 437 533 *~ 0.5;
#X obj 437 295 spigot;
#X obj 519 239 -;
#X floatatom 598 244 5 0 0 0 - - - 0;
#X obj 519 274 >= 0;
#X text 600 202 pad chance 1-10;
#X obj 408 466 vsl 15 64 0 1 0 0 empty empty empty 0 -9 0 10 #fcfcfc #000000 #000000 0 1;
#X floatatom 688 291 5 0 0 0 - - - 0;
#X obj 688 267 * 1000;
#X obj 598 267 * 100;
#X floatatom 598 291 5 0 0 0 - - - 0;
#X obj 519 208 random 10;
#X obj 408 444 tgl 15 0 empty empty empty 17 7 0 10 #fcfcfc #000000 #000000 0 1;
#X obj 437 267 random 12;
#X floatatom 382 423 5 0 0 0 - - - 0;
#X obj 724 205 * 10;
#X text 761 268 pitch;
#X obj 971 224 hsl 64 15 0 10 0 0 empty empty empty -2 -8 0 10 #fcfcfc #000000 #000000 0 1;
#X obj 807 509 *~;
#X obj 922 368 bng 15 250 50 0 empty empty empty 17 7 0 10 #fcfcfc #000000 #000000;
#X floatatom 861 350 5 0 0 0 - - - 0;
#X obj 807 349 mtof;
#X obj 807 323 array get \$0-sus-scale;
#X obj 807 240 bng 15 250 50 0 empty empty empty 17 7 0 10 #fcfcfc #000000 #000000;
#X obj 807 533 *~ 0.5;
#X obj 807 295 spigot;
#X obj 889 239 -;
#X floatatom 968 244 5 0 0 0 - - - 0;
#X obj 889 274 >= 0;
#X text 970 202 pad chance 1-10;
#N canvas 224 224 547 401 envelope 0;
#X obj 222 18 inlet;
#X obj 222 60 bng 15 250 50 0 empty empty empty 17 7 0 10 #fcfcfc #000000 #000000;
#X obj 246 172 vline~;
#X obj 246 198 pow~ 2;
#X floatatom 279 62 5 0 0 0 - - - 0;
#X floatatom 332 62 5 0 0 0 - - - 0;
#X obj 246 93 pack b f f;
#X msg 246 126 1 \$2 \, 0 \$3 \$2;
#X obj 279 18 inlet;
#X obj 332 18 inlet;
#X obj 245 234 outlet~;
#X connect 0 0 1 0;
#X connect 1 0 6 0;
#X connect 2 0 3 0;
#X connect 3 0 10 0;
#X connect 4 0 6 1;
#X connect 5 0 6 2;
#X connect 6 0 7 0;
#X connect 7 0 2 0;
#X connect 8 0 4 0;
#X connect 9 0 5 0;
#X restore 851 427 pd envelope;
#X f 13;
#X obj 778 466 vsl 15 64 0 1 0 0 empty empty empty 0 -9 0 10 #fcfcfc #000000 #000000 0 1;
#X floatatom 1053 396 5 0 0 0 - - - 0;
#X floatatom 963 396 5 0 0 0 - - - 0;
#X obj 1053 347 random 5000;
#X obj 963 373 + 10;
#X floatatom 1058 291 5 0 0 0 - - - 0;
#X obj 1058 267 * 1000;
#X obj 968 267 * 100;
#X floatatom 968 291 5 0 0 0 - - - 0;
#X obj 1053 373 + 500;
#X obj 889 208 random 10;
#X obj 778 444 tgl 15 0 empty empty empty 17 7 0 10 #fcfcfc #000000 #000000 0 1;
#X obj 963 347 random 50;
#X obj 807 485 phasor~ 1000;
#X obj 807 267 random 12;
#X floatatom 752 423 5 0 0 0 - - - 0;
#X obj 1094 205 * 10;
#X text 1121 268 pitch;
#X obj 1331 224 hsl 64 15 0 10 0 0 empty empty empty -2 -8 0 10 #fcfcfc #000000 #000000 0 1;
#X obj 1167 509 *~;
#X obj 1282 368 bng 15 250 50 0 empty empty empty 17 7 0 10 #fcfcfc #000000 #000000;
#X floatatom 1221 350 5 0 0 0 - - - 0;
#X obj 1167 349 mtof;
#X obj 1167 323 array get \$0-sus-scale;
#X obj 1167 240 bng 15 250 50 0 empty empty empty 17 7 0 10 #fcfcfc #000000 #000000;
#X obj 1167 533 *~ 0.5;
#X obj 1167 295 spigot;
#X obj 1249 239 -;
#X floatatom 1328 244 5 0 0 0 - - - 0;
#X obj 1249 274 >= 0;
#X text 1330 202 pad chance 1-10;
#N canvas 224 224 547 401 envelope 0;
#X obj 222 18 inlet;
#X obj 222 60 bng 15 250 50 0 empty empty empty 17 7 0 10 #fcfcfc #000000 #000000;
#X obj 246 172 vline~;
#X obj 246 198 pow~ 2;
#X floatatom 279 62 5 0 0 0 - - - 0;
#X floatatom 332 62 5 0 0 0 - - - 0;
#X obj 246 93 pack b f f;
#X msg 246 126 1 \$2 \, 0 \$3 \$2;
#X obj 279 18 inlet;
#X obj 332 18 inlet;
#X obj 245 234 outlet~;
#X connect 0 0 1 0;
#X connect 1 0 6 0;
#X connect 2 0 3 0;
#X connect 3 0 10 0;
#X connect 4 0 6 1;
#X connect 5 0 6 2;
#X connect 6 0 7 0;
#X connect 7 0 2 0;
#X connect 8 0 4 0;
#X connect 9 0 5 0;
#X restore 1211 427 pd envelope;
#X f 13;
#X obj 1138 466 vsl 15 64 0 1 0 0 empty empty empty 0 -9 0 10 #fcfcfc #000000 #000000 0 1;
#X floatatom 1413 396 5 0 0 0 - - - 0;
#X floatatom 1323 396 5 0 0 0 - - - 0;
#X obj 1413 347 random 5000;
#X obj 1323 373 + 10;
#X floatatom 1418 291 5 0 0 0 - - - 0;
#X obj 1418 267 * 1000;
#X obj 1328 267 * 100;
#X floatatom 1328 291 5 0 0 0 - - - 0;
#X obj 1413 373 + 500;
#X obj 1249 208 random 10;
#X obj 1138 444 tgl 15 0 empty empty empty 17 7 0 10 #fcfcfc #000000 #000000 0 1;
#X obj 1323 347 random 50;
#X obj 1167 485 phasor~ 1000;
#X obj 1167 267 random 12;
#X floatatom 1112 423 5 0 0 0 - - - 0;
#X obj 1454 205 * 10;
#X text 1481 268 pitch;
#X obj 1691 224 hsl 64 15 0 10 0 0 empty empty empty -2 -8 0 10 #fcfcfc #000000 #000000 0 1;
#X obj 1527 509 *~;
#X obj 1642 368 bng 15 250 50 0 empty empty empty 17 7 0 10 #fcfcfc #000000 #000000;
#X floatatom 1581 350 5 0 0 0 - - - 0;
#X obj 1527 349 mtof;
#X obj 1527 323 array get \$0-sus-scale;
#X obj 1527 240 bng 15 250 50 0 empty empty empty 17 7 0 10 #fcfcfc #000000 #000000;
#X obj 1527 533 *~ 0.5;
#X obj 1527 295 spigot;
#X obj 1609 239 -;
#X floatatom 1688 244 5 0 0 0 - - - 0;
#X obj 1609 274 >= 0;
#X text 1690 202 pad chance 1-10;
#N canvas 224 224 547 401 envelope 0;
#X obj 222 18 inlet;
#X obj 222 60 bng 15 250 50 0 empty empty empty 17 7 0 10 #fcfcfc #000000 #000000;
#X obj 246 172 vline~;
#X obj 246 198 pow~ 2;
#X floatatom 279 62 5 0 0 0 - - - 0;
#X floatatom 332 62 5 0 0 0 - - - 0;
#X obj 246 93 pack b f f;
#X msg 246 126 1 \$2 \, 0 \$3 \$2;
#X obj 279 18 inlet;
#X obj 332 18 inlet;
#X obj 245 234 outlet~;
#X connect 0 0 1 0;
#X connect 1 0 6 0;
#X connect 2 0 3 0;
#X connect 3 0 10 0;
#X connect 4 0 6 1;
#X connect 5 0 6 2;
#X connect 6 0 7 0;
#X connect 7 0 2 0;
#X connect 8 0 4 0;
#X connect 9 0 5 0;
#X restore 1571 427 pd envelope;
#X f 13;
#X obj 1498 466 vsl 15 64 0 1 0 0 empty empty empty 0 -9 0 10 #fcfcfc #000000 #000000 0 1;
#X floatatom 1773 396 5 0 0 0 - - - 0;
#X floatatom 1683 396 5 0 0 0 - - - 0;
#X obj 1773 347 random 5000;
#X obj 1683 373 + 10;
#X floatatom 1778 291 5 0 0 0 - - - 0;
#X obj 1778 267 * 1000;
#X obj 1688 267 * 100;
#X floatatom 1688 291 5 0 0 0 - - - 0;
#X obj 1773 373 + 500;
#X obj 1609 208 random 10;
#X obj 1498 444 tgl 15 0 empty empty empty 17 7 0 10 #fcfcfc #000000 #000000 0 1;
#X obj 1683 347 random 50;
#X obj 1527 485 phasor~ 1000;
#X obj 1527 267 random 12;
#X floatatom 1472 423 5 0 0 0 - - - 0;
#X obj 1814 205 * 10;
#X text 1491 648 pitch;
#X obj 1701 604 hsl 64 15 0 10 0 0 empty empty empty -2 -8 0 10 #fcfcfc #000000 #000000 0 1;
#X obj 1537 889 *~;
#X obj 1652 748 bng 15 250 50 0 empty empty empty 17 7 0 10 #fcfcfc #000000 #000000;
#X floatatom 1591 730 5 0 0 0 - - - 0;
#X obj 1537 729 mtof;
#X obj 1537 703 array get \$0-sus-scale;
#X obj 1537 620 bng 15 250 50 0 empty empty empty 17 7 0 10 #fcfcfc #000000 #000000;
#X obj 1537 913 *~ 0.5;
#X obj 1537 675 spigot;
#X obj 1619 619 -;
#X floatatom 1698 624 5 0 0 0 - - - 0;
#X obj 1619 654 >= 0;
#X text 1700 582 pad chance 1-10;
#N canvas 224 224 547 401 envelope 0;
#X obj 222 18 inlet;
#X obj 222 60 bng 15 250 50 0 empty empty empty 17 7 0 10 #fcfcfc #000000 #000000;
#X obj 246 172 vline~;
#X obj 246 198 pow~ 2;
#X floatatom 279 62 5 0 0 0 - - - 0;
#X floatatom 332 62 5 0 0 0 - - - 0;
#X obj 246 93 pack b f f;
#X msg 246 126 1 \$2 \, 0 \$3 \$2;
#X obj 279 18 inlet;
#X obj 332 18 inlet;
#X obj 245 234 outlet~;
#X connect 0 0 1 0;
#X connect 1 0 6 0;
#X connect 2 0 3 0;
#X connect 3 0 10 0;
#X connect 4 0 6 1;
#X connect 5 0 6 2;
#X connect 6 0 7 0;
#X connect 7 0 2 0;
#X connect 8 0 4 0;
#X connect 9 0 5 0;
#X restore 1581 807 pd envelope;
#X f 13;
#X obj 1508 846 vsl 15 64 0 1 0 0 empty empty empty 0 -9 0 10 #fcfcfc #000000 #000000 0 1;
#X floatatom 1783 776 5 0 0 0 - - - 0;
#X floatatom 1693 776 5 0 0 0 - - - 0;
#X obj 1783 727 random 5000;
#X obj 1693 753 + 10;
#X floatatom 1788 671 5 0 0 0 - - - 0;
#X obj 1788 647 * 1000;
#X obj 1698 647 * 100;
#X floatatom 1698 671 5 0 0 0 - - - 0;
#X obj 1783 753 + 500;
#X obj 1619 588 random 10;
#X obj 1508 824 tgl 15 0 empty empty empty 17 7 0 10 #fcfcfc #000000 #000000 0 1;
#X obj 1693 727 random 50;
#X obj 1537 865 phasor~ 1000;
#X obj 1537 647 random 12;
#X floatatom 1482 803 5 0 0 0 - - - 0;
#X obj 1824 585 * 10;
#X text 1131 648 pitch;
#X obj 1341 604 hsl 64 15 0 10 0 0 empty empty empty -2 -8 0 10 #fcfcfc #000000 #000000 0 1;
#X obj 1177 889 *~;
#X obj 1292 748 bng 15 250 50 0 empty empty empty 17 7 0 10 #fcfcfc #000000 #000000;
#X floatatom 1231 730 5 0 0 0 - - - 0;
#X obj 1177 729 mtof;
#X obj 1177 703 array get \$0-sus-scale;
#X obj 1177 620 bng 15 250 50 0 empty empty empty 17 7 0 10 #fcfcfc #000000 #000000;
#X obj 1177 913 *~ 0.5;
#X obj 1177 675 spigot;
#X obj 1259 619 -;
#X floatatom 1338 624 5 0 0 0 - - - 0;
#X obj 1259 654 >= 0;
#X text 1340 582 pad chance 1-10;
#N canvas 224 224 547 401 envelope 0;
#X obj 222 18 inlet;
#X obj 222 60 bng 15 250 50 0 empty empty empty 17 7 0 10 #fcfcfc #000000 #000000;
#X obj 246 172 vline~;
#X obj 246 198 pow~ 2;
#X floatatom 279 62 5 0 0 0 - - - 0;
#X floatatom 332 62 5 0 0 0 - - - 0;
#X obj 246 93 pack b f f;
#X msg 246 126 1 \$2 \, 0 \$3 \$2;
#X obj 279 18 inlet;
#X obj 332 18 inlet;
#X obj 245 234 outlet~;
#X connect 0 0 1 0;
#X connect 1 0 6 0;
#X connect 2 0 3 0;
#X connect 3 0 10 0;
#X connect 4 0 6 1;
#X connect 5 0 6 2;
#X connect 6 0 7 0;
#X connect 7 0 2 0;
#X connect 8 0 4 0;
#X connect 9 0 5 0;
#X restore 1221 807 pd envelope;
#X f 13;
#X obj 1148 846 vsl 15 64 0 1 0 0 empty empty empty 0 -9 0 10 #fcfcfc #000000 #000000 0 1;
#X floatatom 1423 776 5 0 0 0 - - - 0;
#X floatatom 1333 776 5 0 0 0 - - - 0;
#X obj 1423 727 random 5000;
#X obj 1333 753 + 10;
#X floatatom 1428 671 5 0 0 0 - - - 0;
#X obj 1428 647 * 1000;
#X obj 1338 647 * 100;
#X floatatom 1338 671 5 0 0 0 - - - 0;
#X obj 1423 753 + 500;
#X obj 1259 588 random 10;
#X obj 1148 824 tgl 15 0 empty empty empty 17 7 0 10 #fcfcfc #000000 #000000 0 1;
#X obj 1333 727 random 50;
#X obj 1177 865 phasor~ 1000;
#X obj 1177 647 random 12;
#X floatatom 1122 803 5 0 0 0 - - - 0;
#X obj 1464 585 * 10;
#X text 771 648 pitch;
#X obj 981 604 hsl 64 15 0 10 0 0 empty empty empty -2 -8 0 10 #fcfcfc #000000 #000000 0 1;
#X obj 817 889 *~;
#X obj 932 748 bng 15 250 50 0 empty empty empty 17 7 0 10 #fcfcfc #000000 #000000;
#X floatatom 871 730 5 0 0 0 - - - 0;
#X obj 817 729 mtof;
#X obj 817 703 array get \$0-sus-scale;
#X obj 817 620 bng 15 250 50 0 empty empty empty 17 7 0 10 #fcfcfc #000000 #000000;
#X obj 817 913 *~ 0.5;
#X obj 817 675 spigot;
#X obj 899 619 -;
#X floatatom 978 624 5 0 0 0 - - - 0;
#X obj 899 654 >= 0;
#X text 980 582 pad chance 1-10;
#N canvas 224 224 547 401 envelope 0;
#X obj 222 18 inlet;
#X obj 222 60 bng 15 250 50 0 empty empty empty 17 7 0 10 #fcfcfc #000000 #000000;
#X obj 246 172 vline~;
#X obj 246 198 pow~ 2;
#X floatatom 279 62 5 0 0 0 - - - 0;
#X floatatom 332 62 5 0 0 0 - - - 0;
#X obj 246 93 pack b f f;
#X msg 246 126 1 \$2 \, 0 \$3 \$2;
#X obj 279 18 inlet;
#X obj 332 18 inlet;
#X obj 245 234 outlet~;
#X connect 0 0 1 0;
#X connect 1 0 6 0;
#X connect 2 0 3 0;
#X connect 3 0 10 0;
#X connect 4 0 6 1;
#X connect 5 0 6 2;
#X connect 6 0 7 0;
#X connect 7 0 2 0;
#X connect 8 0 4 0;
#X connect 9 0 5 0;
#X restore 861 807 pd envelope;
#X f 13;
#X obj 788 846 vsl 15 64 0 1 0 0 empty empty empty 0 -9 0 10 #fcfcfc #000000 #000000 0 1;
#X floatatom 1063 776 5 0 0 0 - - - 0;
#X floatatom 973 776 5 0 0 0 - - - 0;
#X obj 1063 727 random 5000;
#X obj 973 753 + 10;
#X floatatom 1068 671 5 0 0 0 - - - 0;
#X obj 1068 647 * 1000;
#X obj 978 647 * 100;
#X floatatom 978 671 5 0 0 0 - - - 0;
#X obj 1063 753 + 500;
#X obj 899 588 random 10;
#X obj 788 824 tgl 15 0 empty empty empty 17 7 0 10 #fcfcfc #000000 #000000 0 1;
#X obj 973 727 random 50;
#X obj 817 865 phasor~ 1000;
#X obj 817 647 random 12;
#X floatatom 762 803 5 0 0 0 - - - 0;
#X obj 1104 585 * 10;
#X text 401 648 pitch;
#X obj 611 604 hsl 64 15 0 10 0 0 empty empty empty -2 -8 0 10 #fcfcfc #000000 #000000 0 1;
#X obj 447 889 *~;
#X obj 562 748 bng 15 250 50 0 empty empty empty 17 7 0 10 #fcfcfc #000000 #000000;
#X floatatom 501 730 5 0 0 0 - - - 0;
#X obj 447 729 mtof;
#X obj 447 703 array get \$0-sus-scale;
#X obj 447 620 bng 15 250 50 0 empty empty empty 17 7 0 10 #fcfcfc #000000 #000000;
#X obj 447 913 *~ 0.5;
#X obj 447 675 spigot;
#X obj 529 619 -;
#X floatatom 608 624 5 0 0 0 - - - 0;
#X obj 529 654 >= 0;
#X text 610 582 pad chance 1-10;
#N canvas 224 224 547 401 envelope 0;
#X obj 222 18 inlet;
#X obj 222 60 bng 15 250 50 0 empty empty empty 17 7 0 10 #fcfcfc #000000 #000000;
#X obj 246 172 vline~;
#X obj 246 198 pow~ 2;
#X floatatom 279 62 5 0 0 0 - - - 0;
#X floatatom 332 62 5 0 0 0 - - - 0;
#X obj 246 93 pack b f f;
#X msg 246 126 1 \$2 \, 0 \$3 \$2;
#X obj 279 18 inlet;
#X obj 332 18 inlet;
#X obj 245 234 outlet~;
#X connect 0 0 1 0;
#X connect 1 0 6 0;
#X connect 2 0 3 0;
#X connect 3 0 10 0;
#X connect 4 0 6 1;
#X connect 5 0 6 2;
#X connect 6 0 7 0;
#X connect 7 0 2 0;
#X connect 8 0 4 0;
#X connect 9 0 5 0;
#X restore 491 807 pd envelope;
#X f 13;
#X obj 418 846 vsl 15 64 0 1 0 0 empty empty empty 0 -9 0 10 #fcfcfc #000000 #000000 0 1;
#X floatatom 693 776 5 0 0 0 - - - 0;
#X floatatom 603 776 5 0 0 0 - - - 0;
#X obj 693 727 random 5000;
#X obj 603 753 + 10;
#X floatatom 698 671 5 0 0 0 - - - 0;
#X obj 698 647 * 1000;
#X obj 608 647 * 100;
#X floatatom 608 671 5 0 0 0 - - - 0;
#X obj 693 753 + 500;
#X obj 529 588 random 10;
#X obj 418 824 tgl 15 0 empty empty empty 17 7 0 10 #fcfcfc #000000 #000000 0 1;
#X obj 603 727 random 50;
#X obj 447 865 phasor~ 1000;
#X obj 447 647 random 12;
#X floatatom 392 803 5 0 0 0 - - - 0;
#X obj 734 585 * 10;
#X text 21 648 pitch;
#X obj 231 604 hsl 64 15 0 10 0 0 empty empty empty -2 -8 0 10 #fcfcfc #000000 #000000 0 1;
#X obj 67 889 *~;
#X obj 182 748 bng 15 250 50 0 empty empty empty 17 7 0 10 #fcfcfc #000000 #000000;
#X floatatom 121 730 5 0 0 0 - - - 0;
#X obj 67 729 mtof;
#X obj 67 703 array get \$0-sus-scale;
#X obj 67 620 bng 15 250 50 0 empty empty empty 17 7 0 10 #fcfcfc #000000 #000000;
#X obj 67 913 *~ 0.5;
#X obj 67 675 spigot;
#X obj 149 619 -;
#X floatatom 228 624 5 0 0 0 - - - 0;
#X obj 149 654 >= 0;
#X text 230 582 pad chance 1-10;
#N canvas 224 224 547 401 envelope 0;
#X obj 222 18 inlet;
#X obj 222 60 bng 15 250 50 0 empty empty empty 17 7 0 10 #fcfcfc #000000 #000000;
#X obj 246 172 vline~;
#X obj 246 198 pow~ 2;
#X floatatom 279 62 5 0 0 0 - - - 0;
#X floatatom 332 62 5 0 0 0 - - - 0;
#X obj 246 93 pack b f f;
#X msg 246 126 1 \$2 \, 0 \$3 \$2;
#X obj 279 18 inlet;
#X obj 332 18 inlet;
#X obj 245 234 outlet~;
#X connect 0 0 1 0;
#X connect 1 0 6 0;
#X connect 2 0 3 0;
#X connect 3 0 10 0;
#X connect 4 0 6 1;
#X connect 5 0 6 2;
#X connect 6 0 7 0;
#X connect 7 0 2 0;
#X connect 8 0 4 0;
#X connect 9 0 5 0;
#X restore 111 807 pd envelope;
#X f 13;
#X obj 38 846 vsl 15 64 0 1 0 0 empty empty empty 0 -9 0 10 #fcfcfc #000000 #000000 0 1;
#X floatatom 313 776 5 0 0 0 - - - 0;
#X floatatom 223 776 5 0 0 0 - - - 0;
#X obj 313 727 random 5000;
#X obj 223 753 + 10;
#X floatatom 318 671 5 0 0 0 - - - 0;
#X obj 318 647 * 1000;
#X obj 228 647 * 100;
#X floatatom 228 671 5 0 0 0 - - - 0;
#X obj 313 753 + 500;
#X obj 149 588 random 10;
#X obj 38 824 tgl 15 0 empty empty empty 17 7 0 10 #fcfcfc #000000 #000000 0 1;
#X obj 223 727 random 50;
#X obj 67 865 phasor~ 1000;
#X obj 67 647 random 12;
#X floatatom 12 803 5 0 0 0 - - - 0;
#X obj 354 585 * 10;
#X obj 382 399 r p2;
#X obj 752 399 r p3;
#X obj 724 181 r p2;
#X obj 1094 181 r p3;
#X obj 1103 402 r p4;
#X obj 1454 181 r p4;
#X obj 1472 399 r p5;
#X obj 1814 181 r p5;
#X obj 12 779 r p6;
#X obj 354 561 r p6;
#X obj 734 561 r p7;
#X obj 392 779 r p7;
#X obj 762 779 r p8;
#X obj 1104 561 r p8;
#X obj 1122 779 r p9;
#X obj 1464 561 r p9;
#X obj 1482 779 r p10;
#X obj 1824 561 r p10;
#X obj 437 557 throw~ voice2;
#X obj 807 557 throw~ voice3;
#X obj 1167 557 throw~ voice4;
#X obj 1527 557 throw~ voice5;
#X obj 67 937 throw~ voice6;
#X obj 447 937 throw~ voice7;
#X obj 817 937 throw~ voice8;
#X obj 1177 937 throw~ voice9;
#X obj 1537 937 throw~ voice10;
#X obj 72 128 s p2;
#X obj 113 128 s p3;
#X obj 154 128 s p4;
#X obj 195 128 s p5;
#X obj 236 128 s p6;
#X obj 277 128 s p7;
#X obj 318 128 s p8;
#X obj 359 128 s p9;
#X obj 400 128 s p10;
#X obj 447 128 s p11;
#X obj 31 128 s p1;
#X obj 31 76 spigot;
#X obj 80 76 spigot;
#X obj 129 76 spigot;
#X obj 179 76 spigot;
#X obj 229 76 spigot;
#X obj 279 76 spigot;
#X obj 329 76 spigot;
#X obj 379 76 spigot;
#X obj 429 76 spigot;
#X obj 479 76 spigot;
#X obj 585 132 bng 19 250 50 0 empty empty empty 0 -10 0 12 #fcfcfc #000000 #000000;
#X obj 607 132 bng 19 250 50 0 empty empty empty 0 -10 0 12 #fcfcfc #000000 #000000;
#X obj 629 132 bng 19 250 50 0 empty empty empty 0 -10 0 12 #fcfcfc #000000 #000000;
#X obj 651 132 bng 19 250 50 0 empty empty empty 0 -10 0 12 #fcfcfc #000000 #000000;
#X obj 673 132 bng 19 250 50 0 empty empty empty 0 -10 0 12 #fcfcfc #000000 #000000;
#X obj 695 132 bng 19 250 50 0 empty empty empty 0 -10 0 12 #fcfcfc #000000 #000000;
#X obj 717 132 bng 19 250 50 0 empty empty empty 0 -10 0 12 #fcfcfc #000000 #000000;
#X obj 739 132 bng 19 250 50 0 empty empty empty 0 -10 0 12 #fcfcfc #000000 #000000;
#X obj 762 132 bng 19 250 50 0 empty empty empty 0 -10 0 12 #fcfcfc #000000 #000000;
#X obj 784 132 bng 19 250 50 0 empty empty empty 0 -10 0 12 #fcfcfc #000000 #000000;
#X obj 807 132 bng 19 250 50 0 empty empty empty 0 -10 0 12 #fcfcfc #000000 #000000;
#X obj 437 207 r tick;
#X obj 807 207 r tick;
#X obj 1167 207 r tick;
#X obj 1527 207 r tick;
#X obj 1537 587 r tick;
#X obj 1177 587 r tick;
#X obj 817 587 r tick;
#X obj 447 587 r tick;
#X obj 67 587 r tick;
#X msg 67 355 next \$1;
#X obj 228 267 * 100;
#X floatatom 191 460 5 0 0 0 - - - 0;
#X connect 0 0 25 0;
#X connect 2 0 7 1;
#X connect 2 0 8 0;
#X connect 3 0 404 0;
#X connect 4 0 17 0;
#X connect 5 0 29 0;
#X connect 6 0 3 0;
#X connect 7 0 9 0;
#X connect 8 0 13 0;
#X connect 8 0 405 0;
#X connect 9 0 6 1;
#X connect 11 0 5 1;
#X connect 13 0 12 0;
#X connect 15 0 7 0;
#X connect 15 0 8 0;
#X connect 16 0 11 0;
#X connect 17 0 6 0;
#X connect 18 0 27 0;
#X connect 19 0 31 0;
#X connect 20 0 32 0;
#X connect 25 0 56 0;
#X connect 25 0 26 0;
#X connect 25 0 374 1;
#X connect 25 0 384 0;
#X connect 25 1 36 0;
#X connect 25 1 55 0;
#X connect 25 1 375 1;
#X connect 25 1 26 0;
#X connect 25 1 385 0;
#X connect 25 2 37 0;
#X connect 25 2 54 0;
#X connect 25 2 376 1;
#X connect 25 2 26 0;
#X connect 25 2 386 0;
#X connect 25 3 38 0;
#X connect 25 3 53 0;
#X connect 25 3 377 1;
#X connect 25 3 26 0;
#X connect 25 3 387 0;
#X connect 25 4 39 0;
#X connect 25 4 52 0;
#X connect 25 4 378 1;
#X connect 25 4 26 0;
#X connect 25 4 388 0;
#X connect 25 5 40 0;
#X connect 25 5 51 0;
#X connect 25 5 379 1;
#X connect 25 5 26 0;
#X connect 25 5 389 0;
#X connect 25 6 41 0;
#X connect 25 6 50 0;
#X connect 25 6 380 1;
#X connect 25 6 26 0;
#X connect 25 6 390 0;
#X connect 25 7 42 0;
#X connect 25 7 49 0;
#X connect 25 7 381 1;
#X connect 25 7 26 0;
#X connect 25 7 391 0;
#X connect 25 8 43 0;
#X connect 25 8 48 0;
#X connect 25 8 382 1;
#X connect 25 8 26 0;
#X connect 25 8 392 0;
#X connect 25 9 44 0;
#X connect 25 9 47 0;
#X connect 25 9 383 1;
#X connect 25 9 26 0;
#X connect 25 9 393 0;
#X connect 25 10 45 0;
#X connect 25 10 46 0;
#X connect 25 10 26 0;
#X connect 25 10 394 0;
#X connect 26 0 374 0;
#X connect 26 0 383 0;
#X connect 26 0 382 0;
#X connect 26 0 381 0;
#X connect 26 0 380 0;
#X connect 26 0 379 0;
#X connect 26 0 378 0;
#X connect 26 0 377 0;
#X connect 26 0 376 0;
#X connect 26 0 375 0;
#X connect 27 0 26 0;
#X connect 30 0 11 0;
#X connect 30 0 28 0;
#X connect 31 0 33 0;
#X connect 32 0 34 0;
#X connect 57 0 58 0;
#X connect 58 0 2 0;
#X connect 59 0 4 0;
#X connect 59 0 15 0;
#X connect 61 0 66 1;
#X connect 61 0 67 0;
#X connect 62 0 404 0;
#X connect 63 0 77 0;
#X connect 64 0 354 0;
#X connect 65 0 62 0;
#X connect 66 0 68 0;
#X connect 67 0 72 0;
#X connect 67 0 73 0;
#X connect 68 0 65 1;
#X connect 70 0 64 1;
#X connect 72 0 71 0;
#X connect 73 0 74 0;
#X connect 75 0 66 0;
#X connect 75 0 67 0;
#X connect 76 0 70 0;
#X connect 77 0 65 0;
#X connect 79 0 61 0;
#X connect 81 0 90 1;
#X connect 81 0 91 0;
#X connect 82 0 88 0;
#X connect 83 0 98 0;
#X connect 83 0 107 0;
#X connect 85 0 83 0;
#X connect 85 0 94 0;
#X connect 85 0 108 0;
#X connect 86 0 84 0;
#X connect 86 0 85 0;
#X connect 87 0 109 0;
#X connect 88 0 355 0;
#X connect 89 0 86 0;
#X connect 90 0 92 0;
#X connect 91 0 101 0;
#X connect 91 0 102 0;
#X connect 92 0 89 1;
#X connect 94 0 82 1;
#X connect 95 0 88 1;
#X connect 96 0 94 2;
#X connect 97 0 94 1;
#X connect 98 0 104 0;
#X connect 99 0 97 0;
#X connect 100 0 98 1;
#X connect 101 0 100 0;
#X connect 102 0 103 0;
#X connect 102 0 107 1;
#X connect 104 0 96 0;
#X connect 105 0 90 0;
#X connect 106 0 95 0;
#X connect 107 0 99 0;
#X connect 108 0 82 0;
#X connect 109 0 89 0;
#X connect 111 0 81 0;
#X connect 113 0 122 1;
#X connect 113 0 123 0;
#X connect 114 0 120 0;
#X connect 115 0 130 0;
#X connect 115 0 139 0;
#X connect 117 0 115 0;
#X connect 117 0 126 0;
#X connect 117 0 140 0;
#X connect 118 0 116 0;
#X connect 118 0 117 0;
#X connect 119 0 141 0;
#X connect 120 0 356 0;
#X connect 121 0 118 0;
#X connect 122 0 124 0;
#X connect 123 0 133 0;
#X connect 123 0 134 0;
#X connect 124 0 121 1;
#X connect 126 0 114 1;
#X connect 127 0 120 1;
#X connect 128 0 126 2;
#X connect 129 0 126 1;
#X connect 130 0 136 0;
#X connect 131 0 129 0;
#X connect 132 0 130 1;
#X connect 133 0 132 0;
#X connect 134 0 135 0;
#X connect 134 0 139 1;
#X connect 136 0 128 0;
#X connect 137 0 122 0;
#X connect 138 0 127 0;
#X connect 139 0 131 0;
#X connect 140 0 114 0;
#X connect 141 0 121 0;
#X connect 143 0 113 0;
#X connect 145 0 154 1;
#X connect 145 0 155 0;
#X connect 146 0 152 0;
#X connect 147 0 162 0;
#X connect 147 0 171 0;
#X connect 149 0 147 0;
#X connect 149 0 158 0;
#X connect 149 0 172 0;
#X connect 150 0 148 0;
#X connect 150 0 149 0;
#X connect 151 0 173 0;
#X connect 152 0 357 0;
#X connect 153 0 150 0;
#X connect 154 0 156 0;
#X connect 155 0 165 0;
#X connect 155 0 166 0;
#X connect 156 0 153 1;
#X connect 158 0 146 1;
#X connect 159 0 152 1;
#X connect 160 0 158 2;
#X connect 161 0 158 1;
#X connect 162 0 168 0;
#X connect 163 0 161 0;
#X connect 164 0 162 1;
#X connect 165 0 164 0;
#X connect 166 0 167 0;
#X connect 166 0 171 1;
#X connect 168 0 160 0;
#X connect 169 0 154 0;
#X connect 170 0 159 0;
#X connect 171 0 163 0;
#X connect 172 0 146 0;
#X connect 173 0 153 0;
#X connect 175 0 145 0;
#X connect 177 0 186 1;
#X connect 177 0 187 0;
#X connect 178 0 184 0;
#X connect 179 0 194 0;
#X connect 179 0 203 0;
#X connect 181 0 179 0;
#X connect 181 0 190 0;
#X connect 181 0 204 0;
#X connect 182 0 180 0;
#X connect 182 0 181 0;
#X connect 183 0 205 0;
#X connect 184 0 362 0;
#X connect 185 0 182 0;
#X connect 186 0 188 0;
#X connect 187 0 197 0;
#X connect 187 0 198 0;
#X connect 188 0 185 1;
#X connect 190 0 178 1;
#X connect 191 0 184 1;
#X connect 192 0 190 2;
#X connect 193 0 190 1;
#X connect 194 0 200 0;
#X connect 195 0 193 0;
#X connect 196 0 194 1;
#X connect 197 0 196 0;
#X connect 198 0 199 0;
#X connect 198 0 203 1;
#X connect 200 0 192 0;
#X connect 201 0 186 0;
#X connect 202 0 191 0;
#X connect 203 0 195 0;
#X connect 204 0 178 0;
#X connect 205 0 185 0;
#X connect 207 0 177 0;
#X connect 209 0 218 1;
#X connect 209 0 219 0;
#X connect 210 0 216 0;
#X connect 211 0 226 0;
#X connect 211 0 235 0;
#X connect 213 0 211 0;
#X connect 213 0 222 0;
#X connect 213 0 236 0;
#X connect 214 0 212 0;
#X connect 214 0 213 0;
#X connect 215 0 237 0;
#X connect 216 0 361 0;
#X connect 217 0 214 0;
#X connect 218 0 220 0;
#X connect 219 0 229 0;
#X connect 219 0 230 0;
#X connect 220 0 217 1;
#X connect 222 0 210 1;
#X connect 223 0 216 1;
#X connect 224 0 222 2;
#X connect 225 0 222 1;
#X connect 226 0 232 0;
#X connect 227 0 225 0;
#X connect 228 0 226 1;
#X connect 229 0 228 0;
#X connect 230 0 231 0;
#X connect 230 0 235 1;
#X connect 232 0 224 0;
#X connect 233 0 218 0;
#X connect 234 0 223 0;
#X connect 235 0 227 0;
#X connect 236 0 210 0;
#X connect 237 0 217 0;
#X connect 239 0 209 0;
#X connect 241 0 250 1;
#X connect 241 0 251 0;
#X connect 242 0 248 0;
#X connect 243 0 258 0;
#X connect 243 0 267 0;
#X connect 245 0 243 0;
#X connect 245 0 254 0;
#X connect 245 0 268 0;
#X connect 246 0 244 0;
#X connect 246 0 245 0;
#X connect 247 0 269 0;
#X connect 248 0 360 0;
#X connect 249 0 246 0;
#X connect 250 0 252 0;
#X connect 251 0 261 0;
#X connect 251 0 262 0;
#X connect 252 0 249 1;
#X connect 254 0 242 1;
#X connect 255 0 248 1;
#X connect 256 0 254 2;
#X connect 257 0 254 1;
#X connect 258 0 264 0;
#X connect 259 0 257 0;
#X connect 260 0 258 1;
#X connect 261 0 260 0;
#X connect 262 0 263 0;
#X connect 262 0 267 1;
#X connect 264 0 256 0;
#X connect 265 0 250 0;
#X connect 266 0 255 0;
#X connect 267 0 259 0;
#X connect 268 0 242 0;
#X connect 269 0 249 0;
#X connect 271 0 241 0;
#X connect 273 0 282 1;
#X connect 273 0 283 0;
#X connect 274 0 280 0;
#X connect 275 0 290 0;
#X connect 275 0 299 0;
#X connect 277 0 275 0;
#X connect 277 0 286 0;
#X connect 277 0 300 0;
#X connect 278 0 276 0;
#X connect 278 0 277 0;
#X connect 279 0 301 0;
#X connect 280 0 359 0;
#X connect 281 0 278 0;
#X connect 282 0 284 0;
#X connect 283 0 293 0;
#X connect 283 0 294 0;
#X connect 284 0 281 1;
#X connect 286 0 274 1;
#X connect 287 0 280 1;
#X connect 288 0 286 2;
#X connect 289 0 286 1;
#X connect 290 0 296 0;
#X connect 291 0 289 0;
#X connect 292 0 290 1;
#X connect 293 0 292 0;
#X connect 294 0 295 0;
#X connect 294 0 299 1;
#X connect 296 0 288 0;
#X connect 297 0 282 0;
#X connect 298 0 287 0;
#X connect 299 0 291 0;
#X connect 300 0 274 0;
#X connect 301 0 281 0;
#X connect 303 0 273 0;
#X connect 305 0 314 1;
#X connect 305 0 315 0;
#X connect 306 0 312 0;
#X connect 307 0 322 0;
#X connect 307 0 331 0;
#X connect 309 0 307 0;
#X connect 309 0 318 0;
#X connect 309 0 332 0;
#X connect 310 0 308 0;
#X connect 310 0 309 0;
#X connect 311 0 333 0;
#X connect 312 0 358 0;
#X connect 313 0 310 0;
#X connect 314 0 316 0;
#X connect 315 0 325 0;
#X connect 315 0 326 0;
#X connect 316 0 313 1;
#X connect 318 0 306 1;
#X connect 319 0 312 1;
#X connect 320 0 318 2;
#X connect 321 0 318 1;
#X connect 322 0 328 0;
#X connect 323 0 321 0;
#X connect 324 0 322 1;
#X connect 325 0 324 0;
#X connect 326 0 327 0;
#X connect 326 0 331 1;
#X connect 328 0 320 0;
#X connect 329 0 314 0;
#X connect 330 0 319 0;
#X connect 331 0 323 0;
#X connect 332 0 306 0;
#X connect 333 0 313 0;
#X connect 335 0 305 0;
#X connect 336 0 70 0;
#X connect 336 0 78 0;
#X connect 337 0 95 0;
#X connect 337 0 110 0;
#X connect 338 0 79 0;
#X connect 339 0 111 0;
#X connect 340 0 127 0;
#X connect 340 0 142 0;
#X connect 341 0 143 0;
#X connect 342 0 159 0;
#X connect 342 0 174 0;
#X connect 343 0 175 0;
#X connect 344 0 319 0;
#X connect 344 0 334 0;
#X connect 345 0 335 0;
#X connect 346 0 303 0;
#X connect 347 0 287 0;
#X connect 347 0 302 0;
#X connect 348 0 255 0;
#X connect 348 0 270 0;
#X connect 349 0 271 0;
#X connect 350 0 223 0;
#X connect 350 0 238 0;
#X connect 351 0 239 0;
#X connect 352 0 191 0;
#X connect 352 0 206 0;
#X connect 353 0 207 0;
#X connect 374 0 373 0;
#X connect 375 0 363 0;
#X connect 376 0 364 0;
#X connect 377 0 365 0;
#X connect 378 0 366 0;
#X connect 379 0 367 0;
#X connect 380 0 368 0;
#X connect 381 0 369 0;
#X connect 382 0 370 0;
#X connect 383 0 371 0;
#X connect 395 0 63 0;
#X connect 395 0 75 0;
#X connect 405 0 14 0;
#X restore 130 192 pd lead_voice;
#X obj 701 115 s tick;
#N canvas 128 128 450 300 pad 0;
#X obj 58 13 inlet;
#X obj 57 253 outlet~;
#X obj 58 205 *~;
#X obj 163 64 bng 15 250 50 0 empty empty empty 17 7 0 10 #fcfcfc #000000 #000000;
#X obj 58 181 osc~ 1000;
#X floatatom 112 46 5 0 0 0 - - - 0;
#X obj 58 45 mtof;
#N canvas 0 50 547 401 envelope 0;
#X obj 222 18 inlet;
#X obj 222 60 bng 15 250 50 0 empty empty empty 17 7 0 10 #fcfcfc #000000 #000000;
#X obj 246 172 vline~;
#X obj 246 198 pow~ 2;
#X floatatom 279 62 5 0 0 0 - - - 0;
#X floatatom 332 62 5 0 0 0 - - - 0;
#X obj 246 93 pack b f f;
#X msg 246 126 1 \$2 \, 0 \$3 \$2;
#X obj 279 18 inlet;
#X obj 332 18 inlet;
#X obj 245 234 outlet~;
#X connect 0 0 1 0;
#X connect 1 0 6 0;
#X connect 2 0 3 0;
#X connect 3 0 10 0;
#X connect 4 0 6 1;
#X connect 5 0 6 2;
#X connect 6 0 7 0;
#X connect 7 0 2 0;
#X connect 8 0 4 0;
#X connect 9 0 5 0;
#X restore 102 123 pd envelope;
#X f 13;
#X msg 146 93 500;
#X obj 220 55 loadbang;
#X msg 190 93 1000;
#X connect 0 0 6 0;
#X connect 2 0 1 0;
#X connect 4 0 2 0;
#X connect 6 0 4 0;
#X connect 6 0 3 0;
#X connect 6 0 7 0;
#X connect 7 0 2 1;
#X connect 8 0 7 1;
#X connect 9 0 8 0;
#X connect 9 0 10 0;
#X connect 10 0 7 2;
#X restore 244 640 pd pad;
#X obj 103 640 clone pad.cl 64;
#X msg 102 565 next \$1;
#X text 604 427 lead chance 1-10;
#N canvas 880 257 450 388 lead 0;
#X obj 52 270 *~;
#X obj 167 129 bng 15 250 50 0 empty empty empty 17 7 0 10 #fcfcfc #000000 #000000;
#X obj 52 110 mtof;
#N canvas 224 224 547 401 envelope 0;
#X obj 222 18 inlet;
#X obj 222 60 bng 15 250 50 0 empty empty empty 17 7 0 10 #fcfcfc #000000 #000000;
#X obj 246 172 vline~;
#X obj 246 198 pow~ 2;
#X floatatom 279 62 5 0 0 0 - - - 0;
#X floatatom 332 62 5 0 0 0 - - - 0;
#X obj 246 93 pack b f f;
#X msg 246 126 1 \$2 \, 0 \$3 \$2;
#X obj 279 18 inlet;
#X obj 332 18 inlet;
#X obj 245 234 outlet~;
#X connect 0 0 1 0;
#X connect 1 0 6 0;
#X connect 2 0 3 0;
#X connect 3 0 10 0;
#X connect 4 0 6 1;
#X connect 5 0 6 2;
#X connect 6 0 7 0;
#X connect 7 0 2 0;
#X connect 8 0 4 0;
#X connect 9 0 5 0;
#X restore 96 188 pd envelope;
#X f 13;
#X floatatom 298 157 5 0 0 0 - - - 0;
#X floatatom 208 157 5 0 0 0 - - - 0;
#X obj 298 108 random 5000;
#X obj 208 134 + 10;
#X obj 298 134 + 500;
#X obj 167 238 loadbang;
#X obj 208 108 random 50;
#X obj 52 246 phasor~ 1000;
#X obj 52 17 inlet;
#X obj 52 294 outlet~;
#X obj 242 21 inlet;
#X floatatom 298 76 5 0 0 0 - - - 0;
#X obj 298 52 * 1000;
#X obj 208 52 * 100;
#X floatatom 208 76 5 0 0 0 - - - 0;
#X connect 0 0 13 0;
#X connect 1 0 6 0;
#X connect 1 0 10 0;
#X connect 2 0 1 0;
#X connect 2 0 3 0;
#X connect 2 0 11 0;
#X connect 3 0 0 1;
#X connect 4 0 3 2;
#X connect 5 0 3 1;
#X connect 6 0 8 0;
#X connect 7 0 5 0;
#X connect 8 0 4 0;
#X connect 10 0 7 0;
#X connect 11 0 0 0;
#X connect 12 0 2 0;
#X connect 14 0 17 0;
#X connect 14 0 16 0;
#X connect 15 0 6 0;
#X connect 16 0 15 0;
#X connect 17 0 18 0;
#X connect 18 0 10 0;
#X restore 571 643 pd lead;
#X obj 441 643 clone lead.cl 64;
#X msg 441 572 next \$1;
#N canvas 96 96 450 300 bass 0;
#X obj 99 236 *~;
#X obj 99 212 osc~ 1000;
#X obj 99 102 mtof;
#N canvas 0 50 547 401 envelope 0;
#X obj 222 18 inlet;
#X obj 222 60 bng 15 250 50 0 empty empty empty 17 7 0 10 #fcfcfc #000000 #000000;
#X obj 246 172 vline~;
#X obj 246 198 pow~ 2;
#X floatatom 279 62 5 0 0 0 - - - 0;
#X floatatom 332 62 5 0 0 0 - - - 0;
#X obj 246 93 pack b f f;
#X msg 246 126 1 \$2 \, 0 \$3 \$2;
#X obj 279 18 inlet;
#X obj 332 18 inlet;
#X obj 245 234 outlet~;
#X connect 0 0 1 0;
#X connect 1 0 6 0;
#X connect 2 0 3 0;
#X connect 3 0 10 0;
#X connect 4 0 6 1;
#X connect 5 0 6 2;
#X connect 6 0 7 0;
#X connect 7 0 2 0;
#X connect 8 0 4 0;
#X connect 9 0 5 0;
#X restore 132 180 pd envelope;
#X f 13;
#X floatatom 220 148 5 0 0 0 - - - 0;
#X msg 176 147 10;
#X obj 220 99 random 3000;
#X obj 143 121 bng 15 250 50 0 empty empty empty 17 7 0 10 #fcfcfc #000000 #000000;
#X obj 220 125 + 1000;
#X obj 66 128 loadbang;
#X obj 99 28 inlet;
#X obj 99 260 outlet~;
#X connect 0 0 11 0;
#X connect 1 0 0 0;
#X connect 2 0 1 0;
#X connect 2 0 3 0;
#X connect 2 0 7 0;
#X connect 3 0 0 1;
#X connect 4 0 3 2;
#X connect 5 0 3 1;
#X connect 6 0 8 0;
#X connect 7 0 6 0;
#X connect 8 0 4 0;
#X connect 9 0 5 0;
#X connect 10 0 2 0;
#X restore 1067 654 pd bass;
#X msg 926 575 next \$1;
#X obj 926 653 clone bass.cl 64;
#X obj 134 276 hsl 162 19 0 700 0 0 empty empty empty -2 -10 0 12 #fcfcfc #000000 #000000 0 1;
#X obj 356 173 vsl 19 162 0 700 0 0 empty empty empty 0 -9 0 12 #fcfcfc #000000 #000000 0 1;
#X msg 652 581 65;
#X obj 506 692 catch~ voice1;
#X obj 926 551 - 24;
#X text 237 73 speed;
#X text 243 102 confidence;
#N canvas 191 -13 1920 976 play_human 1;
#X floatatom 1654 883 5 0 0 0 - - - 0;
#X floatatom 1696 844 5 0 0 0 - - - 0;
#X floatatom 1737 876 5 0 0 0 - - - 0;
#X floatatom 1779 928 5 0 0 0 - - - 0;
#X obj 1613 851 bng 15 250 50 0 empty empty empty 17 7 0 10 #fcfcfc #000000 #000000;
#X text 1540 851 /endpoint;
#X text 1580 884 person_id;
#X floatatom 1820 847 5 0 0 0 - - - 0;
#X text 1722 875 x;
#X text 1661 845 area;
#X text 1764 927 y;
#X obj 1613 813 unpack s f f f f f f, f 36;
#X floatatom 1862 876 5 0 0 0 - - - 0;
#X text 1777 847 speed;
#X text 1783 876 confidence;
#X obj 1613 780 inlet;
#X obj 62 10 r h1;
#X obj 243 10 r h2;
#X obj 422 10 r h3;
#X obj 603 10 r h4;
#X obj 782 10 r h5;
#X obj 963 10 r h6;
#X obj 1142 10 r h7;
#X obj 1323 10 r h8;
#X obj 1502 10 r h9;
#X obj 1683 10 r h10;
#X text 14 446 pitch;
#X obj 224 402 hsl 64 15 0 10 0 0 empty empty empty -2 -8 0 10 #fcfcfc #000000 #000000 0 1;
#X obj 60 501 array get \$0-sus-scale;
#X obj 60 418 bng 15 250 50 0 empty empty empty 17 7 0 10 #fcfcfc #000000 #000000;
#X obj 60 901 *~ 0.5;
#X obj 60 473 spigot;
#X obj 142 417 -;
#X floatatom 221 422 5 0 0 0 - - - 0;
#X obj 142 452 >= 0;
#X obj 31 834 vsl 15 64 0 0.5 0 0 empty empty empty 0 -9 0 10 #fcfcfc #000000 #000000 0 1;
#N canvas 64 64 867 745 pluginEffectChain 1;
#X obj 168 220 vstplugin~;
#X obj 636 145 *~;
#X msg 305 151 open -e ValhallaSupermassive.vst3;
#X obj 723 23 bng 15 250 50 0 empty empty empty 17 7 0 10 #fcfcfc #000000 #000000;
#X obj 305 127 loadbang;
#X msg 25 91 param_set 0 \$1;
#X obj 28 25 hsl 128 15 0 1 0 0 empty empty empty -2 -8 0 10 #fcfcfc #000000 #000000 0 1;
#X msg 723 43 1 1000;
#X obj 812 47 del 1000;
#X obj 636 121 osc~ 1000;
#X obj 636 169 *~ 0.2;
#X obj 723 114 vline~;
#X obj 812 71 0 1000;
#X text 14 220 ValhallaSupermassive;
#X obj 168 272 vstplugin~;
#X msg 320 177 open -e LABS.vst3;
#X obj 728 186 vsl 15 64 0 0.2 0 0 empty empty empty 0 -9 0 10 #fcfcfc #000000 #000000 0 1;
#X msg 351 205 open -e RC-20_Retro_Color.vst3;
#X obj 169 31 inlet~;
#X obj 167 353 outlet~;
#X obj 240 354 outlet~;
#X obj 303 96 bng 15 250 50 0 empty empty empty 17 7 0 10 #fcfcfc #000000 #000000;
#X obj 306 28 inlet;
#X obj 450 28 inlet;
#X text 176 10 sound;
#X text 230 6 dry/wet Effect 1;
#X text 372 6 dry/wet Effect 2;
#X floatatom 306 54 5 0 0 0 - - - 0;
#X floatatom 450 54 5 0 0 0 - - - 0;
#X msg 24 137 param_set 0 \$1;
#X obj 415 259 vsl 15 64 0 1 0 0 empty empty empty 0 -9 0 10 #fcfcfc #000000 #000000 0 1;
#X msg 415 337 param_set 6 \$1;
#X text 528 338 feedback;
#X msg 415 365 param_set 7 \$1;
#X text 528 366 density;
#X msg 415 393 param_set 8 \$1;
#X text 528 394 width;
#X msg 415 421 param_set 9 \$1;
#X text 528 422 EQ Low;
#X msg 415 448 param_set 10 \$1;
#X text 528 449 EQ High;
#X msg 415 475 param_set 11 \$1;
#X text 528 476 MOD Rate;
#X msg 415 503 param_set 12 \$1;
#X text 528 504 MOD Depth;
#X text 41 607 ValhallaSupermassive Preset: - ECHOES/Guitar/Palm Mute (LEAD), f 62;
#X text 77 648 RC-20_Retro_Color Preset: - Lush & Crunch Guitar 2 (LEAD) Hotline Phase;
#X connect 0 0 14 0;
#X connect 0 1 14 1;
#X connect 1 0 10 0;
#X connect 2 0 14 0;
#X connect 3 0 7 0;
#X connect 3 0 8 0;
#X connect 4 0 2 0;
#X connect 4 0 15 0;
#X connect 4 0 17 0;
#X connect 5 0 0 0;
#X connect 6 0 5 0;
#X connect 7 0 11 0;
#X connect 8 0 12 0;
#X connect 9 0 1 0;
#X connect 11 0 1 1;
#X connect 12 0 11 0;
#X connect 14 0 19 0;
#X connect 14 1 20 0;
#X connect 16 0 10 1;
#X connect 17 0 0 0;
#X connect 18 0 0 0;
#X connect 18 0 0 1;
#X connect 21 0 2 0;
#X connect 21 0 15 0;
#X connect 21 0 17 0;
#X connect 22 0 27 0;
#X connect 23 0 28 0;
#X connect 27 0 5 0;
#X connect 28 0 29 0;
#X connect 29 0 14 0;
#X connect 30 0 31 0;
#X connect 30 0 33 0;
#X connect 30 0 35 0;
#X connect 30 0 37 0;
#X connect 30 0 39 0;
#X connect 30 0 41 0;
#X connect 30 0 43 0;
#X connect 31 0 14 0;
#X connect 33 0 14 0;
#X connect 35 0 14 0;
#X connect 37 0 14 0;
#X connect 39 0 14 0;
#X connect 41 0 14 0;
#X connect 43 0 14 0;
#X restore 639 790 pd pluginEffectChain;
#X obj 707 708 vsl 15 64 0 1 0 0 empty empty empty 0 -9 0 10 #fcfcfc #000000 #000000 0 1;
#X obj 776 708 vsl 15 64 0 1 0 0 empty empty empty 0 -9 0 10 #fcfcfc #000000 #000000 0 1;
#X obj 707 683 tgl 15 0 empty empty empty 17 7 0 10 #fcfcfc #000000 #000000 0 1;
#X obj 776 682 tgl 15 0 empty empty empty 17 7 0 10 #fcfcfc #000000 #000000 0 1;
#X obj 638 837 throw~ left;
#X obj 776 837 throw~ right;
#X obj 142 386 random 10;
#X obj 31 622 tgl 15 0 empty empty empty 17 7 0 10 #fcfcfc #000000 #000000 0 1;
#X obj 60 445 random 12;
#X text 223 380 lead chance 1-10;
#N canvas 880 257 450 388 lead 0;
#X obj 52 270 *~;
#X obj 167 129 bng 15 250 50 0 empty empty empty 17 7 0 10 #fcfcfc #000000 #000000;
#X obj 52 110 mtof;
#N canvas 224 224 547 401 envelope 0;
#X obj 222 18 inlet;
#X obj 222 60 bng 15 250 50 0 empty empty empty 17 7 0 10 #fcfcfc #000000 #000000;
#X obj 246 172 vline~;
#X obj 246 198 pow~ 2;
#X floatatom 279 62 5 0 0 0 - - - 0;
#X floatatom 332 62 5 0 0 0 - - - 0;
#X obj 246 93 pack b f f;
#X msg 246 126 1 \$2 \, 0 \$3 \$2;
#X obj 279 18 inlet;
#X obj 332 18 inlet;
#X obj 245 234 outlet~;
#X connect 0 0 1 0;
#X connect 1 0 6 0;
#X connect 2 0 3 0;
#X connect 3 0 10 0;
#X connect 4 0 6 1;
#X connect 5 0 6 2;
#X connect 6 0 7 0;
#X connect 7 0 2 0;
#X connect 8 0 4 0;
#X connect 9 0 5 0;
#X restore 96 188 pd envelope;
#X f 13;
#X floatatom 298 157 5 0 0 0 - - - 0;
#X floatatom 208 157 5 0 0 0 - - - 0;
#X obj 298 108 random 5000;
#X obj 208 134 + 10;
#X obj 298 134 + 500;
#X obj 167 238 loadbang;
#X obj 208 108 random 50;
#X obj 52 246 phasor~ 1000;
#X obj 52 17 inlet;
#X obj 52 294 outlet~;
#X obj 242 21 inlet;
#X floatatom 298 76 5 0 0 0 - - - 0;
#X obj 298 52 * 1000;
#X obj 208 52 * 100;
#X floatatom 208 76 5 0 0 0 - - - 0;
#X connect 0 0 13 0;
#X connect 1 0 6 0;
#X connect 1 0 10 0;
#X connect 2 0 1 0;
#X connect 2 0 3 0;
#X connect 2 0 11 0;
#X connect 3 0 0 1;
#X connect 4 0 3 2;
#X connect 5 0 3 1;
#X connect 6 0 8 0;
#X connect 7 0 5 0;
#X connect 8 0 4 0;
#X connect 10 0 7 0;
#X connect 11 0 0 0;
#X connect 12 0 2 0;
#X connect 14 0 17 0;
#X connect 14 0 16 0;
#X connect 15 0 6 0;
#X connect 16 0 15 0;
#X connect 17 0 18 0;
#X connect 18 0 10 0;
#X restore 190 596 pd lead;
#X msg 60 525 next \$1;
#X floatatom 77 560 5 0 0 0 - - - 0;
#X floatatom 204 476 5 0 0 0 - - - 0;
#X obj 98 357 r tick;
#X floatatom 62 61 5 0 0 0 - - - 0;
#X floatatom 89 91 5 0 0 0 - - - 0;
#X floatatom 116 117 5 0 0 0 - - - 0;
#X floatatom 143 64 5 0 0 0 - - - 0;
#X obj 62 34 unpack f f f f f;
#X floatatom 171 92 5 0 0 0 - - - 0;
#X obj 62 128 bng 19 250 50 0 empty empty empty 0 -10 0 12 #fcfcfc #000000 #000000;
#X obj 62 152 del 1000;
#X obj 62 176 bng 19 250 50 0 empty empty empty 0 -10 0 12 #fcfcfc #000000 #000000;
#X obj 62 237 tgl 19 0 empty empty empty 0 -10 0 12 #fcfcfc #000000 #000000 0 1;
#X obj 62 261 == 0;
#X obj 97 188 spigot;
#X floatatom 243 61 5 0 0 0 - - - 0;
#X floatatom 270 91 5 0 0 0 - - - 0;
#X floatatom 297 117 5 0 0 0 - - - 0;
#X floatatom 324 64 5 0 0 0 - - - 0;
#X floatatom 352 92 5 0 0 0 - - - 0;
#X obj 243 128 bng 19 250 50 0 empty empty empty 0 -10 0 12 #fcfcfc #000000 #000000;
#X obj 243 152 del 1000;
#X obj 243 176 bng 19 250 50 0 empty empty empty 0 -10 0 12 #fcfcfc #000000 #000000;
#X obj 243 237 tgl 19 0 empty empty empty 0 -10 0 12 #fcfcfc #000000 #000000 0 1;
#X obj 243 261 == 0;
#X obj 278 188 spigot;
#X obj 243 34 unpack f f f f f;
#X floatatom 423 61 5 0 0 0 - - - 0;
#X floatatom 450 91 5 0 0 0 - - - 0;
#X floatatom 477 117 5 0 0 0 - - - 0;
#X floatatom 504 64 5 0 0 0 - - - 0;
#X floatatom 532 92 5 0 0 0 - - - 0;
#X obj 423 128 bng 19 250 50 0 empty empty empty 0 -10 0 12 #fcfcfc #000000 #000000;
#X obj 423 152 del 1000;
#X obj 423 176 bng 19 250 50 0 empty empty empty 0 -10 0 12 #fcfcfc #000000 #000000;
#X obj 423 237 tgl 19 0 empty empty empty 0 -10 0 12 #fcfcfc #000000 #000000 0 1;
#X obj 423 261 == 0;
#X obj 458 188 spigot;
#X floatatom 603 61 5 0 0 0 - - - 0;
#X floatatom 630 91 5 0 0 0 - - - 0;
#X floatatom 657 117 5 0 0 0 - - - 0;
#X floatatom 684 64 5 0 0 0 - - - 0;
#X floatatom 712 92 5 0 0 0 - - - 0;
#X obj 603 128 bng 19 250 50 0 empty empty empty 0 -10 0 12 #fcfcfc #000000 #000000;
#X obj 603 152 del 1000;
#X obj 603 176 bng 19 250 50 0 empty empty empty 0 -10 0 12 #fcfcfc #000000 #000000;
#X obj 603 237 tgl 19 0 empty empty empty 0 -10 0 12 #fcfcfc #000000 #000000 0 1;
#X obj 603 261 == 0;
#X obj 638 188 spigot;
#X floatatom 782 61 5 0 0 0 - - - 0;
#X floatatom 809 91 5 0 0 0 - - - 0;
#X floatatom 836 117 5 0 0 0 - - - 0;
#X floatatom 863 64 5 0 0 0 - - - 0;
#X floatatom 891 92 5 0 0 0 - - - 0;
#X obj 782 128 bng 19 250 50 0 empty empty empty 0 -10 0 12 #fcfcfc #000000 #000000;
#X obj 782 152 del 1000;
#X obj 782 176 bng 19 250 50 0 empty empty empty 0 -10 0 12 #fcfcfc #000000 #000000;
#X obj 782 237 tgl 19 0 empty empty empty 0 -10 0 12 #fcfcfc #000000 #000000 0 1;
#X obj 782 261 == 0;
#X obj 817 188 spigot;
#X floatatom 963 61 5 0 0 0 - - - 0;
#X floatatom 990 91 5 0 0 0 - - - 0;
#X floatatom 1017 117 5 0 0 0 - - - 0;
#X floatatom 1044 64 5 0 0 0 - - - 0;
#X floatatom 1072 92 5 0 0 0 - - - 0;
#X obj 963 128 bng 19 250 50 0 empty empty empty 0 -10 0 12 #fcfcfc #000000 #000000;
#X obj 963 152 del 1000;
#X obj 963 176 bng 19 250 50 0 empty empty empty 0 -10 0 12 #fcfcfc #000000 #000000;
#X obj 963 237 tgl 19 0 empty empty empty 0 -10 0 12 #fcfcfc #000000 #000000 0 1;
#X obj 963 261 == 0;
#X obj 998 188 spigot;
#X floatatom 1142 61 5 0 0 0 - - - 0;
#X floatatom 1169 91 5 0 0 0 - - - 0;
#X floatatom 1196 117 5 0 0 0 - - - 0;
#X floatatom 1223 64 5 0 0 0 - - - 0;
#X floatatom 1251 92 5 0 0 0 - - - 0;
#X obj 1142 128 bng 19 250 50 0 empty empty empty 0 -10 0 12 #fcfcfc #000000 #000000;
#X obj 1142 152 del 1000;
#X obj 1142 176 bng 19 250 50 0 empty empty empty 0 -10 0 12 #fcfcfc #000000 #000000;
#X obj 1142 237 tgl 19 0 empty empty empty 0 -10 0 12 #fcfcfc #000000 #000000 0 1;
#X obj 1142 261 == 0;
#X obj 1177 188 spigot;
#X floatatom 1323 61 5 0 0 0 - - - 0;
#X floatatom 1350 91 5 0 0 0 - - - 0;
#X floatatom 1377 117 5 0 0 0 - - - 0;
#X floatatom 1404 64 5 0 0 0 - - - 0;
#X floatatom 1432 92 5 0 0 0 - - - 0;
#X obj 1323 128 bng 19 250 50 0 empty empty empty 0 -10 0 12 #fcfcfc #000000 #000000;
#X obj 1323 152 del 1000;
#X obj 1323 176 bng 19 250 50 0 empty empty empty 0 -10 0 12 #fcfcfc #000000 #000000;
#X obj 1323 237 tgl 19 0 empty empty empty 0 -10 0 12 #fcfcfc #000000 #000000 0 1;
#X obj 1323 261 == 0;
#X obj 1358 188 spigot;
#X floatatom 1502 61 5 0 0 0 - - - 0;
#X floatatom 1529 91 5 0 0 0 - - - 0;
#X floatatom 1556 117 5 0 0 0 - - - 0;
#X floatatom 1583 64 5 0 0 0 - - - 0;
#X floatatom 1611 92 5 0 0 0 - - - 0;
#X obj 1502 128 bng 19 250 50 0 empty empty empty 0 -10 0 12 #fcfcfc #000000 #000000;
#X obj 1502 152 del 1000;
#X obj 1502 176 bng 19 250 50 0 empty empty empty 0 -10 0 12 #fcfcfc #000000 #000000;
#X obj 1502 237 tgl 19 0 empty empty empty 0 -10 0 12 #fcfcfc #000000 #000000 0 1;
#X obj 1502 261 == 0;
#X obj 1537 188 spigot;
#X floatatom 1683 61 5 0 0 0 - - - 0;
#X floatatom 1710 91 5 0 0 0 - - - 0;
#X floatatom 1737 117 5 0 0 0 - - - 0;
#X floatatom 1764 64 5 0 0 0 - - - 0;
#X floatatom 1792 92 5 0 0 0 - - - 0;
#X obj 1683 128 bng 19 250 50 0 empty empty empty 0 -10 0 12 #fcfcfc #000000 #000000;
#X obj 1683 152 del 1000;
#X obj 1683 176 bng 19 250 50 0 empty empty empty 0 -10 0 12 #fcfcfc #000000 #000000;
#X obj 1683 237 tgl 19 0 empty empty empty 0 -10 0 12 #fcfcfc #000000 #000000 0 1;
#X obj 1683 261 == 0;
#X obj 1718 188 spigot;
#X obj 422 34 unpack f f f f f;
#X obj 603 34 unpack f f f f f;
#X obj 782 34 unpack f f f f f;
#X obj 963 34 unpack f f f f f;
#X obj 1142 34 unpack f f f f f;
#X obj 1323 34 unpack f f f f f;
#X obj 1502 34 unpack f f f f f;
#X obj 1683 34 unpack f f f f f;
#X obj 31 692 sel 0;
#X obj 31 772 line 0 100;
#X obj 151 692 sel 1;
#X obj 151 772 line 0.5 100;
#X obj 31 642 t b f;
#X obj 31 666 bng 19 250 50 0 empty empty empty 0 -10 0 12 #fcfcfc #000000 #000000;
#X floatatom 126 652 4 0 0 0 - - - 0;
#X floatatom 36 803 5 0 0 0 - - - 0;
#X floatatom 151 796 5 0 0 0 - - - 0;
#X msg 151 733 0 \, 0.5 1000 10;
#X msg 31 734 0.5 \, 0 1000 10;
#X obj 181 670 bng 19 250 50 0 empty empty empty 0 -10 0 12 #fcfcfc #000000 #000000;
#X obj 240 669 bng 19 250 50 0 empty empty empty 0 -10 0 12 #fcfcfc #000000 #000000;
#X obj 60 596 clone lead.cl 3;
#X msg 162 563 1;
#X connect 11 0 4 0;
#X connect 11 1 0 0;
#X connect 11 2 1 0;
#X connect 11 3 2 0;
#X connect 11 4 3 0;
#X connect 11 5 7 0;
#X connect 11 6 12 0;
#X connect 15 0 11 0;
#X connect 16 0 56 0;
#X connect 17 0 75 0;
#X connect 18 0 164 0;
#X connect 19 0 165 0;
#X connect 20 0 166 0;
#X connect 21 0 167 0;
#X connect 22 0 168 0;
#X connect 23 0 169 0;
#X connect 24 0 170 0;
#X connect 25 0 171 0;
#X connect 27 0 32 1;
#X connect 27 0 33 0;
#X connect 28 0 48 0;
#X connect 29 0 45 0;
#X connect 30 0 36 0;
#X connect 31 0 28 0;
#X connect 32 0 34 0;
#X connect 34 0 31 1;
#X connect 35 0 30 1;
#X connect 36 0 41 0;
#X connect 36 1 42 0;
#X connect 37 0 36 1;
#X connect 38 0 36 2;
#X connect 39 0 37 0;
#X connect 40 0 38 0;
#X connect 43 0 32 0;
#X connect 44 0 176 0;
#X connect 45 0 31 0;
#X connect 45 0 50 0;
#X connect 48 0 49 0;
#X connect 48 0 185 0;
#X connect 51 0 43 0;
#X connect 51 0 29 0;
#X connect 56 0 52 0;
#X connect 56 0 58 0;
#X connect 56 1 53 0;
#X connect 56 2 54 0;
#X connect 56 3 55 0;
#X connect 56 4 57 0;
#X connect 58 0 59 0;
#X connect 58 0 63 0;
#X connect 59 0 60 0;
#X connect 60 0 61 0;
#X connect 61 0 62 0;
#X connect 61 0 44 0;
#X connect 62 0 63 1;
#X connect 63 0 61 0;
#X connect 64 0 69 0;
#X connect 69 0 70 0;
#X connect 69 0 74 0;
#X connect 70 0 71 0;
#X connect 71 0 72 0;
#X connect 72 0 73 0;
#X connect 73 0 74 1;
#X connect 74 0 72 0;
#X connect 75 0 64 0;
#X connect 75 1 65 0;
#X connect 75 2 66 0;
#X connect 75 3 67 0;
#X connect 75 4 68 0;
#X connect 76 0 81 0;
#X connect 81 0 82 0;
#X connect 81 0 86 0;
#X connect 82 0 83 0;
#X connect 83 0 84 0;
#X connect 84 0 85 0;
#X connect 85 0 86 1;
#X connect 86 0 84 0;
#X connect 87 0 92 0;
#X connect 92 0 93 0;
#X connect 92 0 97 0;
#X connect 93 0 94 0;
#X connect 94 0 95 0;
#X connect 95 0 96 0;
#X connect 96 0 97 1;
#X connect 97 0 95 0;
#X connect 98 0 103 0;
#X connect 103 0 104 0;
#X connect 103 0 108 0;
#X connect 104 0 105 0;
#X connect 105 0 106 0;
#X connect 106 0 107 0;
#X connect 107 0 108 1;
#X connect 108 0 106 0;
#X connect 109 0 114 0;
#X connect 114 0 115 0;
#X connect 114 0 119 0;
#X connect 115 0 116 0;
#X connect 116 0 117 0;
#X connect 117 0 118 0;
#X connect 118 0 119 1;
#X connect 119 0 117 0;
#X connect 120 0 125 0;
#X connect 125 0 126 0;
#X connect 125 0 130 0;
#X connect 126 0 127 0;
#X connect 127 0 128 0;
#X connect 128 0 129 0;
#X connect 129 0 130 1;
#X connect 130 0 128 0;
#X connect 131 0 136 0;
#X connect 136 0 137 0;
#X connect 136 0 141 0;
#X connect 137 0 138 0;
#X connect 138 0 139 0;
#X connect 139 0 140 0;
#X connect 140 0 141 1;
#X connect 141 0 139 0;
#X connect 142 0 147 0;
#X connect 147 0 148 0;
#X connect 147 0 152 0;
#X connect 148 0 149 0;
#X connect 149 0 150 0;
#X connect 150 0 151 0;
#X connect 151 0 152 1;
#X connect 152 0 150 0;
#X connect 153 0 158 0;
#X connect 158 0 159 0;
#X connect 158 0 163 0;
#X connect 159 0 160 0;
#X connect 160 0 161 0;
#X connect 161 0 162 0;
#X connect 162 0 163 1;
#X connect 163 0 161 0;
#X connect 164 0 76 0;
#X connect 164 1 77 0;
#X connect 164 2 78 0;
#X connect 164 3 79 0;
#X connect 164 4 80 0;
#X connect 165 0 87 0;
#X connect 165 1 88 0;
#X connect 165 2 89 0;
#X connect 165 3 90 0;
#X connect 165 4 91 0;
#X connect 166 0 98 0;
#X connect 166 1 99 0;
#X connect 166 2 100 0;
#X connect 166 3 101 0;
#X connect 166 4 102 0;
#X connect 167 0 109 0;
#X connect 167 1 110 0;
#X connect 167 2 111 0;
#X connect 167 3 112 0;
#X connect 167 4 113 0;
#X connect 168 0 120 0;
#X connect 168 1 121 0;
#X connect 168 2 122 0;
#X connect 168 3 123 0;
#X connect 168 4 124 0;
#X connect 169 0 131 0;
#X connect 169 1 132 0;
#X connect 169 2 133 0;
#X connect 169 3 134 0;
#X connect 169 4 135 0;
#X connect 170 0 142 0;
#X connect 170 1 143 0;
#X connect 170 2 144 0;
#X connect 170 3 145 0;
#X connect 170 4 146 0;
#X connect 171 0 153 0;
#X connect 171 1 154 0;
#X connect 171 2 155 0;
#X connect 171 3 156 0;
#X connect 171 4 157 0;
#X connect 172 0 182 0;
#X connect 172 0 183 0;
#X connect 173 0 35 0;
#X connect 173 0 179 0;
#X connect 174 0 181 0;
#X connect 174 0 184 0;
#X connect 175 0 180 0;
#X connect 175 0 35 0;
#X connect 176 0 177 0;
#X connect 176 1 178 0;
#X connect 176 1 174 0;
#X connect 176 1 172 0;
#X connect 181 0 175 0;
#X connect 182 0 173 0;
#X connect 185 0 30 0;
#X connect 186 0 185 1;
#X restore 427 40 pd play_human;
#X floatatom 458 607 5 0 0 0 - - - 0;
#X floatatom 585 523 5 0 0 0 - - - 0;
#X obj 820 69 metro 0.25 60 permin;
#X connect 2 0 181 0;
#X connect 3 0 182 0;
#X connect 7 0 188 0;
#X connect 9 0 71 1;
#X connect 9 0 75 0;
#X connect 10 0 144 0;
#X connect 10 1 145 0;
#X connect 11 0 57 1;
#X connect 13 0 54 0;
#X connect 14 0 39 0;
#X connect 14 0 191 0;
#X connect 15 0 191 0;
#X connect 16 0 15 0;
#X connect 17 0 18 0;
#X connect 17 0 19 0;
#X connect 17 0 72 0;
#X connect 18 0 17 1;
#X connect 19 0 20 0;
#X connect 20 0 21 0;
#X connect 21 0 80 0;
#X connect 22 0 23 0;
#X connect 22 1 24 0;
#X connect 22 2 25 0;
#X connect 22 3 26 0;
#X connect 22 4 27 0;
#X connect 22 5 28 0;
#X connect 22 6 29 0;
#X connect 22 7 30 0;
#X connect 22 8 31 0;
#X connect 22 9 32 0;
#X connect 22 10 33 0;
#X connect 22 11 34 0;
#X connect 22 12 35 0;
#X connect 22 13 36 0;
#X connect 22 14 37 0;
#X connect 22 15 38 0;
#X connect 39 0 17 0;
#X connect 40 0 41 0;
#X connect 41 0 58 0;
#X connect 42 0 159 0;
#X connect 44 0 42 0;
#X connect 46 0 61 0;
#X connect 47 0 129 0;
#X connect 48 0 46 0;
#X connect 49 0 47 0;
#X connect 50 0 63 0;
#X connect 51 0 163 0;
#X connect 52 0 50 0;
#X connect 53 0 51 0;
#X connect 55 0 173 0;
#X connect 56 0 105 0;
#X connect 57 0 10 0;
#X connect 58 0 60 0;
#X connect 59 0 61 1;
#X connect 60 0 44 0;
#X connect 61 0 62 0;
#X connect 62 0 49 0;
#X connect 63 0 64 0;
#X connect 64 0 53 0;
#X connect 65 0 58 1;
#X connect 66 0 63 1;
#X connect 67 0 10 1;
#X connect 68 0 10 2;
#X connect 70 0 55 0;
#X connect 71 0 82 0;
#X connect 73 0 67 0;
#X connect 74 0 68 0;
#X connect 76 0 78 1;
#X connect 76 0 79 0;
#X connect 77 0 78 0;
#X connect 78 0 81 0;
#X connect 80 0 22 0;
#X connect 81 0 80 1;
#X connect 82 0 70 1;
#X connect 83 0 150 0;
#X connect 83 1 151 0;
#X connect 84 0 83 1;
#X connect 85 0 83 2;
#X connect 86 0 84 0;
#X connect 87 0 85 0;
#X connect 89 0 98 1;
#X connect 89 0 101 0;
#X connect 90 0 148 0;
#X connect 90 1 149 0;
#X connect 91 0 94 1;
#X connect 92 0 103 0;
#X connect 92 0 106 0;
#X connect 93 0 107 0;
#X connect 94 0 118 0;
#X connect 95 0 90 1;
#X connect 96 0 90 2;
#X connect 97 0 92 0;
#X connect 98 0 102 0;
#X connect 99 0 95 0;
#X connect 100 0 96 0;
#X connect 102 0 97 1;
#X connect 103 0 185 0;
#X connect 105 0 70 0;
#X connect 107 0 97 0;
#X connect 111 0 43 0;
#X connect 112 0 43 1;
#X connect 113 0 112 1;
#X connect 113 0 111 1;
#X connect 114 0 113 0;
#X connect 115 0 129 1;
#X connect 116 0 115 0;
#X connect 117 0 156 0;
#X connect 117 0 73 0;
#X connect 117 0 74 0;
#X connect 118 0 90 0;
#X connect 119 0 118 1;
#X connect 121 0 126 1;
#X connect 121 0 127 0;
#X connect 122 0 177 0;
#X connect 123 0 166 0;
#X connect 123 0 154 0;
#X connect 124 0 137 0;
#X connect 125 0 122 0;
#X connect 126 0 128 0;
#X connect 128 0 125 1;
#X connect 129 0 130 0;
#X connect 130 0 83 0;
#X connect 131 0 124 1;
#X connect 136 0 71 0;
#X connect 137 0 146 0;
#X connect 137 1 147 0;
#X connect 138 0 137 1;
#X connect 139 0 137 2;
#X connect 140 0 138 0;
#X connect 141 0 139 0;
#X connect 142 0 119 0;
#X connect 142 0 157 0;
#X connect 142 0 99 0;
#X connect 142 0 100 0;
#X connect 143 0 98 0;
#X connect 152 0 111 0;
#X connect 153 0 112 0;
#X connect 154 0 126 0;
#X connect 155 0 131 0;
#X connect 156 0 11 0;
#X connect 157 0 91 0;
#X connect 158 0 159 1;
#X connect 159 0 160 0;
#X connect 160 0 83 0;
#X connect 161 0 158 0;
#X connect 162 0 163 1;
#X connect 163 0 164 0;
#X connect 164 0 83 0;
#X connect 165 0 162 0;
#X connect 166 0 125 0;
#X connect 166 0 190 0;
#X connect 167 0 4 0;
#X connect 167 1 0 0;
#X connect 167 2 1 0;
#X connect 167 3 2 0;
#X connect 167 4 3 0;
#X connect 167 5 132 0;
#X connect 167 6 168 0;
#X connect 172 0 57 0;
#X connect 173 0 172 0;
#X connect 176 0 124 0;
#X connect 177 0 176 0;
#X connect 177 0 189 0;
#X connect 178 0 94 0;
#X connect 183 0 178 0;
#X connect 183 0 176 0;
#X connect 184 0 124 0;
#X connect 185 0 104 0;
#X connect 185 0 178 0;
#X connect 185 0 179 0;
#X connect 191 0 17 0;
#X connect 191 0 77 0;
#X connect 191 0 105 0;
#X connect 191 0 107 0;
#X connect 191 0 136 0;
#X connect 191 0 143 0;
#X connect 191 0 170 0;
