#N canvas 1916 350 1920 976 12;
#X obj 73 11 OSC_server;
#X text 56 486 pitch;
#X obj 266 442 hsl 64 15 0 10 0 0 empty empty empty -2 -8 0 10 #fcfcfc #000000 #000000 0 1;
#N canvas 526 99 867 745 pluginEffectChain 0;
#X obj 168 220 vstplugin~;
#X obj 636 145 *~;
#X msg 305 151 open -e ValhallaSupermassive.vst3;
#X obj 723 23 bng 15 250 50 0 empty empty empty 17 7 0 10 #fcfcfc #000000 #000000;
#X obj 305 127 loadbang;
#X msg 25 91 param_set 0 \$1;
#X obj 28 25 hsl 128 15 0 1 0 0 empty empty empty -2 -8 0 10 #fcfcfc #000000 #000000 0 1;
#X msg 723 43 1 1000;
#X obj 812 47 del 1000;
#X obj 636 121 osc~ 1000;
#X obj 636 169 *~ 0.2;
#X obj 723 114 vline~;
#X obj 812 71 0 1000;
#X text 14 220 ValhallaSupermassive;
#X obj 168 272 vstplugin~;
#X msg 320 177 open -e LABS.vst3;
#X obj 728 186 vsl 15 64 0 0.2 0 0 empty empty empty 0 -9 0 10 #fcfcfc #000000 #000000 0 1;
#X msg 351 205 open -e RC-20_Retro_Color.vst3;
#X obj 169 31 inlet~;
#X obj 167 353 outlet~;
#X obj 240 354 outlet~;
#X obj 303 96 bng 15 250 50 0 empty empty empty 17 7 0 10 #fcfcfc #000000 #000000;
#X obj 306 28 inlet;
#X obj 450 28 inlet;
#X text 176 10 sound;
#X text 230 6 dry/wet Effect 1;
#X text 372 6 dry/wet Effect 2;
#X floatatom 306 54 5 0 0 0 - - - 0;
#X floatatom 450 54 5 0 0 0 - - - 0;
#X msg 24 137 param_set 0 \$1;
#X obj 415 259 vsl 15 64 0 1 0 0 empty empty empty 0 -9 0 10 #fcfcfc #000000 #000000 0 1;
#X msg 415 337 param_set 6 \$1;
#X text 528 338 feedback;
#X msg 415 365 param_set 7 \$1;
#X text 528 366 density;
#X msg 415 393 param_set 8 \$1;
#X text 528 394 width;
#X msg 415 421 param_set 9 \$1;
#X text 528 422 EQ Low;
#X msg 415 448 param_set 10 \$1;
#X text 528 449 EQ High;
#X msg 415 475 param_set 11 \$1;
#X text 528 476 MOD Rate;
#X msg 415 503 param_set 12 \$1;
#X text 528 504 MOD Depth;
#X text 20 654 RC-20_Retro_Color Preset: - Magnitude Transition 3 (PAD);
#X text 41 607 ValhallaSupermassive Preset: - SFX/Nebulae/Planetarium (PAD);
#X connect 0 0 14 0;
#X connect 0 1 14 1;
#X connect 1 0 10 0;
#X connect 2 0 14 0;
#X connect 3 0 7 0;
#X connect 3 0 8 0;
#X connect 4 0 2 0;
#X connect 4 0 15 0;
#X connect 4 0 17 0;
#X connect 5 0 0 0;
#X connect 6 0 5 0;
#X connect 7 0 11 0;
#X connect 8 0 12 0;
#X connect 9 0 1 0;
#X connect 11 0 1 1;
#X connect 12 0 11 0;
#X connect 14 0 19 0;
#X connect 14 1 20 0;
#X connect 16 0 10 1;
#X connect 17 0 0 0;
#X connect 18 0 0 0;
#X connect 18 0 0 1;
#X connect 21 0 2 0;
#X connect 21 0 15 0;
#X connect 21 0 17 0;
#X connect 22 0 27 0;
#X connect 23 0 28 0;
#X connect 27 0 5 0;
#X connect 28 0 29 0;
#X connect 29 0 14 0;
#X connect 30 0 31 0;
#X connect 30 0 33 0;
#X connect 30 0 35 0;
#X connect 30 0 37 0;
#X connect 30 0 39 0;
#X connect 30 0 41 0;
#X connect 30 0 43 0;
#X connect 31 0 14 0;
#X connect 33 0 14 0;
#X connect 35 0 14 0;
#X connect 37 0 14 0;
#X connect 39 0 14 0;
#X connect 41 0 14 0;
#X connect 43 0 14 0;
#X restore 102 874 pd pluginEffectChain;
#X obj 65 684 vsl 15 64 0 0.1 0 0 empty empty empty 0 -9 0 10 #fcfcfc #000000 #000000 0 1;
#N canvas 0 50 450 250 (subpatch) 0;
#X array \$0-sus-scale 18 float 3;
#A 0 60 62 64 65 67 69 71 72 74 76 77 79 81 83 84 91 93 94;
#X coords 0 127 18 0 200 127 1 0 0;
#X restore 1689 63 graph;
#X obj 820 24 tgl 30 0 empty empty empty 17 7 0 10 #ff0400 #000000 #000000 0 1;
#X msg 877 35 tempo \$1 permin;
#X floatatom 877 10 5 0 200 0 BPM - - 0;
#X obj 820 95 f;
#X obj 852 95 + 1;
#X obj 820 121 % 16;
#X floatatom 820 147 5 0 0 0 - - - 0;
#X obj 820 179 hradio 15 1 0 16 empty empty empty 0 -8 0 10 #fcfcfc #000000 #000000 0;
#X obj 820 229 sel 0 1 2 3 4 5 6 7 8 9 10 11 12 13 14 15, f 47;
#X obj 820 259 s one;
#X obj 841 285 s two;
#X obj 860 311 s three;
#X obj 881 337 s four;
#X obj 901 259 s five;
#X obj 922 285 s six;
#X obj 942 311 s seven;
#X obj 962 337 s eight;
#X obj 983 259 s nine;
#X obj 1004 285 s ten;
#X obj 1023 311 s eleven;
#X obj 1044 337 s twelve;
#X obj 1064 256 s thirteen;
#X obj 1085 282 s fourteen;
#X obj 1105 308 s fifteen;
#X obj 1125 334 s sixteen;
#X msg 785 68 0;
#X obj 1665 341 dac~;
#X obj 1509 54 array set \$0-sus-scale;
#X obj 102 541 array get \$0-sus-scale;
#X obj 102 458 bng 15 250 50 0 empty empty empty 17 7 0 10 #fcfcfc #000000 #000000;
#X obj 170 792 vsl 15 64 0 1 0 0 empty empty empty 0 -9 0 10 #fcfcfc #000000 #000000 0 1;
#X obj 239 792 vsl 15 64 0 1 0 0 empty empty empty 0 -9 0 10 #fcfcfc #000000 #000000 0 1;
#X text 924 10 70;
#X obj 102 513 spigot;
#X obj 184 457 -;
#X floatatom 878 124 5 0 0 0 - - - 0;
#X obj 170 767 tgl 15 0 empty empty empty 17 7 0 10 #fcfcfc #000000 #000000 0 1;
#X obj 239 766 tgl 15 0 empty empty empty 17 7 0 10 #fcfcfc #000000 #000000 0 1;
#X floatatom 263 462 5 0 0 0 - - - 0;
#X obj 1152 130 hsl 64 15 0 10 0 0 empty empty empty -2 -8 0 10 #fcfcfc #000000 #000000 0 1;
#X obj 1070 114 random 10;
#X obj 1070 145 -;
#X floatatom 1149 150 5 0 0 0 - - - 0;
#X obj 820 199 spigot;
#X obj 1070 180 >= 0;
#X obj 184 492 >= 0;
#X obj 102 485 random 18;
#X text 265 420 pad chance 1-10;
#X text 1148 108 drum chance 1-10;
#X obj 1635 310 *~;
#X obj 1721 309 *~;
#X obj 1814 242 vsl 15 64 0 1 0 0 empty empty empty 0 -9 0 10 #fcfcfc #000000 #000000 0 1;
#X obj 1814 216 tgl 15 0 empty empty empty 17 7 0 10 #fcfcfc #000000 #000000 0 1;
#X obj 65 596 loadbang;
#X obj 184 426 random 10;
#X obj 101 914 throw~ left;
#X obj 239 914 throw~ right;
#X obj 1635 270 catch~ left;
#X obj 1720 270 catch~ right;
#X obj 65 659 tgl 15 0 empty empty empty 17 7 0 10 #fcfcfc #000000 #000000 0 1;
#X obj 701 115 s tick;
#N canvas 128 128 450 300 pad 0;
#X obj 58 13 inlet;
#X obj 57 253 outlet~;
#X obj 58 205 *~;
#X obj 163 64 bng 15 250 50 0 empty empty empty 17 7 0 10 #fcfcfc #000000 #000000;
#X obj 58 181 osc~ 1000;
#X floatatom 112 46 5 0 0 0 - - - 0;
#X obj 58 45 mtof;
#N canvas 0 50 547 401 envelope 0;
#X obj 222 18 inlet;
#X obj 222 60 bng 15 250 50 0 empty empty empty 17 7 0 10 #fcfcfc #000000 #000000;
#X obj 246 172 vline~;
#X obj 246 198 pow~ 2;
#X floatatom 279 62 5 0 0 0 - - - 0;
#X floatatom 332 62 5 0 0 0 - - - 0;
#X obj 246 93 pack b f f;
#X msg 246 126 1 \$2 \, 0 \$3 \$2;
#X obj 279 18 inlet;
#X obj 332 18 inlet;
#X obj 245 234 outlet~;
#X connect 0 0 1 0;
#X connect 1 0 6 0;
#X connect 2 0 3 0;
#X connect 3 0 10 0;
#X connect 4 0 6 1;
#X connect 5 0 6 2;
#X connect 6 0 7 0;
#X connect 7 0 2 0;
#X connect 8 0 4 0;
#X connect 9 0 5 0;
#X restore 102 123 pd envelope;
#X f 13;
#X msg 146 93 500;
#X obj 220 55 loadbang;
#X msg 190 93 1000;
#X connect 0 0 6 0;
#X connect 2 0 1 0;
#X connect 4 0 2 0;
#X connect 6 0 4 0;
#X connect 6 0 3 0;
#X connect 6 0 7 0;
#X connect 7 0 2 1;
#X connect 8 0 7 1;
#X connect 9 0 8 0;
#X connect 9 0 10 0;
#X connect 10 0 7 2;
#X restore 244 640 pd pad;
#X obj 103 640 clone pad.cl 64;
#X msg 102 565 next \$1;
#N canvas 15 -28 1920 976 play_human 0;
#X floatatom 1644 1063 5 0 0 0 - - - 0;
#X floatatom 1686 1024 5 0 0 0 - - - 0;
#X floatatom 1727 1056 5 0 0 0 - - - 0;
#X floatatom 1769 1108 5 0 0 0 - - - 0;
#X obj 1603 1031 bng 15 250 50 0 empty empty empty 17 7 0 10 #fcfcfc #000000 #000000;
#X text 1530 1031 /endpoint;
#X text 1570 1064 person_id;
#X floatatom 1810 1027 5 0 0 0 - - - 0;
#X text 1712 1055 x;
#X text 1651 1025 area;
#X text 1754 1107 y;
#X obj 1603 993 unpack s f f f f f f, f 36;
#X floatatom 1852 1056 5 0 0 0 - - - 0;
#X text 1767 1027 speed;
#X text 1773 1056 confidence;
#X text 14 396 pitch;
#X obj 181 352 hsl 32 15 0 10 0 0 empty empty empty -2 -8 0 10 #fcfcfc #000000 #000000 0 1;
#X obj 100 360 bng 15 250 50 0 empty empty empty 17 7 0 10 #fcfcfc #000000 #000000;
#X obj 142 367 -;
#X floatatom 178 372 5 0 0 0 - - - 0;
#X obj 142 402 >= 0;
#X obj 31 834 vsl 15 64 0 0.5 0 0 empty empty empty 0 -9 0 10 #fcfcfc #000000 #000000 0 1;
#X obj 142 306 random 10;
#X obj 31 592 tgl 15 0 empty empty empty 17 7 0 10 #fcfcfc #000000 #000000 0 1;
#X msg 60 527 next \$1;
#X floatatom 77 540 5 0 0 0 - - - 0;
#X obj 142 279 r tick;
#X floatatom 62 61 5 0 0 0 - - - 0;
#X floatatom 89 91 5 0 0 0 - - - 0;
#X floatatom 116 117 5 0 0 0 - - - 0;
#X floatatom 143 64 5 0 0 0 - - - 0;
#X obj 62 34 unpack f f f f f;
#X floatatom 171 92 5 0 0 0 - - - 0;
#X obj 62 128 bng 19 250 50 0 empty empty empty 0 -10 0 12 #fcfcfc #000000 #000000;
#X obj 62 152 del 1000;
#X obj 62 176 bng 19 250 50 0 empty empty empty 0 -10 0 12 #fcfcfc #000000 #000000;
#X obj 62 237 tgl 19 0 empty empty empty 0 -10 0 12 #fcfcfc #000000 #000000 0 1;
#X obj 62 261 == 0;
#X obj 97 188 spigot;
#X floatatom 243 61 5 0 0 0 - - - 0;
#X floatatom 270 91 5 0 0 0 - - - 0;
#X floatatom 297 117 5 0 0 0 - - - 0;
#X floatatom 324 64 5 0 0 0 - - - 0;
#X floatatom 352 92 5 0 0 0 - - - 0;
#X obj 243 128 bng 19 250 50 0 empty empty empty 0 -10 0 12 #fcfcfc #000000 #000000;
#X obj 243 176 bng 19 250 50 0 empty empty empty 0 -10 0 12 #fcfcfc #000000 #000000;
#X obj 243 237 tgl 19 0 empty empty empty 0 -10 0 12 #fcfcfc #000000 #000000 0 1;
#X obj 243 261 == 0;
#X obj 278 188 spigot;
#X obj 243 34 unpack f f f f f;
#X floatatom 422 61 5 0 0 0 - - - 0;
#X floatatom 450 91 5 0 0 0 - - - 0;
#X floatatom 477 117 5 0 0 0 - - - 0;
#X floatatom 504 64 5 0 0 0 - - - 0;
#X floatatom 532 92 5 0 0 0 - - - 0;
#X obj 422 128 bng 19 250 50 0 empty empty empty 0 -10 0 12 #fcfcfc #000000 #000000;
#X obj 422 152 del 1000;
#X obj 422 176 bng 19 250 50 0 empty empty empty 0 -10 0 12 #fcfcfc #000000 #000000;
#X obj 422 237 tgl 19 0 empty empty empty 0 -10 0 12 #fcfcfc #000000 #000000 0 1;
#X obj 422 261 == 0;
#X obj 457 188 spigot;
#X floatatom 603 61 5 0 0 0 - - - 0;
#X floatatom 630 91 5 0 0 0 - - - 0;
#X floatatom 657 117 5 0 0 0 - - - 0;
#X floatatom 684 64 5 0 0 0 - - - 0;
#X floatatom 712 92 5 0 0 0 - - - 0;
#X obj 603 128 bng 19 250 50 0 empty empty empty 0 -10 0 12 #fcfcfc #000000 #000000;
#X obj 603 152 del 1000;
#X obj 603 176 bng 19 250 50 0 empty empty empty 0 -10 0 12 #fcfcfc #000000 #000000;
#X obj 603 237 tgl 19 0 empty empty empty 0 -10 0 12 #fcfcfc #000000 #000000 0 1;
#X obj 603 261 == 0;
#X obj 638 188 spigot;
#X floatatom 782 61 5 0 0 0 - - - 0;
#X floatatom 809 91 5 0 0 0 - - - 0;
#X floatatom 836 117 5 0 0 0 - - - 0;
#X floatatom 863 64 5 0 0 0 - - - 0;
#X floatatom 891 92 5 0 0 0 - - - 0;
#X obj 782 128 bng 19 250 50 0 empty empty empty 0 -10 0 12 #fcfcfc #000000 #000000;
#X obj 782 152 del 1000;
#X obj 782 176 bng 19 250 50 0 empty empty empty 0 -10 0 12 #fcfcfc #000000 #000000;
#X obj 782 237 tgl 19 0 empty empty empty 0 -10 0 12 #fcfcfc #000000 #000000 0 1;
#X obj 782 261 == 0;
#X obj 817 188 spigot;
#X floatatom 963 61 5 0 0 0 - - - 0;
#X floatatom 990 91 5 0 0 0 - - - 0;
#X floatatom 1017 117 5 0 0 0 - - - 0;
#X floatatom 1044 64 5 0 0 0 - - - 0;
#X floatatom 1072 92 5 0 0 0 - - - 0;
#X obj 963 128 bng 19 250 50 0 empty empty empty 0 -10 0 12 #fcfcfc #000000 #000000;
#X obj 963 152 del 1000;
#X obj 963 176 bng 19 250 50 0 empty empty empty 0 -10 0 12 #fcfcfc #000000 #000000;
#X obj 963 237 tgl 19 0 empty empty empty 0 -10 0 12 #fcfcfc #000000 #000000 0 1;
#X obj 963 261 == 0;
#X obj 998 188 spigot;
#X floatatom 1142 61 5 0 0 0 - - - 0;
#X floatatom 1169 91 5 0 0 0 - - - 0;
#X floatatom 1196 117 5 0 0 0 - - - 0;
#X floatatom 1223 64 5 0 0 0 - - - 0;
#X floatatom 1251 92 5 0 0 0 - - - 0;
#X obj 1142 128 bng 19 250 50 0 empty empty empty 0 -10 0 12 #fcfcfc #000000 #000000;
#X obj 1142 152 del 1000;
#X obj 1142 176 bng 19 250 50 0 empty empty empty 0 -10 0 12 #fcfcfc #000000 #000000;
#X obj 1142 237 tgl 19 0 empty empty empty 0 -10 0 12 #fcfcfc #000000 #000000 0 1;
#X obj 1142 261 == 0;
#X obj 1177 188 spigot;
#X floatatom 1323 61 5 0 0 0 - - - 0;
#X floatatom 1350 91 5 0 0 0 - - - 0;
#X floatatom 1377 117 5 0 0 0 - - - 0;
#X floatatom 1404 64 5 0 0 0 - - - 0;
#X floatatom 1432 92 5 0 0 0 - - - 0;
#X obj 1323 128 bng 19 250 50 0 empty empty empty 0 -10 0 12 #fcfcfc #000000 #000000;
#X obj 1323 152 del 1000;
#X obj 1323 176 bng 19 250 50 0 empty empty empty 0 -10 0 12 #fcfcfc #000000 #000000;
#X obj 1323 237 tgl 19 0 empty empty empty 0 -10 0 12 #fcfcfc #000000 #000000 0 1;
#X obj 1323 261 == 0;
#X obj 1358 188 spigot;
#X floatatom 1502 61 5 0 0 0 - - - 0;
#X floatatom 1529 91 5 0 0 0 - - - 0;
#X floatatom 1556 117 5 0 0 0 - - - 0;
#X floatatom 1583 64 5 0 0 0 - - - 0;
#X floatatom 1611 92 5 0 0 0 - - - 0;
#X obj 1502 128 bng 19 250 50 0 empty empty empty 0 -10 0 12 #fcfcfc #000000 #000000;
#X obj 1502 152 del 1000;
#X obj 1502 176 bng 19 250 50 0 empty empty empty 0 -10 0 12 #fcfcfc #000000 #000000;
#X obj 1502 237 tgl 19 0 empty empty empty 0 -10 0 12 #fcfcfc #000000 #000000 0 1;
#X obj 1502 261 == 0;
#X obj 1537 188 spigot;
#X floatatom 1683 61 5 0 0 0 - - - 0;
#X floatatom 1710 91 5 0 0 0 - - - 0;
#X floatatom 1737 117 5 0 0 0 - - - 0;
#X floatatom 1764 64 5 0 0 0 - - - 0;
#X floatatom 1792 92 5 0 0 0 - - - 0;
#X obj 1683 128 bng 19 250 50 0 empty empty empty 0 -10 0 12 #fcfcfc #000000 #000000;
#X obj 1683 152 del 1000;
#X obj 1683 176 bng 19 250 50 0 empty empty empty 0 -10 0 12 #fcfcfc #000000 #000000;
#X obj 1683 237 tgl 19 0 empty empty empty 0 -10 0 12 #fcfcfc #000000 #000000 0 1;
#X obj 1683 261 == 0;
#X obj 1718 188 spigot;
#X obj 422 34 unpack f f f f f;
#X obj 603 34 unpack f f f f f;
#X obj 782 34 unpack f f f f f;
#X obj 963 34 unpack f f f f f;
#X obj 1142 34 unpack f f f f f;
#X obj 1323 34 unpack f f f f f;
#X obj 1502 34 unpack f f f f f;
#X obj 1683 34 unpack f f f f f;
#X obj 31 662 sel 0;
#X obj 31 773 line 0 100;
#X obj 81 687 sel 1;
#X obj 31 612 t b f;
#X obj 31 636 bng 19 250 50 0 empty empty empty 0 -10 0 12 #fcfcfc #000000 #000000;
#X obj 79 663 bng 19 250 50 0 empty empty empty 0 -10 0 12 #fcfcfc #000000 #000000;
#X obj 129 687 bng 19 250 50 0 empty empty empty 0 -10 0 12 #fcfcfc #000000 #000000;
#X obj 60 395 random 18;
#X msg 134 442 3;
#X msg 179 443 5;
#X obj 54 439 spigot;
#X text 169 331 chance;
#X obj 72 314 f;
#X text 194 396 pitch;
#X msg 123 869 0;
#X obj 123 842 loadbang;
#X msg 133 774 stop;
#X msg 39 744 stop;
#X obj 792 937 outlet~;
#X obj 60 891 *~ 0.1;
#X obj 60 590 *~;
#X obj 166 152 / 1000;
#X obj 337 154 / 1000;
#X obj 538 352 hsl 32 15 0 10 0 0 empty empty empty -2 -8 0 10 #fcfcfc #000000 #000000 0 1;
#X obj 456 369 bng 15 250 50 0 empty empty empty 17 7 0 10 #fcfcfc #000000 #000000;
#X obj 499 367 -;
#X floatatom 535 372 5 0 0 0 - - - 0;
#X obj 499 402 >= 0;
#X obj 388 834 vsl 15 64 0 0.5 0 0 empty empty empty 0 -9 0 10 #fcfcfc #000000 #000000 0 1;
#X obj 499 306 random 10;
#X obj 388 592 tgl 15 0 empty empty empty 17 7 0 10 #fcfcfc #000000 #000000 0 1;
#X msg 417 515 next \$1;
#X floatatom 434 540 5 0 0 0 - - - 0;
#X obj 388 662 sel 0;
#X obj 388 773 line 0 100;
#X obj 438 687 sel 1;
#X obj 388 612 t b f;
#X obj 388 636 bng 19 250 50 0 empty empty empty 0 -10 0 12 #fcfcfc #000000 #000000;
#X obj 436 663 bng 19 250 50 0 empty empty empty 0 -10 0 12 #fcfcfc #000000 #000000;
#X obj 486 687 bng 19 250 50 0 empty empty empty 0 -10 0 12 #fcfcfc #000000 #000000;
#X obj 417 566 clone lead.cl 3;
#X msg 519 543 1;
#X obj 417 395 random 18;
#N canvas 64 64 1229 631 new_note 0;
#X floatatom 34 76 5 0 0 0 - - - 0;
#X floatatom 154 126 5 0 0 0 - - - 0;
#X floatatom 94 100 5 0 0 0 - - - 0;
#X floatatom 274 174 5 0 0 0 - - - 0;
#X floatatom 394 226 5 0 0 0 - - - 0;
#X floatatom 334 197 5 0 0 0 - - - 0;
#X floatatom 214 150 5 0 0 0 - - - 0;
#X floatatom 454 250 5 0 0 0 - - - 0;
#X obj 34 52 moses 100;
#X obj 94 76 moses 200;
#X obj 154 102 moses 300;
#X obj 214 126 moses 400;
#X obj 274 150 moses 500;
#X obj 334 173 moses 600;
#X obj 394 202 moses 700;
#X obj 454 226 moses 800;
#X floatatom 514 274 5 0 0 0 - - - 0;
#X floatatom 641 320 5 0 0 0 - - - 0;
#X floatatom 574 297 5 0 0 0 - - - 0;
#X floatatom 775 366 5 0 0 0 - - - 0;
#X floatatom 842 390 5 0 0 0 - - - 0;
#X floatatom 708 343 5 0 0 0 - - - 0;
#X obj 514 250 moses 900;
#X obj 574 273 moses 1000;
#X obj 641 296 moses 1100;
#X obj 708 319 moses 1200;
#X obj 775 342 moses 1300;
#X obj 842 366 moses 1400;
#X floatatom 909 390 5 0 0 0 - - - 0;
#X obj 394 273 random 3;
#X obj 394 249 bng 19 250 50 0 empty empty empty 0 -10 0 12 #fcfcfc #000000 #000000;
#X floatatom 394 321 5 0 0 0 - - - 0;
#X obj 34 124 random 3;
#X obj 34 100 bng 19 250 50 0 empty empty empty 0 -10 0 12 #fcfcfc #000000 #000000;
#X floatatom 34 148 5 0 0 0 - - - 0;
#X obj 94 148 random 3;
#X obj 94 124 bng 19 250 50 0 empty empty empty 0 -10 0 12 #fcfcfc #000000 #000000;
#X obj 94 172 + 1;
#X floatatom 94 196 5 0 0 0 - - - 0;
#X obj 154 172 random 3;
#X obj 154 148 bng 19 250 50 0 empty empty empty 0 -10 0 12 #fcfcfc #000000 #000000;
#X floatatom 154 220 5 0 0 0 - - - 0;
#X obj 214 196 random 3;
#X obj 214 172 bng 19 250 50 0 empty empty empty 0 -10 0 12 #fcfcfc #000000 #000000;
#X floatatom 214 244 5 0 0 0 - - - 0;
#X obj 274 220 random 3;
#X obj 274 196 bng 19 250 50 0 empty empty empty 0 -10 0 12 #fcfcfc #000000 #000000;
#X floatatom 274 268 5 0 0 0 - - - 0;
#X obj 334 244 random 3;
#X obj 334 220 bng 19 250 50 0 empty empty empty 0 -10 0 12 #fcfcfc #000000 #000000;
#X floatatom 334 292 5 0 0 0 - - - 0;
#X obj 454 297 random 3;
#X obj 454 273 bng 19 250 50 0 empty empty empty 0 -10 0 12 #fcfcfc #000000 #000000;
#X floatatom 454 345 5 0 0 0 - - - 0;
#X obj 514 321 random 3;
#X obj 514 297 bng 19 250 50 0 empty empty empty 0 -10 0 12 #fcfcfc #000000 #000000;
#X floatatom 514 369 5 0 0 0 - - - 0;
#X obj 574 345 random 3;
#X obj 574 321 bng 19 250 50 0 empty empty empty 0 -10 0 12 #fcfcfc #000000 #000000;
#X floatatom 574 393 5 0 0 0 - - - 0;
#X obj 641 367 random 3;
#X obj 641 343 bng 19 250 50 0 empty empty empty 0 -10 0 12 #fcfcfc #000000 #000000;
#X floatatom 641 415 5 0 0 0 - - - 0;
#X obj 708 391 random 3;
#X obj 708 367 bng 19 250 50 0 empty empty empty 0 -10 0 12 #fcfcfc #000000 #000000;
#X floatatom 708 439 5 0 0 0 - - - 0;
#X obj 775 414 random 3;
#X obj 775 390 bng 19 250 50 0 empty empty empty 0 -10 0 12 #fcfcfc #000000 #000000;
#X floatatom 775 462 5 0 0 0 - - - 0;
#X obj 842 437 random 3;
#X obj 842 413 bng 19 250 50 0 empty empty empty 0 -10 0 12 #fcfcfc #000000 #000000;
#X floatatom 842 485 5 0 0 0 - - - 0;
#X obj 909 437 random 3;
#X obj 909 413 bng 19 250 50 0 empty empty empty 0 -10 0 12 #fcfcfc #000000 #000000;
#X floatatom 909 485 5 0 0 0 - - - 0;
#X obj 154 196 + 2;
#X obj 214 220 + 3;
#X obj 274 244 + 4;
#X obj 334 268 + 5;
#X obj 394 297 + 6;
#X obj 454 321 + 7;
#X obj 514 345 + 8;
#X obj 574 369 + 9;
#X obj 641 391 + 10;
#X obj 708 415 + 11;
#X obj 775 438 + 12;
#X obj 842 461 + 13;
#X obj 909 461 + 14;
#X obj 34 11 inlet;
#X obj 397 565 outlet;
#X obj 397 523 array get \$0-sus-scale;
#X floatatom 327 547 5 0 0 0 - - - 0;
#X obj 553 36 inlet;
#X connect 0 0 33 0;
#X connect 1 0 40 0;
#X connect 2 0 36 0;
#X connect 3 0 46 0;
#X connect 4 0 30 0;
#X connect 5 0 49 0;
#X connect 6 0 43 0;
#X connect 7 0 52 0;
#X connect 8 0 0 0;
#X connect 8 1 9 0;
#X connect 9 0 2 0;
#X connect 9 1 10 0;
#X connect 10 0 1 0;
#X connect 10 1 11 0;
#X connect 11 0 6 0;
#X connect 11 1 12 0;
#X connect 12 0 3 0;
#X connect 12 1 13 0;
#X connect 13 0 5 0;
#X connect 13 1 14 0;
#X connect 14 0 4 0;
#X connect 14 1 15 0;
#X connect 15 0 7 0;
#X connect 15 1 22 0;
#X connect 16 0 55 0;
#X connect 17 0 61 0;
#X connect 18 0 58 0;
#X connect 19 0 67 0;
#X connect 20 0 70 0;
#X connect 21 0 64 0;
#X connect 22 0 16 0;
#X connect 22 1 23 0;
#X connect 23 0 18 0;
#X connect 23 1 24 0;
#X connect 24 0 17 0;
#X connect 24 1 25 0;
#X connect 25 0 21 0;
#X connect 25 1 26 0;
#X connect 26 0 19 0;
#X connect 26 1 27 0;
#X connect 27 0 20 0;
#X connect 27 1 28 0;
#X connect 28 0 73 0;
#X connect 29 0 79 0;
#X connect 30 0 29 0;
#X connect 31 0 90 0;
#X connect 32 0 34 0;
#X connect 33 0 32 0;
#X connect 34 0 90 0;
#X connect 35 0 37 0;
#X connect 36 0 35 0;
#X connect 37 0 38 0;
#X connect 38 0 90 0;
#X connect 39 0 75 0;
#X connect 40 0 39 0;
#X connect 41 0 90 0;
#X connect 42 0 76 0;
#X connect 43 0 42 0;
#X connect 44 0 90 0;
#X connect 45 0 77 0;
#X connect 46 0 45 0;
#X connect 47 0 90 0;
#X connect 48 0 78 0;
#X connect 49 0 48 0;
#X connect 50 0 90 0;
#X connect 51 0 80 0;
#X connect 52 0 51 0;
#X connect 53 0 90 0;
#X connect 54 0 81 0;
#X connect 55 0 54 0;
#X connect 56 0 90 0;
#X connect 57 0 82 0;
#X connect 58 0 57 0;
#X connect 59 0 90 0;
#X connect 60 0 83 0;
#X connect 61 0 60 0;
#X connect 62 0 90 0;
#X connect 63 0 84 0;
#X connect 64 0 63 0;
#X connect 65 0 90 0;
#X connect 66 0 85 0;
#X connect 67 0 66 0;
#X connect 68 0 90 0;
#X connect 69 0 86 0;
#X connect 70 0 69 0;
#X connect 71 0 90 0;
#X connect 72 0 87 0;
#X connect 73 0 72 0;
#X connect 74 0 90 0;
#X connect 75 0 41 0;
#X connect 76 0 44 0;
#X connect 77 0 47 0;
#X connect 78 0 50 0;
#X connect 79 0 31 0;
#X connect 80 0 53 0;
#X connect 81 0 56 0;
#X connect 82 0 59 0;
#X connect 83 0 62 0;
#X connect 84 0 65 0;
#X connect 85 0 68 0;
#X connect 86 0 71 0;
#X connect 87 0 74 0;
#X connect 88 0 8 0;
#X connect 90 0 91 0;
#X connect 90 0 89 0;
#X connect 92 0 32 1;
#X connect 92 0 35 1;
#X connect 92 0 39 1;
#X connect 92 0 42 1;
#X connect 92 0 45 1;
#X connect 92 0 48 1;
#X connect 92 0 29 1;
#X connect 92 0 51 1;
#X connect 92 0 54 1;
#X connect 92 0 57 1;
#X connect 92 0 60 1;
#X connect 92 0 63 1;
#X connect 92 0 66 1;
#X connect 92 0 69 1;
#X connect 92 0 72 1;
#X restore 417 470 pd new_note;
#X msg 491 442 3;
#X msg 536 443 5;
#X obj 411 439 spigot;
#X text 526 331 chance;
#X obj 429 314 f;
#X msg 480 773 stop;
#X msg 401 743 stop;
#X floatatom 497 514 5 0 0 0 - - - 0;
#X obj 417 891 *~ 0.1;
#X obj 417 590 *~;
#X text 544 396 pitch;
#X obj 891 352 hsl 32 15 0 10 0 0 empty empty empty -2 -8 0 10 #fcfcfc #000000 #000000 0 1;
#X obj 810 360 bng 15 250 50 0 empty empty empty 17 7 0 10 #fcfcfc #000000 #000000;
#X obj 852 367 -;
#X floatatom 888 372 5 0 0 0 - - - 0;
#X obj 852 402 >= 0;
#X obj 741 834 vsl 15 64 0 1 0 0 empty empty empty 0 -9 0 10 #fcfcfc #000000 #000000 0 1;
#X obj 852 306 random 10;
#X obj 741 592 tgl 15 0 empty empty empty 17 7 0 10 #fcfcfc #000000 #000000 0 1;
#X obj 741 662 sel 0;
#X obj 741 773 line 0 100;
#X obj 791 687 sel 1;
#X obj 741 612 t b f;
#X obj 741 636 bng 19 250 50 0 empty empty empty 0 -10 0 12 #fcfcfc #000000 #000000;
#X obj 789 663 bng 19 250 50 0 empty empty empty 0 -10 0 12 #fcfcfc #000000 #000000;
#X obj 839 687 bng 19 250 50 0 empty empty empty 0 -10 0 12 #fcfcfc #000000 #000000;
#X obj 770 395 random 18;
#N canvas 64 64 1229 631 new_note 0;
#X floatatom 34 76 5 0 0 0 - - - 0;
#X floatatom 154 126 5 0 0 0 - - - 0;
#X floatatom 94 100 5 0 0 0 - - - 0;
#X floatatom 274 174 5 0 0 0 - - - 0;
#X floatatom 394 226 5 0 0 0 - - - 0;
#X floatatom 334 197 5 0 0 0 - - - 0;
#X floatatom 214 150 5 0 0 0 - - - 0;
#X floatatom 454 250 5 0 0 0 - - - 0;
#X obj 34 52 moses 100;
#X obj 94 76 moses 200;
#X obj 154 102 moses 300;
#X obj 214 126 moses 400;
#X obj 274 150 moses 500;
#X obj 334 173 moses 600;
#X obj 394 202 moses 700;
#X obj 454 226 moses 800;
#X floatatom 514 274 5 0 0 0 - - - 0;
#X floatatom 641 320 5 0 0 0 - - - 0;
#X floatatom 574 297 5 0 0 0 - - - 0;
#X floatatom 775 366 5 0 0 0 - - - 0;
#X floatatom 842 390 5 0 0 0 - - - 0;
#X floatatom 708 343 5 0 0 0 - - - 0;
#X obj 514 250 moses 900;
#X obj 574 273 moses 1000;
#X obj 641 296 moses 1100;
#X obj 708 319 moses 1200;
#X obj 775 342 moses 1300;
#X obj 842 366 moses 1400;
#X floatatom 909 390 5 0 0 0 - - - 0;
#X obj 394 273 random 3;
#X obj 394 249 bng 19 250 50 0 empty empty empty 0 -10 0 12 #fcfcfc #000000 #000000;
#X floatatom 394 321 5 0 0 0 - - - 0;
#X obj 34 124 random 3;
#X obj 34 100 bng 19 250 50 0 empty empty empty 0 -10 0 12 #fcfcfc #000000 #000000;
#X floatatom 34 148 5 0 0 0 - - - 0;
#X obj 94 148 random 3;
#X obj 94 124 bng 19 250 50 0 empty empty empty 0 -10 0 12 #fcfcfc #000000 #000000;
#X obj 94 172 + 1;
#X floatatom 94 196 5 0 0 0 - - - 0;
#X obj 154 172 random 3;
#X obj 154 148 bng 19 250 50 0 empty empty empty 0 -10 0 12 #fcfcfc #000000 #000000;
#X floatatom 154 220 5 0 0 0 - - - 0;
#X obj 214 196 random 3;
#X obj 214 172 bng 19 250 50 0 empty empty empty 0 -10 0 12 #fcfcfc #000000 #000000;
#X floatatom 214 244 5 0 0 0 - - - 0;
#X obj 274 220 random 3;
#X obj 274 196 bng 19 250 50 0 empty empty empty 0 -10 0 12 #fcfcfc #000000 #000000;
#X floatatom 274 268 5 0 0 0 - - - 0;
#X obj 334 244 random 3;
#X obj 334 220 bng 19 250 50 0 empty empty empty 0 -10 0 12 #fcfcfc #000000 #000000;
#X floatatom 334 292 5 0 0 0 - - - 0;
#X obj 454 297 random 3;
#X obj 454 273 bng 19 250 50 0 empty empty empty 0 -10 0 12 #fcfcfc #000000 #000000;
#X floatatom 454 345 5 0 0 0 - - - 0;
#X obj 514 321 random 3;
#X obj 514 297 bng 19 250 50 0 empty empty empty 0 -10 0 12 #fcfcfc #000000 #000000;
#X floatatom 514 369 5 0 0 0 - - - 0;
#X obj 574 345 random 3;
#X obj 574 321 bng 19 250 50 0 empty empty empty 0 -10 0 12 #fcfcfc #000000 #000000;
#X floatatom 574 393 5 0 0 0 - - - 0;
#X obj 641 367 random 3;
#X obj 641 343 bng 19 250 50 0 empty empty empty 0 -10 0 12 #fcfcfc #000000 #000000;
#X floatatom 641 415 5 0 0 0 - - - 0;
#X obj 708 391 random 3;
#X obj 708 367 bng 19 250 50 0 empty empty empty 0 -10 0 12 #fcfcfc #000000 #000000;
#X floatatom 708 439 5 0 0 0 - - - 0;
#X obj 775 414 random 3;
#X obj 775 390 bng 19 250 50 0 empty empty empty 0 -10 0 12 #fcfcfc #000000 #000000;
#X floatatom 775 462 5 0 0 0 - - - 0;
#X obj 842 437 random 3;
#X obj 842 413 bng 19 250 50 0 empty empty empty 0 -10 0 12 #fcfcfc #000000 #000000;
#X floatatom 842 485 5 0 0 0 - - - 0;
#X obj 909 437 random 3;
#X obj 909 413 bng 19 250 50 0 empty empty empty 0 -10 0 12 #fcfcfc #000000 #000000;
#X floatatom 909 485 5 0 0 0 - - - 0;
#X obj 154 196 + 2;
#X obj 214 220 + 3;
#X obj 274 244 + 4;
#X obj 334 268 + 5;
#X obj 394 297 + 6;
#X obj 454 321 + 7;
#X obj 514 345 + 8;
#X obj 574 369 + 9;
#X obj 641 391 + 10;
#X obj 708 415 + 11;
#X obj 775 438 + 12;
#X obj 842 461 + 13;
#X obj 909 461 + 14;
#X obj 34 11 inlet;
#X obj 397 565 outlet;
#X obj 397 523 array get \$0-sus-scale;
#X floatatom 327 547 5 0 0 0 - - - 0;
#X obj 553 36 inlet;
#X connect 0 0 33 0;
#X connect 1 0 40 0;
#X connect 2 0 36 0;
#X connect 3 0 46 0;
#X connect 4 0 30 0;
#X connect 5 0 49 0;
#X connect 6 0 43 0;
#X connect 7 0 52 0;
#X connect 8 0 0 0;
#X connect 8 1 9 0;
#X connect 9 0 2 0;
#X connect 9 1 10 0;
#X connect 10 0 1 0;
#X connect 10 1 11 0;
#X connect 11 0 6 0;
#X connect 11 1 12 0;
#X connect 12 0 3 0;
#X connect 12 1 13 0;
#X connect 13 0 5 0;
#X connect 13 1 14 0;
#X connect 14 0 4 0;
#X connect 14 1 15 0;
#X connect 15 0 7 0;
#X connect 15 1 22 0;
#X connect 16 0 55 0;
#X connect 17 0 61 0;
#X connect 18 0 58 0;
#X connect 19 0 67 0;
#X connect 20 0 70 0;
#X connect 21 0 64 0;
#X connect 22 0 16 0;
#X connect 22 1 23 0;
#X connect 23 0 18 0;
#X connect 23 1 24 0;
#X connect 24 0 17 0;
#X connect 24 1 25 0;
#X connect 25 0 21 0;
#X connect 25 1 26 0;
#X connect 26 0 19 0;
#X connect 26 1 27 0;
#X connect 27 0 20 0;
#X connect 27 1 28 0;
#X connect 28 0 73 0;
#X connect 29 0 79 0;
#X connect 30 0 29 0;
#X connect 31 0 90 0;
#X connect 32 0 34 0;
#X connect 33 0 32 0;
#X connect 34 0 90 0;
#X connect 35 0 37 0;
#X connect 36 0 35 0;
#X connect 37 0 38 0;
#X connect 38 0 90 0;
#X connect 39 0 75 0;
#X connect 40 0 39 0;
#X connect 41 0 90 0;
#X connect 42 0 76 0;
#X connect 43 0 42 0;
#X connect 44 0 90 0;
#X connect 45 0 77 0;
#X connect 46 0 45 0;
#X connect 47 0 90 0;
#X connect 48 0 78 0;
#X connect 49 0 48 0;
#X connect 50 0 90 0;
#X connect 51 0 80 0;
#X connect 52 0 51 0;
#X connect 53 0 90 0;
#X connect 54 0 81 0;
#X connect 55 0 54 0;
#X connect 56 0 90 0;
#X connect 57 0 82 0;
#X connect 58 0 57 0;
#X connect 59 0 90 0;
#X connect 60 0 83 0;
#X connect 61 0 60 0;
#X connect 62 0 90 0;
#X connect 63 0 84 0;
#X connect 64 0 63 0;
#X connect 65 0 90 0;
#X connect 66 0 85 0;
#X connect 67 0 66 0;
#X connect 68 0 90 0;
#X connect 69 0 86 0;
#X connect 70 0 69 0;
#X connect 71 0 90 0;
#X connect 72 0 87 0;
#X connect 73 0 72 0;
#X connect 74 0 90 0;
#X connect 75 0 41 0;
#X connect 76 0 44 0;
#X connect 77 0 47 0;
#X connect 78 0 50 0;
#X connect 79 0 31 0;
#X connect 80 0 53 0;
#X connect 81 0 56 0;
#X connect 82 0 59 0;
#X connect 83 0 62 0;
#X connect 84 0 65 0;
#X connect 85 0 68 0;
#X connect 86 0 71 0;
#X connect 87 0 74 0;
#X connect 88 0 8 0;
#X connect 90 0 91 0;
#X connect 90 0 89 0;
#X connect 92 0 32 1;
#X connect 92 0 35 1;
#X connect 92 0 39 1;
#X connect 92 0 42 1;
#X connect 92 0 45 1;
#X connect 92 0 48 1;
#X connect 92 0 29 1;
#X connect 92 0 51 1;
#X connect 92 0 54 1;
#X connect 92 0 57 1;
#X connect 92 0 60 1;
#X connect 92 0 63 1;
#X connect 92 0 66 1;
#X connect 92 0 69 1;
#X connect 92 0 72 1;
#X restore 770 470 pd new_note;
#X msg 844 442 3;
#X msg 889 443 5;
#X obj 764 439 spigot;
#X text 879 331 chance;
#X obj 782 314 f;
#X msg 833 773 stop;
#X msg 754 743 stop;
#X floatatom 770 514 5 0 0 0 - - - 0;
#X obj 770 891 *~ 0.1;
#X obj 770 590 *~;
#X text 904 396 pitch;
#X obj 1071 352 hsl 32 15 0 10 0 0 empty empty empty -2 -8 0 10 #fcfcfc #000000 #000000 0 1;
#X obj 990 360 bng 15 250 50 0 empty empty empty 17 7 0 10 #fcfcfc #000000 #000000;
#X obj 1032 367 -;
#X floatatom 1068 372 5 0 0 0 - - - 0;
#X obj 1032 402 >= 0;
#X obj 921 834 vsl 15 64 0 1 0 0 empty empty empty 0 -9 0 10 #fcfcfc #000000 #000000 0 1;
#X obj 1032 306 random 10;
#X obj 921 592 tgl 15 0 empty empty empty 17 7 0 10 #fcfcfc #000000 #000000 0 1;
#X obj 921 662 sel 0;
#X obj 921 773 line 0 100;
#X obj 971 687 sel 1;
#X obj 921 612 t b f;
#X obj 921 636 bng 19 250 50 0 empty empty empty 0 -10 0 12 #fcfcfc #000000 #000000;
#X obj 969 663 bng 19 250 50 0 empty empty empty 0 -10 0 12 #fcfcfc #000000 #000000;
#X obj 1019 687 bng 19 250 50 0 empty empty empty 0 -10 0 12 #fcfcfc #000000 #000000;
#X obj 950 395 random 18;
#N canvas 64 64 1229 631 new_note 0;
#X floatatom 34 76 5 0 0 0 - - - 0;
#X floatatom 154 126 5 0 0 0 - - - 0;
#X floatatom 94 100 5 0 0 0 - - - 0;
#X floatatom 274 174 5 0 0 0 - - - 0;
#X floatatom 394 226 5 0 0 0 - - - 0;
#X floatatom 334 197 5 0 0 0 - - - 0;
#X floatatom 214 150 5 0 0 0 - - - 0;
#X floatatom 454 250 5 0 0 0 - - - 0;
#X obj 34 52 moses 100;
#X obj 94 76 moses 200;
#X obj 154 102 moses 300;
#X obj 214 126 moses 400;
#X obj 274 150 moses 500;
#X obj 334 173 moses 600;
#X obj 394 202 moses 700;
#X obj 454 226 moses 800;
#X floatatom 514 274 5 0 0 0 - - - 0;
#X floatatom 641 320 5 0 0 0 - - - 0;
#X floatatom 574 297 5 0 0 0 - - - 0;
#X floatatom 775 366 5 0 0 0 - - - 0;
#X floatatom 842 390 5 0 0 0 - - - 0;
#X floatatom 708 343 5 0 0 0 - - - 0;
#X obj 514 250 moses 900;
#X obj 574 273 moses 1000;
#X obj 641 296 moses 1100;
#X obj 708 319 moses 1200;
#X obj 775 342 moses 1300;
#X obj 842 366 moses 1400;
#X floatatom 909 390 5 0 0 0 - - - 0;
#X obj 394 273 random 3;
#X obj 394 249 bng 19 250 50 0 empty empty empty 0 -10 0 12 #fcfcfc #000000 #000000;
#X floatatom 394 321 5 0 0 0 - - - 0;
#X obj 34 124 random 3;
#X obj 34 100 bng 19 250 50 0 empty empty empty 0 -10 0 12 #fcfcfc #000000 #000000;
#X floatatom 34 148 5 0 0 0 - - - 0;
#X obj 94 148 random 3;
#X obj 94 124 bng 19 250 50 0 empty empty empty 0 -10 0 12 #fcfcfc #000000 #000000;
#X obj 94 172 + 1;
#X floatatom 94 196 5 0 0 0 - - - 0;
#X obj 154 172 random 3;
#X obj 154 148 bng 19 250 50 0 empty empty empty 0 -10 0 12 #fcfcfc #000000 #000000;
#X floatatom 154 220 5 0 0 0 - - - 0;
#X obj 214 196 random 3;
#X obj 214 172 bng 19 250 50 0 empty empty empty 0 -10 0 12 #fcfcfc #000000 #000000;
#X floatatom 214 244 5 0 0 0 - - - 0;
#X obj 274 220 random 3;
#X obj 274 196 bng 19 250 50 0 empty empty empty 0 -10 0 12 #fcfcfc #000000 #000000;
#X floatatom 274 268 5 0 0 0 - - - 0;
#X obj 334 244 random 3;
#X obj 334 220 bng 19 250 50 0 empty empty empty 0 -10 0 12 #fcfcfc #000000 #000000;
#X floatatom 334 292 5 0 0 0 - - - 0;
#X obj 454 297 random 3;
#X obj 454 273 bng 19 250 50 0 empty empty empty 0 -10 0 12 #fcfcfc #000000 #000000;
#X floatatom 454 345 5 0 0 0 - - - 0;
#X obj 514 321 random 3;
#X obj 514 297 bng 19 250 50 0 empty empty empty 0 -10 0 12 #fcfcfc #000000 #000000;
#X floatatom 514 369 5 0 0 0 - - - 0;
#X obj 574 345 random 3;
#X obj 574 321 bng 19 250 50 0 empty empty empty 0 -10 0 12 #fcfcfc #000000 #000000;
#X floatatom 574 393 5 0 0 0 - - - 0;
#X obj 641 367 random 3;
#X obj 641 343 bng 19 250 50 0 empty empty empty 0 -10 0 12 #fcfcfc #000000 #000000;
#X floatatom 641 415 5 0 0 0 - - - 0;
#X obj 708 391 random 3;
#X obj 708 367 bng 19 250 50 0 empty empty empty 0 -10 0 12 #fcfcfc #000000 #000000;
#X floatatom 708 439 5 0 0 0 - - - 0;
#X obj 775 414 random 3;
#X obj 775 390 bng 19 250 50 0 empty empty empty 0 -10 0 12 #fcfcfc #000000 #000000;
#X floatatom 775 462 5 0 0 0 - - - 0;
#X obj 842 437 random 3;
#X obj 842 413 bng 19 250 50 0 empty empty empty 0 -10 0 12 #fcfcfc #000000 #000000;
#X floatatom 842 485 5 0 0 0 - - - 0;
#X obj 909 437 random 3;
#X obj 909 413 bng 19 250 50 0 empty empty empty 0 -10 0 12 #fcfcfc #000000 #000000;
#X floatatom 909 485 5 0 0 0 - - - 0;
#X obj 154 196 + 2;
#X obj 214 220 + 3;
#X obj 274 244 + 4;
#X obj 334 268 + 5;
#X obj 394 297 + 6;
#X obj 454 321 + 7;
#X obj 514 345 + 8;
#X obj 574 369 + 9;
#X obj 641 391 + 10;
#X obj 708 415 + 11;
#X obj 775 438 + 12;
#X obj 842 461 + 13;
#X obj 909 461 + 14;
#X obj 34 11 inlet;
#X obj 397 565 outlet;
#X obj 397 523 array get \$0-sus-scale;
#X floatatom 327 547 5 0 0 0 - - - 0;
#X obj 553 36 inlet;
#X connect 0 0 33 0;
#X connect 1 0 40 0;
#X connect 2 0 36 0;
#X connect 3 0 46 0;
#X connect 4 0 30 0;
#X connect 5 0 49 0;
#X connect 6 0 43 0;
#X connect 7 0 52 0;
#X connect 8 0 0 0;
#X connect 8 1 9 0;
#X connect 9 0 2 0;
#X connect 9 1 10 0;
#X connect 10 0 1 0;
#X connect 10 1 11 0;
#X connect 11 0 6 0;
#X connect 11 1 12 0;
#X connect 12 0 3 0;
#X connect 12 1 13 0;
#X connect 13 0 5 0;
#X connect 13 1 14 0;
#X connect 14 0 4 0;
#X connect 14 1 15 0;
#X connect 15 0 7 0;
#X connect 15 1 22 0;
#X connect 16 0 55 0;
#X connect 17 0 61 0;
#X connect 18 0 58 0;
#X connect 19 0 67 0;
#X connect 20 0 70 0;
#X connect 21 0 64 0;
#X connect 22 0 16 0;
#X connect 22 1 23 0;
#X connect 23 0 18 0;
#X connect 23 1 24 0;
#X connect 24 0 17 0;
#X connect 24 1 25 0;
#X connect 25 0 21 0;
#X connect 25 1 26 0;
#X connect 26 0 19 0;
#X connect 26 1 27 0;
#X connect 27 0 20 0;
#X connect 27 1 28 0;
#X connect 28 0 73 0;
#X connect 29 0 79 0;
#X connect 30 0 29 0;
#X connect 31 0 90 0;
#X connect 32 0 34 0;
#X connect 33 0 32 0;
#X connect 34 0 90 0;
#X connect 35 0 37 0;
#X connect 36 0 35 0;
#X connect 37 0 38 0;
#X connect 38 0 90 0;
#X connect 39 0 75 0;
#X connect 40 0 39 0;
#X connect 41 0 90 0;
#X connect 42 0 76 0;
#X connect 43 0 42 0;
#X connect 44 0 90 0;
#X connect 45 0 77 0;
#X connect 46 0 45 0;
#X connect 47 0 90 0;
#X connect 48 0 78 0;
#X connect 49 0 48 0;
#X connect 50 0 90 0;
#X connect 51 0 80 0;
#X connect 52 0 51 0;
#X connect 53 0 90 0;
#X connect 54 0 81 0;
#X connect 55 0 54 0;
#X connect 56 0 90 0;
#X connect 57 0 82 0;
#X connect 58 0 57 0;
#X connect 59 0 90 0;
#X connect 60 0 83 0;
#X connect 61 0 60 0;
#X connect 62 0 90 0;
#X connect 63 0 84 0;
#X connect 64 0 63 0;
#X connect 65 0 90 0;
#X connect 66 0 85 0;
#X connect 67 0 66 0;
#X connect 68 0 90 0;
#X connect 69 0 86 0;
#X connect 70 0 69 0;
#X connect 71 0 90 0;
#X connect 72 0 87 0;
#X connect 73 0 72 0;
#X connect 74 0 90 0;
#X connect 75 0 41 0;
#X connect 76 0 44 0;
#X connect 77 0 47 0;
#X connect 78 0 50 0;
#X connect 79 0 31 0;
#X connect 80 0 53 0;
#X connect 81 0 56 0;
#X connect 82 0 59 0;
#X connect 83 0 62 0;
#X connect 84 0 65 0;
#X connect 85 0 68 0;
#X connect 86 0 71 0;
#X connect 87 0 74 0;
#X connect 88 0 8 0;
#X connect 90 0 91 0;
#X connect 90 0 89 0;
#X connect 92 0 32 1;
#X connect 92 0 35 1;
#X connect 92 0 39 1;
#X connect 92 0 42 1;
#X connect 92 0 45 1;
#X connect 92 0 48 1;
#X connect 92 0 29 1;
#X connect 92 0 51 1;
#X connect 92 0 54 1;
#X connect 92 0 57 1;
#X connect 92 0 60 1;
#X connect 92 0 63 1;
#X connect 92 0 66 1;
#X connect 92 0 69 1;
#X connect 92 0 72 1;
#X restore 950 470 pd new_note;
#X msg 1024 442 3;
#X msg 1069 443 5;
#X obj 944 439 spigot;
#X text 1059 331 chance;
#X obj 962 314 f;
#X msg 1013 773 stop;
#X msg 934 743 stop;
#X obj 950 891 *~ 0.1;
#X obj 950 590 *~;
#X text 1084 396 pitch;
#X obj 1431 352 hsl 32 15 0 10 0 0 empty empty empty -2 -8 0 10 #fcfcfc #000000 #000000 0 1;
#X obj 1350 360 bng 15 250 50 0 empty empty empty 17 7 0 10 #fcfcfc #000000 #000000;
#X obj 1392 367 -;
#X floatatom 1428 372 5 0 0 0 - - - 0;
#X obj 1392 402 >= 0;
#X obj 1281 835 vsl 15 64 0 1 0 0 empty empty empty 0 -9 0 10 #fcfcfc #000000 #000000 0 1;
#X obj 1392 306 random 10;
#X obj 1281 592 tgl 15 0 empty empty empty 17 7 0 10 #fcfcfc #000000 #000000 0 1;
#X obj 1281 662 sel 0;
#X obj 1281 773 line 0 100;
#X obj 1331 687 sel 1;
#X obj 1281 612 t b f;
#X obj 1281 636 bng 19 250 50 0 empty empty empty 0 -10 0 12 #fcfcfc #000000 #000000;
#X obj 1329 663 bng 19 250 50 0 empty empty empty 0 -10 0 12 #fcfcfc #000000 #000000;
#X obj 1379 687 bng 19 250 50 0 empty empty empty 0 -10 0 12 #fcfcfc #000000 #000000;
#X obj 1310 395 random 18;
#N canvas 64 64 1229 631 new_note 0;
#X floatatom 34 76 5 0 0 0 - - - 0;
#X floatatom 154 126 5 0 0 0 - - - 0;
#X floatatom 94 100 5 0 0 0 - - - 0;
#X floatatom 274 174 5 0 0 0 - - - 0;
#X floatatom 394 226 5 0 0 0 - - - 0;
#X floatatom 334 197 5 0 0 0 - - - 0;
#X floatatom 214 150 5 0 0 0 - - - 0;
#X floatatom 454 250 5 0 0 0 - - - 0;
#X obj 34 52 moses 100;
#X obj 94 76 moses 200;
#X obj 154 102 moses 300;
#X obj 214 126 moses 400;
#X obj 274 150 moses 500;
#X obj 334 173 moses 600;
#X obj 394 202 moses 700;
#X obj 454 226 moses 800;
#X floatatom 514 274 5 0 0 0 - - - 0;
#X floatatom 641 320 5 0 0 0 - - - 0;
#X floatatom 574 297 5 0 0 0 - - - 0;
#X floatatom 775 366 5 0 0 0 - - - 0;
#X floatatom 842 390 5 0 0 0 - - - 0;
#X floatatom 708 343 5 0 0 0 - - - 0;
#X obj 514 250 moses 900;
#X obj 574 273 moses 1000;
#X obj 641 296 moses 1100;
#X obj 708 319 moses 1200;
#X obj 775 342 moses 1300;
#X obj 842 366 moses 1400;
#X floatatom 909 390 5 0 0 0 - - - 0;
#X obj 394 273 random 3;
#X obj 394 249 bng 19 250 50 0 empty empty empty 0 -10 0 12 #fcfcfc #000000 #000000;
#X floatatom 394 321 5 0 0 0 - - - 0;
#X obj 34 124 random 3;
#X obj 34 100 bng 19 250 50 0 empty empty empty 0 -10 0 12 #fcfcfc #000000 #000000;
#X floatatom 34 148 5 0 0 0 - - - 0;
#X obj 94 148 random 3;
#X obj 94 124 bng 19 250 50 0 empty empty empty 0 -10 0 12 #fcfcfc #000000 #000000;
#X obj 94 172 + 1;
#X floatatom 94 196 5 0 0 0 - - - 0;
#X obj 154 172 random 3;
#X obj 154 148 bng 19 250 50 0 empty empty empty 0 -10 0 12 #fcfcfc #000000 #000000;
#X floatatom 154 220 5 0 0 0 - - - 0;
#X obj 214 196 random 3;
#X obj 214 172 bng 19 250 50 0 empty empty empty 0 -10 0 12 #fcfcfc #000000 #000000;
#X floatatom 214 244 5 0 0 0 - - - 0;
#X obj 274 220 random 3;
#X obj 274 196 bng 19 250 50 0 empty empty empty 0 -10 0 12 #fcfcfc #000000 #000000;
#X floatatom 274 268 5 0 0 0 - - - 0;
#X obj 334 244 random 3;
#X obj 334 220 bng 19 250 50 0 empty empty empty 0 -10 0 12 #fcfcfc #000000 #000000;
#X floatatom 334 292 5 0 0 0 - - - 0;
#X obj 454 297 random 3;
#X obj 454 273 bng 19 250 50 0 empty empty empty 0 -10 0 12 #fcfcfc #000000 #000000;
#X floatatom 454 345 5 0 0 0 - - - 0;
#X obj 514 321 random 3;
#X obj 514 297 bng 19 250 50 0 empty empty empty 0 -10 0 12 #fcfcfc #000000 #000000;
#X floatatom 514 369 5 0 0 0 - - - 0;
#X obj 574 345 random 3;
#X obj 574 321 bng 19 250 50 0 empty empty empty 0 -10 0 12 #fcfcfc #000000 #000000;
#X floatatom 574 393 5 0 0 0 - - - 0;
#X obj 641 367 random 3;
#X obj 641 343 bng 19 250 50 0 empty empty empty 0 -10 0 12 #fcfcfc #000000 #000000;
#X floatatom 641 415 5 0 0 0 - - - 0;
#X obj 708 391 random 3;
#X obj 708 367 bng 19 250 50 0 empty empty empty 0 -10 0 12 #fcfcfc #000000 #000000;
#X floatatom 708 439 5 0 0 0 - - - 0;
#X obj 775 414 random 3;
#X obj 775 390 bng 19 250 50 0 empty empty empty 0 -10 0 12 #fcfcfc #000000 #000000;
#X floatatom 775 462 5 0 0 0 - - - 0;
#X obj 842 437 random 3;
#X obj 842 413 bng 19 250 50 0 empty empty empty 0 -10 0 12 #fcfcfc #000000 #000000;
#X floatatom 842 485 5 0 0 0 - - - 0;
#X obj 909 437 random 3;
#X obj 909 413 bng 19 250 50 0 empty empty empty 0 -10 0 12 #fcfcfc #000000 #000000;
#X floatatom 909 485 5 0 0 0 - - - 0;
#X obj 154 196 + 2;
#X obj 214 220 + 3;
#X obj 274 244 + 4;
#X obj 334 268 + 5;
#X obj 394 297 + 6;
#X obj 454 321 + 7;
#X obj 514 345 + 8;
#X obj 574 369 + 9;
#X obj 641 391 + 10;
#X obj 708 415 + 11;
#X obj 775 438 + 12;
#X obj 842 461 + 13;
#X obj 909 461 + 14;
#X obj 34 11 inlet;
#X obj 397 565 outlet;
#X obj 397 523 array get \$0-sus-scale;
#X floatatom 327 547 5 0 0 0 - - - 0;
#X obj 553 36 inlet;
#X connect 0 0 33 0;
#X connect 1 0 40 0;
#X connect 2 0 36 0;
#X connect 3 0 46 0;
#X connect 4 0 30 0;
#X connect 5 0 49 0;
#X connect 6 0 43 0;
#X connect 7 0 52 0;
#X connect 8 0 0 0;
#X connect 8 1 9 0;
#X connect 9 0 2 0;
#X connect 9 1 10 0;
#X connect 10 0 1 0;
#X connect 10 1 11 0;
#X connect 11 0 6 0;
#X connect 11 1 12 0;
#X connect 12 0 3 0;
#X connect 12 1 13 0;
#X connect 13 0 5 0;
#X connect 13 1 14 0;
#X connect 14 0 4 0;
#X connect 14 1 15 0;
#X connect 15 0 7 0;
#X connect 15 1 22 0;
#X connect 16 0 55 0;
#X connect 17 0 61 0;
#X connect 18 0 58 0;
#X connect 19 0 67 0;
#X connect 20 0 70 0;
#X connect 21 0 64 0;
#X connect 22 0 16 0;
#X connect 22 1 23 0;
#X connect 23 0 18 0;
#X connect 23 1 24 0;
#X connect 24 0 17 0;
#X connect 24 1 25 0;
#X connect 25 0 21 0;
#X connect 25 1 26 0;
#X connect 26 0 19 0;
#X connect 26 1 27 0;
#X connect 27 0 20 0;
#X connect 27 1 28 0;
#X connect 28 0 73 0;
#X connect 29 0 79 0;
#X connect 30 0 29 0;
#X connect 31 0 90 0;
#X connect 32 0 34 0;
#X connect 33 0 32 0;
#X connect 34 0 90 0;
#X connect 35 0 37 0;
#X connect 36 0 35 0;
#X connect 37 0 38 0;
#X connect 38 0 90 0;
#X connect 39 0 75 0;
#X connect 40 0 39 0;
#X connect 41 0 90 0;
#X connect 42 0 76 0;
#X connect 43 0 42 0;
#X connect 44 0 90 0;
#X connect 45 0 77 0;
#X connect 46 0 45 0;
#X connect 47 0 90 0;
#X connect 48 0 78 0;
#X connect 49 0 48 0;
#X connect 50 0 90 0;
#X connect 51 0 80 0;
#X connect 52 0 51 0;
#X connect 53 0 90 0;
#X connect 54 0 81 0;
#X connect 55 0 54 0;
#X connect 56 0 90 0;
#X connect 57 0 82 0;
#X connect 58 0 57 0;
#X connect 59 0 90 0;
#X connect 60 0 83 0;
#X connect 61 0 60 0;
#X connect 62 0 90 0;
#X connect 63 0 84 0;
#X connect 64 0 63 0;
#X connect 65 0 90 0;
#X connect 66 0 85 0;
#X connect 67 0 66 0;
#X connect 68 0 90 0;
#X connect 69 0 86 0;
#X connect 70 0 69 0;
#X connect 71 0 90 0;
#X connect 72 0 87 0;
#X connect 73 0 72 0;
#X connect 74 0 90 0;
#X connect 75 0 41 0;
#X connect 76 0 44 0;
#X connect 77 0 47 0;
#X connect 78 0 50 0;
#X connect 79 0 31 0;
#X connect 80 0 53 0;
#X connect 81 0 56 0;
#X connect 82 0 59 0;
#X connect 83 0 62 0;
#X connect 84 0 65 0;
#X connect 85 0 68 0;
#X connect 86 0 71 0;
#X connect 87 0 74 0;
#X connect 88 0 8 0;
#X connect 90 0 91 0;
#X connect 90 0 89 0;
#X connect 92 0 32 1;
#X connect 92 0 35 1;
#X connect 92 0 39 1;
#X connect 92 0 42 1;
#X connect 92 0 45 1;
#X connect 92 0 48 1;
#X connect 92 0 29 1;
#X connect 92 0 51 1;
#X connect 92 0 54 1;
#X connect 92 0 57 1;
#X connect 92 0 60 1;
#X connect 92 0 63 1;
#X connect 92 0 66 1;
#X connect 92 0 69 1;
#X connect 92 0 72 1;
#X restore 1310 470 pd new_note;
#X msg 1384 442 3;
#X msg 1429 443 5;
#X obj 1304 439 spigot;
#X text 1419 331 chance;
#X obj 1322 314 f;
#X msg 1373 773 stop;
#X msg 1294 743 stop;
#X floatatom 1310 494 5 0 0 0 - - - 0;
#X obj 1310 891 *~ 0.1;
#X obj 1310 590 *~;
#X text 1624 396 pitch;
#X obj 1791 352 hsl 32 15 0 10 0 0 empty empty empty -2 -8 0 10 #fcfcfc #000000 #000000 0 1;
#X obj 1710 360 bng 15 250 50 0 empty empty empty 17 7 0 10 #fcfcfc #000000 #000000;
#X obj 1752 367 -;
#X floatatom 1788 372 5 0 0 0 - - - 0;
#X obj 1752 402 >= 0;
#X obj 1641 834 vsl 15 64 0 0.5 0 0 empty empty empty 0 -9 0 10 #fcfcfc #000000 #000000 0 1;
#X obj 1752 306 random 10;
#X obj 1641 592 tgl 15 0 empty empty empty 17 7 0 10 #fcfcfc #000000 #000000 0 1;
#X msg 1670 515 next \$1;
#X floatatom 1687 540 5 0 0 0 - - - 0;
#X obj 1641 662 sel 0;
#X obj 1641 773 line 0 100;
#X obj 1691 687 sel 1;
#X obj 1641 612 t b f;
#X obj 1641 636 bng 19 250 50 0 empty empty empty 0 -10 0 12 #fcfcfc #000000 #000000;
#X obj 1689 663 bng 19 250 50 0 empty empty empty 0 -10 0 12 #fcfcfc #000000 #000000;
#X obj 1739 687 bng 19 250 50 0 empty empty empty 0 -10 0 12 #fcfcfc #000000 #000000;
#X obj 1670 566 clone lead.cl 3;
#X msg 1772 543 1;
#X obj 1670 395 random 18;
#N canvas 64 64 1229 631 new_note 0;
#X floatatom 34 76 5 0 0 0 - - - 0;
#X floatatom 154 126 5 0 0 0 - - - 0;
#X floatatom 94 100 5 0 0 0 - - - 0;
#X floatatom 274 174 5 0 0 0 - - - 0;
#X floatatom 394 226 5 0 0 0 - - - 0;
#X floatatom 334 197 5 0 0 0 - - - 0;
#X floatatom 214 150 5 0 0 0 - - - 0;
#X floatatom 454 250 5 0 0 0 - - - 0;
#X obj 34 52 moses 100;
#X obj 94 76 moses 200;
#X obj 154 102 moses 300;
#X obj 214 126 moses 400;
#X obj 274 150 moses 500;
#X obj 334 173 moses 600;
#X obj 394 202 moses 700;
#X obj 454 226 moses 800;
#X floatatom 514 274 5 0 0 0 - - - 0;
#X floatatom 641 320 5 0 0 0 - - - 0;
#X floatatom 574 297 5 0 0 0 - - - 0;
#X floatatom 775 366 5 0 0 0 - - - 0;
#X floatatom 842 390 5 0 0 0 - - - 0;
#X floatatom 708 343 5 0 0 0 - - - 0;
#X obj 514 250 moses 900;
#X obj 574 273 moses 1000;
#X obj 641 296 moses 1100;
#X obj 708 319 moses 1200;
#X obj 775 342 moses 1300;
#X obj 842 366 moses 1400;
#X floatatom 909 390 5 0 0 0 - - - 0;
#X obj 394 273 random 3;
#X obj 394 249 bng 19 250 50 0 empty empty empty 0 -10 0 12 #fcfcfc #000000 #000000;
#X floatatom 394 321 5 0 0 0 - - - 0;
#X obj 34 124 random 3;
#X obj 34 100 bng 19 250 50 0 empty empty empty 0 -10 0 12 #fcfcfc #000000 #000000;
#X floatatom 34 148 5 0 0 0 - - - 0;
#X obj 94 148 random 3;
#X obj 94 124 bng 19 250 50 0 empty empty empty 0 -10 0 12 #fcfcfc #000000 #000000;
#X obj 94 172 + 1;
#X floatatom 94 196 5 0 0 0 - - - 0;
#X obj 154 172 random 3;
#X obj 154 148 bng 19 250 50 0 empty empty empty 0 -10 0 12 #fcfcfc #000000 #000000;
#X floatatom 154 220 5 0 0 0 - - - 0;
#X obj 214 196 random 3;
#X obj 214 172 bng 19 250 50 0 empty empty empty 0 -10 0 12 #fcfcfc #000000 #000000;
#X floatatom 214 244 5 0 0 0 - - - 0;
#X obj 274 220 random 3;
#X obj 274 196 bng 19 250 50 0 empty empty empty 0 -10 0 12 #fcfcfc #000000 #000000;
#X floatatom 274 268 5 0 0 0 - - - 0;
#X obj 334 244 random 3;
#X obj 334 220 bng 19 250 50 0 empty empty empty 0 -10 0 12 #fcfcfc #000000 #000000;
#X floatatom 334 292 5 0 0 0 - - - 0;
#X obj 454 297 random 3;
#X obj 454 273 bng 19 250 50 0 empty empty empty 0 -10 0 12 #fcfcfc #000000 #000000;
#X floatatom 454 345 5 0 0 0 - - - 0;
#X obj 514 321 random 3;
#X obj 514 297 bng 19 250 50 0 empty empty empty 0 -10 0 12 #fcfcfc #000000 #000000;
#X floatatom 514 369 5 0 0 0 - - - 0;
#X obj 574 345 random 3;
#X obj 574 321 bng 19 250 50 0 empty empty empty 0 -10 0 12 #fcfcfc #000000 #000000;
#X floatatom 574 393 5 0 0 0 - - - 0;
#X obj 641 367 random 3;
#X obj 641 343 bng 19 250 50 0 empty empty empty 0 -10 0 12 #fcfcfc #000000 #000000;
#X floatatom 641 415 5 0 0 0 - - - 0;
#X obj 708 391 random 3;
#X obj 708 367 bng 19 250 50 0 empty empty empty 0 -10 0 12 #fcfcfc #000000 #000000;
#X floatatom 708 439 5 0 0 0 - - - 0;
#X obj 775 414 random 3;
#X obj 775 390 bng 19 250 50 0 empty empty empty 0 -10 0 12 #fcfcfc #000000 #000000;
#X floatatom 775 462 5 0 0 0 - - - 0;
#X obj 842 437 random 3;
#X obj 842 413 bng 19 250 50 0 empty empty empty 0 -10 0 12 #fcfcfc #000000 #000000;
#X floatatom 842 485 5 0 0 0 - - - 0;
#X obj 909 437 random 3;
#X obj 909 413 bng 19 250 50 0 empty empty empty 0 -10 0 12 #fcfcfc #000000 #000000;
#X floatatom 909 485 5 0 0 0 - - - 0;
#X obj 154 196 + 2;
#X obj 214 220 + 3;
#X obj 274 244 + 4;
#X obj 334 268 + 5;
#X obj 394 297 + 6;
#X obj 454 321 + 7;
#X obj 514 345 + 8;
#X obj 574 369 + 9;
#X obj 641 391 + 10;
#X obj 708 415 + 11;
#X obj 775 438 + 12;
#X obj 842 461 + 13;
#X obj 909 461 + 14;
#X obj 34 11 inlet;
#X obj 397 565 outlet;
#X obj 397 523 array get \$0-sus-scale;
#X floatatom 327 547 5 0 0 0 - - - 0;
#X obj 553 36 inlet;
#X connect 0 0 33 0;
#X connect 1 0 40 0;
#X connect 2 0 36 0;
#X connect 3 0 46 0;
#X connect 4 0 30 0;
#X connect 5 0 49 0;
#X connect 6 0 43 0;
#X connect 7 0 52 0;
#X connect 8 0 0 0;
#X connect 8 1 9 0;
#X connect 9 0 2 0;
#X connect 9 1 10 0;
#X connect 10 0 1 0;
#X connect 10 1 11 0;
#X connect 11 0 6 0;
#X connect 11 1 12 0;
#X connect 12 0 3 0;
#X connect 12 1 13 0;
#X connect 13 0 5 0;
#X connect 13 1 14 0;
#X connect 14 0 4 0;
#X connect 14 1 15 0;
#X connect 15 0 7 0;
#X connect 15 1 22 0;
#X connect 16 0 55 0;
#X connect 17 0 61 0;
#X connect 18 0 58 0;
#X connect 19 0 67 0;
#X connect 20 0 70 0;
#X connect 21 0 64 0;
#X connect 22 0 16 0;
#X connect 22 1 23 0;
#X connect 23 0 18 0;
#X connect 23 1 24 0;
#X connect 24 0 17 0;
#X connect 24 1 25 0;
#X connect 25 0 21 0;
#X connect 25 1 26 0;
#X connect 26 0 19 0;
#X connect 26 1 27 0;
#X connect 27 0 20 0;
#X connect 27 1 28 0;
#X connect 28 0 73 0;
#X connect 29 0 79 0;
#X connect 30 0 29 0;
#X connect 31 0 90 0;
#X connect 32 0 34 0;
#X connect 33 0 32 0;
#X connect 34 0 90 0;
#X connect 35 0 37 0;
#X connect 36 0 35 0;
#X connect 37 0 38 0;
#X connect 38 0 90 0;
#X connect 39 0 75 0;
#X connect 40 0 39 0;
#X connect 41 0 90 0;
#X connect 42 0 76 0;
#X connect 43 0 42 0;
#X connect 44 0 90 0;
#X connect 45 0 77 0;
#X connect 46 0 45 0;
#X connect 47 0 90 0;
#X connect 48 0 78 0;
#X connect 49 0 48 0;
#X connect 50 0 90 0;
#X connect 51 0 80 0;
#X connect 52 0 51 0;
#X connect 53 0 90 0;
#X connect 54 0 81 0;
#X connect 55 0 54 0;
#X connect 56 0 90 0;
#X connect 57 0 82 0;
#X connect 58 0 57 0;
#X connect 59 0 90 0;
#X connect 60 0 83 0;
#X connect 61 0 60 0;
#X connect 62 0 90 0;
#X connect 63 0 84 0;
#X connect 64 0 63 0;
#X connect 65 0 90 0;
#X connect 66 0 85 0;
#X connect 67 0 66 0;
#X connect 68 0 90 0;
#X connect 69 0 86 0;
#X connect 70 0 69 0;
#X connect 71 0 90 0;
#X connect 72 0 87 0;
#X connect 73 0 72 0;
#X connect 74 0 90 0;
#X connect 75 0 41 0;
#X connect 76 0 44 0;
#X connect 77 0 47 0;
#X connect 78 0 50 0;
#X connect 79 0 31 0;
#X connect 80 0 53 0;
#X connect 81 0 56 0;
#X connect 82 0 59 0;
#X connect 83 0 62 0;
#X connect 84 0 65 0;
#X connect 85 0 68 0;
#X connect 86 0 71 0;
#X connect 87 0 74 0;
#X connect 88 0 8 0;
#X connect 90 0 91 0;
#X connect 90 0 89 0;
#X connect 92 0 32 1;
#X connect 92 0 35 1;
#X connect 92 0 39 1;
#X connect 92 0 42 1;
#X connect 92 0 45 1;
#X connect 92 0 48 1;
#X connect 92 0 29 1;
#X connect 92 0 51 1;
#X connect 92 0 54 1;
#X connect 92 0 57 1;
#X connect 92 0 60 1;
#X connect 92 0 63 1;
#X connect 92 0 66 1;
#X connect 92 0 69 1;
#X connect 92 0 72 1;
#X restore 1670 470 pd new_note;
#X msg 1744 442 3;
#X msg 1789 443 5;
#X obj 1664 439 spigot;
#X text 1779 331 chance;
#X obj 1682 314 f;
#X msg 1733 773 stop;
#X msg 1654 743 stop;
#X floatatom 1750 514 5 0 0 0 - - - 0;
#X msg 1691 743 0.001 \, 0.1 1000 10;
#X obj 1691 801 line 0.1 100;
#X obj 1670 891 *~ 0.1;
#X msg 1641 714 0.1 \, 0 1000 10;
#X obj 1670 590 *~;
#X obj 708 124 / 1000;
#X obj 522 150 / 1000;
#X msg 473 869 0;
#X obj 473 842 loadbang;
#X msg 843 869 0;
#X obj 843 842 loadbang;
#X obj 888 151 / 1000;
#X obj 1058 151 / 1000;
#X obj 1229 152 / 1000;
#X obj 1414 150 / 1000;
#X obj 1590 150 / 1000;
#X obj 1771 148 / 1000;
#X obj 175 210 calc_speed;
#X obj 515 210 calc_speed;
#X obj 884 214 calc_speed;
#X obj 1041 216 calc_speed;
#X obj 1381 216 calc_speed;
#X obj 1761 216 calc_speed;
#X msg 81 743 0.001 \, 0.5 1000 10;
#X obj 81 801 line 0.5 100;
#X msg 31 714 0.5 \, 0 1000 10;
#X obj 60 494 f;
#X obj 107 494 - 24;
#X floatatom 147 513 5 0 0 0 - - - 0;
#X floatatom 165 544 5 0 0 0 - - - 0;
#X obj 60 566 clone bass.cl 1;
#X obj 1683 10 r h10;
#X obj 499 279 r tick;
#X obj 852 279 r tick;
#X obj 1032 279 r tick;
#X obj 1392 279 r tick;
#X obj 1752 279 r tick;
#N canvas 20 9 1229 631 new_bass_note 0;
#X floatatom 34 76 5 0 0 0 - - - 0;
#X floatatom 154 126 5 0 0 0 - - - 0;
#X floatatom 94 100 5 0 0 0 - - - 0;
#X floatatom 274 174 5 0 0 0 - - - 0;
#X floatatom 394 226 5 0 0 0 - - - 0;
#X floatatom 334 197 5 0 0 0 - - - 0;
#X floatatom 214 150 5 0 0 0 - - - 0;
#X obj 34 52 moses 100;
#X obj 394 273 random 3;
#X obj 394 249 bng 19 250 50 0 empty empty empty 0 -10 0 12 #fcfcfc #000000 #000000;
#X floatatom 394 321 5 0 0 0 - - - 0;
#X obj 34 124 random 3;
#X obj 34 100 bng 19 250 50 0 empty empty empty 0 -10 0 12 #fcfcfc #000000 #000000;
#X floatatom 34 148 5 0 0 0 - - - 0;
#X obj 94 148 random 3;
#X obj 94 124 bng 19 250 50 0 empty empty empty 0 -10 0 12 #fcfcfc #000000 #000000;
#X obj 94 172 + 1;
#X floatatom 94 196 5 0 0 0 - - - 0;
#X obj 154 172 random 3;
#X obj 154 148 bng 19 250 50 0 empty empty empty 0 -10 0 12 #fcfcfc #000000 #000000;
#X floatatom 154 220 5 0 0 0 - - - 0;
#X obj 214 196 random 3;
#X obj 214 172 bng 19 250 50 0 empty empty empty 0 -10 0 12 #fcfcfc #000000 #000000;
#X floatatom 214 244 5 0 0 0 - - - 0;
#X obj 274 220 random 3;
#X obj 274 196 bng 19 250 50 0 empty empty empty 0 -10 0 12 #fcfcfc #000000 #000000;
#X floatatom 274 268 5 0 0 0 - - - 0;
#X obj 334 244 random 3;
#X obj 334 220 bng 19 250 50 0 empty empty empty 0 -10 0 12 #fcfcfc #000000 #000000;
#X floatatom 334 292 5 0 0 0 - - - 0;
#X obj 454 273 bng 19 250 50 0 empty empty empty 0 -10 0 12 #fcfcfc #000000 #000000;
#X obj 154 196 + 2;
#X obj 214 220 + 3;
#X obj 274 244 + 4;
#X obj 334 268 + 5;
#X obj 394 297 + 6;
#X obj 454 321 + 7;
#X obj 34 11 inlet;
#X obj 397 565 outlet;
#X obj 397 523 array get \$0-sus-scale;
#X floatatom 327 547 5 0 0 0 - - - 0;
#X obj 553 36 inlet;
#X floatatom 104 25 5 0 0 0 - - - 0;
#X floatatom 454 250 5 0 0 0 - - - 0;
#X floatatom 514 274 5 0 0 0 - - - 0;
#X floatatom 641 320 5 0 0 0 - - - 0;
#X floatatom 574 297 5 0 0 0 - - - 0;
#X floatatom 775 366 5 0 0 0 - - - 0;
#X floatatom 842 390 5 0 0 0 - - - 0;
#X floatatom 708 343 5 0 0 0 - - - 0;
#X floatatom 909 390 5 0 0 0 - - - 0;
#X obj 454 297 random 3;
#X floatatom 454 345 5 0 0 0 - - - 0;
#X obj 514 321 random 3;
#X obj 514 297 bng 19 250 50 0 empty empty empty 0 -10 0 12 #fcfcfc #000000 #000000;
#X floatatom 514 369 5 0 0 0 - - - 0;
#X obj 574 345 random 3;
#X obj 574 321 bng 19 250 50 0 empty empty empty 0 -10 0 12 #fcfcfc #000000 #000000;
#X floatatom 574 393 5 0 0 0 - - - 0;
#X obj 641 367 random 3;
#X obj 641 343 bng 19 250 50 0 empty empty empty 0 -10 0 12 #fcfcfc #000000 #000000;
#X floatatom 641 415 5 0 0 0 - - - 0;
#X obj 708 391 random 3;
#X obj 708 367 bng 19 250 50 0 empty empty empty 0 -10 0 12 #fcfcfc #000000 #000000;
#X floatatom 708 439 5 0 0 0 - - - 0;
#X obj 775 414 random 3;
#X obj 775 390 bng 19 250 50 0 empty empty empty 0 -10 0 12 #fcfcfc #000000 #000000;
#X floatatom 775 462 5 0 0 0 - - - 0;
#X obj 842 437 random 3;
#X obj 842 413 bng 19 250 50 0 empty empty empty 0 -10 0 12 #fcfcfc #000000 #000000;
#X floatatom 842 485 5 0 0 0 - - - 0;
#X obj 909 437 random 3;
#X obj 909 413 bng 19 250 50 0 empty empty empty 0 -10 0 12 #fcfcfc #000000 #000000;
#X floatatom 909 485 5 0 0 0 - - - 0;
#X obj 514 345 + 8;
#X obj 574 369 + 9;
#X obj 641 391 + 10;
#X obj 708 415 + 11;
#X obj 775 438 + 12;
#X obj 842 461 + 13;
#X obj 909 461 + 14;
#X obj 842 366 moses 550;
#X obj 454 226 moses 342;
#X obj 514 250 moses 377;
#X obj 574 273 moses 412;
#X obj 641 296 moses 446;
#X obj 708 319 moses 480;
#X obj 775 342 moses 515;
#X obj 94 76 moses 175;
#X obj 154 102 moses 250;
#X obj 214 126 moses 325;
#X obj 274 151 moses 400;
#X obj 334 173 moses 475;
#X obj 394 202 moses 550;
#X floatatom 553 60 5 0 0 0 - - - 0;
#X connect 0 0 12 0;
#X connect 1 0 19 0;
#X connect 2 0 15 0;
#X connect 3 0 25 0;
#X connect 4 0 9 0;
#X connect 5 0 28 0;
#X connect 6 0 22 0;
#X connect 7 0 0 0;
#X connect 7 1 88 0;
#X connect 8 0 35 0;
#X connect 9 0 8 0;
#X connect 10 0 39 0;
#X connect 11 0 13 0;
#X connect 12 0 11 0;
#X connect 13 0 39 0;
#X connect 14 0 16 0;
#X connect 15 0 14 0;
#X connect 16 0 17 0;
#X connect 17 0 39 0;
#X connect 18 0 31 0;
#X connect 19 0 18 0;
#X connect 20 0 39 0;
#X connect 21 0 32 0;
#X connect 22 0 21 0;
#X connect 23 0 39 0;
#X connect 24 0 33 0;
#X connect 25 0 24 0;
#X connect 26 0 39 0;
#X connect 27 0 34 0;
#X connect 28 0 27 0;
#X connect 29 0 39 0;
#X connect 31 0 20 0;
#X connect 32 0 23 0;
#X connect 33 0 26 0;
#X connect 34 0 29 0;
#X connect 35 0 10 0;
#X connect 37 0 7 0;
#X connect 37 0 42 0;
#X connect 39 0 40 0;
#X connect 39 0 38 0;
#X connect 41 0 11 1;
#X connect 41 0 14 1;
#X connect 41 0 18 1;
#X connect 41 0 21 1;
#X connect 41 0 24 1;
#X connect 41 0 27 1;
#X connect 41 0 8 1;
#X connect 41 0 94 0;
#X connect 44 0 54 0;
#X connect 45 0 60 0;
#X connect 46 0 57 0;
#X connect 47 0 66 0;
#X connect 48 0 69 0;
#X connect 49 0 63 0;
#X connect 50 0 72 0;
#X connect 53 0 74 0;
#X connect 54 0 53 0;
#X connect 56 0 75 0;
#X connect 57 0 56 0;
#X connect 59 0 76 0;
#X connect 60 0 59 0;
#X connect 62 0 77 0;
#X connect 63 0 62 0;
#X connect 65 0 78 0;
#X connect 66 0 65 0;
#X connect 68 0 79 0;
#X connect 69 0 68 0;
#X connect 71 0 80 0;
#X connect 72 0 71 0;
#X connect 74 0 55 0;
#X connect 75 0 58 0;
#X connect 76 0 61 0;
#X connect 77 0 64 0;
#X connect 78 0 67 0;
#X connect 79 0 70 0;
#X connect 80 0 73 0;
#X connect 81 0 48 0;
#X connect 81 1 50 0;
#X connect 82 0 43 0;
#X connect 82 1 83 0;
#X connect 83 0 44 0;
#X connect 83 1 84 0;
#X connect 84 0 46 0;
#X connect 84 1 85 0;
#X connect 85 0 45 0;
#X connect 85 1 86 0;
#X connect 86 0 49 0;
#X connect 86 1 87 0;
#X connect 87 0 47 0;
#X connect 87 1 81 0;
#X connect 88 0 2 0;
#X connect 88 1 89 0;
#X connect 89 0 1 0;
#X connect 89 1 90 0;
#X connect 90 0 6 0;
#X connect 90 1 91 0;
#X connect 91 0 3 0;
#X connect 91 1 92 0;
#X connect 92 0 5 0;
#X connect 92 1 93 0;
#X connect 93 0 4 0;
#X restore 60 470 pd new_bass_note;
#X obj 243 10 r h1;
#X obj 253 332 randomperc1 ~;
#X obj 271 397 throw~ left;
#X obj 271 427 throw~ right;
#X obj 243 152 del 2000;
#X msg 388 714 0.5 \, 0 1000 10;
#X msg 438 743 0.001 \, 0.5 1000 10;
#X obj 438 801 line 0.5 100;
#X floatatom 351 463 5 0 0 0 - - - 0;
#X floatatom 422 285 5 0 0 0 - - - 0;
#X floatatom 429 338 5 0 0 0 - - - 0;
#X obj 60 945 outlet~;
#X obj 59 918 hip~;
#X msg 128 899 500;
#X msg 175 899 1000;
#X obj 656 390 throw~ left;
#X obj 656 420 throw~ right;
#X obj 770 562 analog_strings;
#X msg 741 714 1 \, 0 1000 10;
#X msg 791 743 0.001 \, 1 1000 10;
#X obj 791 801 line 1 100;
#X obj 636 321 randomperc1 ~;
#X obj 417 915 hip~;
#X msg 519 877 1000;
#X msg 559 878 2000;
#X obj 62 10 r h3;
#X obj 603 10 r h4;
#X obj 422 10 r h5;
#X obj 950 566 analog_strings;
#X msg 921 714 1 \, 0 1000 10;
#X msg 971 743 0.001 \, 1 1000 10;
#X obj 971 801 line 1 100;
#X obj 1180 379 throw~ left;
#X obj 1180 409 throw~ right;
#X obj 1160 310 randomperc1 ~;
#X obj 1142 10 r h7;
#X floatatom 950 494 5 0 0 0 - - - 0;
#X obj 950 517 + 12;
#X floatatom 950 541 5 0 0 0 - - - 0;
#X obj 782 10 r h2;
#X obj 963 10 r h6;
#X obj 1310 566 analog_strings;
#X obj 1310 517 + 24;
#X floatatom 1310 541 5 0 0 0 - - - 0;
#X msg 1281 714 1 \, 0 1000 10;
#X msg 1331 743 0.001 \, 1 1000 10;
#X obj 1331 801 line 1 100;
#X obj 1521 371 throw~ left;
#X obj 1521 401 throw~ right;
#X obj 1501 302 randomperc1 ~;
#X obj 1323 10 r h8;
#X obj 1502 10 r h9;
#X connect 11 0 4 0;
#X connect 11 1 0 0;
#X connect 11 2 1 0;
#X connect 11 3 2 0;
#X connect 11 4 3 0;
#X connect 11 5 7 0;
#X connect 11 6 12 0;
#X connect 16 0 18 1;
#X connect 16 0 19 0;
#X connect 17 0 153 0;
#X connect 17 0 158 0;
#X connect 18 0 20 0;
#X connect 20 0 156 1;
#X connect 21 0 165 1;
#X connect 22 0 18 0;
#X connect 23 0 149 0;
#X connect 24 0 25 0;
#X connect 24 0 342 0;
#X connect 24 0 343 0;
#X connect 26 0 22 0;
#X connect 26 0 17 0;
#X connect 26 0 352 0;
#X connect 27 0 167 0;
#X connect 27 0 330 0;
#X connect 28 0 158 1;
#X connect 31 0 27 0;
#X connect 31 0 33 0;
#X connect 31 1 28 0;
#X connect 31 2 29 0;
#X connect 31 3 30 0;
#X connect 31 4 32 0;
#X connect 33 0 34 0;
#X connect 33 0 38 0;
#X connect 34 0 35 0;
#X connect 35 0 36 0;
#X connect 36 0 37 0;
#X connect 36 0 23 0;
#X connect 37 0 38 1;
#X connect 38 0 36 0;
#X connect 39 0 44 0;
#X connect 39 0 168 0;
#X connect 40 0 352 2;
#X connect 44 0 48 0;
#X connect 44 0 355 0;
#X connect 45 0 46 0;
#X connect 45 0 352 4;
#X connect 46 0 47 0;
#X connect 46 0 352 3;
#X connect 47 0 48 1;
#X connect 48 0 46 0;
#X connect 49 0 39 0;
#X connect 49 1 40 0;
#X connect 49 2 41 0;
#X connect 49 3 42 0;
#X connect 49 4 43 0;
#X connect 50 0 55 0;
#X connect 50 0 319 0;
#X connect 50 0 331 0;
#X connect 51 0 194 1;
#X connect 55 0 56 0;
#X connect 55 0 60 0;
#X connect 56 0 57 0;
#X connect 57 0 58 0;
#X connect 58 0 59 0;
#X connect 58 0 176 0;
#X connect 59 0 60 1;
#X connect 59 0 360 0;
#X connect 60 0 58 0;
#X connect 61 0 66 0;
#X connect 61 0 318 0;
#X connect 62 0 372 2;
#X connect 66 0 67 0;
#X connect 66 0 71 0;
#X connect 67 0 68 0;
#X connect 68 0 69 0;
#X connect 68 0 372 4;
#X connect 69 0 70 0;
#X connect 69 0 372 3;
#X connect 70 0 71 1;
#X connect 71 0 69 0;
#X connect 72 0 77 0;
#X connect 72 0 324 0;
#X connect 72 0 332 0;
#X connect 77 0 78 0;
#X connect 77 0 82 0;
#X connect 78 0 79 0;
#X connect 79 0 80 0;
#X connect 80 0 81 0;
#X connect 80 0 208 0;
#X connect 81 0 82 1;
#X connect 82 0 80 0;
#X connect 83 0 88 0;
#X connect 83 0 325 0;
#X connect 83 0 333 0;
#X connect 88 0 89 0;
#X connect 88 0 93 0;
#X connect 89 0 90 0;
#X connect 90 0 91 0;
#X connect 91 0 92 0;
#X connect 91 0 236 0;
#X connect 92 0 93 1;
#X connect 93 0 91 0;
#X connect 94 0 99 0;
#X connect 94 0 326 0;
#X connect 95 0 385 2;
#X connect 99 0 100 0;
#X connect 99 0 104 0;
#X connect 100 0 101 0;
#X connect 101 0 102 0;
#X connect 101 0 385 4;
#X connect 102 0 103 0;
#X connect 102 0 385 3;
#X connect 103 0 104 1;
#X connect 104 0 102 0;
#X connect 105 0 110 0;
#X connect 105 0 327 0;
#X connect 105 0 334 0;
#X connect 110 0 111 0;
#X connect 110 0 115 0;
#X connect 111 0 112 0;
#X connect 112 0 113 0;
#X connect 113 0 114 0;
#X connect 113 0 263 0;
#X connect 114 0 115 1;
#X connect 115 0 113 0;
#X connect 116 0 121 0;
#X connect 116 0 328 0;
#X connect 117 0 400 2;
#X connect 121 0 122 0;
#X connect 121 0 126 0;
#X connect 122 0 123 0;
#X connect 123 0 124 0;
#X connect 123 0 400 4;
#X connect 124 0 125 0;
#X connect 124 0 400 3;
#X connect 125 0 126 1;
#X connect 126 0 124 0;
#X connect 127 0 132 0;
#X connect 127 0 329 0;
#X connect 127 0 335 0;
#X connect 132 0 133 0;
#X connect 132 0 137 0;
#X connect 133 0 134 0;
#X connect 134 0 135 0;
#X connect 135 0 136 0;
#X connect 135 0 291 0;
#X connect 136 0 137 1;
#X connect 137 0 135 0;
#X connect 138 0 50 0;
#X connect 138 1 51 0;
#X connect 138 2 52 0;
#X connect 138 3 53 0;
#X connect 138 4 54 0;
#X connect 139 0 61 0;
#X connect 139 1 62 0;
#X connect 139 2 63 0;
#X connect 139 3 64 0;
#X connect 139 4 65 0;
#X connect 140 0 72 0;
#X connect 140 1 73 0;
#X connect 140 2 74 0;
#X connect 140 3 75 0;
#X connect 140 4 76 0;
#X connect 141 0 83 0;
#X connect 141 1 84 0;
#X connect 141 2 85 0;
#X connect 141 3 86 0;
#X connect 141 4 87 0;
#X connect 142 0 94 0;
#X connect 142 1 95 0;
#X connect 142 2 96 0;
#X connect 142 3 97 0;
#X connect 142 4 98 0;
#X connect 143 0 105 0;
#X connect 143 1 106 0;
#X connect 143 2 107 0;
#X connect 143 3 108 0;
#X connect 143 4 109 0;
#X connect 144 0 116 0;
#X connect 144 1 117 0;
#X connect 144 2 118 0;
#X connect 144 3 119 0;
#X connect 144 4 120 0;
#X connect 145 0 127 0;
#X connect 145 1 128 0;
#X connect 145 2 129 0;
#X connect 145 3 130 0;
#X connect 145 4 131 0;
#X connect 146 0 151 0;
#X connect 146 0 162 0;
#X connect 146 0 338 0;
#X connect 147 0 21 0;
#X connect 148 0 336 0;
#X connect 148 0 152 0;
#X connect 148 0 163 0;
#X connect 149 0 150 0;
#X connect 149 1 148 0;
#X connect 149 1 146 0;
#X connect 154 0 350 1;
#X connect 155 0 350 1;
#X connect 156 0 350 0;
#X connect 158 0 156 0;
#X connect 160 0 21 0;
#X connect 161 0 160 0;
#X connect 161 0 364 0;
#X connect 162 0 337 0;
#X connect 163 0 147 0;
#X connect 165 0 363 0;
#X connect 166 0 165 0;
#X connect 167 0 166 1;
#X connect 169 0 171 1;
#X connect 169 0 172 0;
#X connect 170 0 188 0;
#X connect 170 0 194 0;
#X connect 171 0 173 0;
#X connect 173 0 192 1;
#X connect 174 0 198 1;
#X connect 175 0 171 0;
#X connect 176 0 182 0;
#X connect 177 0 178 0;
#X connect 177 0 186 0;
#X connect 179 0 356 0;
#X connect 179 0 184 0;
#X connect 179 0 195 0;
#X connect 180 0 174 0;
#X connect 181 0 357 0;
#X connect 181 0 185 0;
#X connect 181 0 196 0;
#X connect 182 0 183 0;
#X connect 182 1 181 0;
#X connect 182 1 179 0;
#X connect 186 0 199 0;
#X connect 187 0 186 1;
#X connect 189 0 177 0;
#X connect 189 0 197 0;
#X connect 190 0 189 1;
#X connect 191 0 189 1;
#X connect 192 0 189 0;
#X connect 192 0 359 0;
#X connect 194 0 192 0;
#X connect 194 0 361 0;
#X connect 195 0 358 0;
#X connect 196 0 180 0;
#X connect 198 0 373 0;
#X connect 199 0 198 0;
#X connect 201 0 203 1;
#X connect 201 0 204 0;
#X connect 202 0 216 0;
#X connect 202 0 222 0;
#X connect 203 0 205 0;
#X connect 205 0 220 1;
#X connect 206 0 226 1;
#X connect 207 0 203 0;
#X connect 208 0 212 0;
#X connect 209 0 369 0;
#X connect 209 0 214 0;
#X connect 209 0 223 0;
#X connect 210 0 206 0;
#X connect 211 0 370 0;
#X connect 211 0 215 0;
#X connect 211 0 224 0;
#X connect 212 0 213 0;
#X connect 212 1 211 0;
#X connect 212 1 209 0;
#X connect 217 0 225 0;
#X connect 218 0 217 1;
#X connect 219 0 217 1;
#X connect 220 0 217 0;
#X connect 222 0 220 0;
#X connect 223 0 371 0;
#X connect 224 0 210 0;
#X connect 225 0 368 0;
#X connect 226 0 164 0;
#X connect 227 0 226 0;
#X connect 229 0 231 1;
#X connect 229 0 232 0;
#X connect 230 0 244 0;
#X connect 230 0 250 0;
#X connect 231 0 233 0;
#X connect 233 0 248 1;
#X connect 234 0 253 1;
#X connect 235 0 231 0;
#X connect 235 0 230 0;
#X connect 236 0 240 0;
#X connect 237 0 380 0;
#X connect 237 0 242 0;
#X connect 237 0 251 0;
#X connect 238 0 234 0;
#X connect 239 0 381 0;
#X connect 239 0 243 0;
#X connect 239 0 252 0;
#X connect 240 0 241 0;
#X connect 240 1 239 0;
#X connect 240 1 237 0;
#X connect 245 0 387 0;
#X connect 246 0 245 1;
#X connect 247 0 245 1;
#X connect 248 0 245 0;
#X connect 250 0 248 0;
#X connect 251 0 382 0;
#X connect 252 0 238 0;
#X connect 253 0 164 0;
#X connect 254 0 253 0;
#X connect 256 0 258 1;
#X connect 256 0 259 0;
#X connect 257 0 271 0;
#X connect 257 0 277 0;
#X connect 258 0 260 0;
#X connect 260 0 275 1;
#X connect 261 0 281 1;
#X connect 262 0 258 0;
#X connect 262 0 257 0;
#X connect 263 0 267 0;
#X connect 264 0 395 0;
#X connect 264 0 269 0;
#X connect 264 0 278 0;
#X connect 265 0 261 0;
#X connect 266 0 396 0;
#X connect 266 0 270 0;
#X connect 266 0 279 0;
#X connect 267 0 268 0;
#X connect 267 1 266 0;
#X connect 267 1 264 0;
#X connect 272 0 280 0;
#X connect 273 0 272 1;
#X connect 274 0 272 1;
#X connect 275 0 272 0;
#X connect 277 0 275 0;
#X connect 278 0 397 0;
#X connect 279 0 265 0;
#X connect 280 0 393 0;
#X connect 281 0 164 0;
#X connect 282 0 281 0;
#X connect 284 0 286 1;
#X connect 284 0 287 0;
#X connect 285 0 303 0;
#X connect 285 0 309 0;
#X connect 286 0 288 0;
#X connect 288 0 307 1;
#X connect 289 0 315 1;
#X connect 290 0 286 0;
#X connect 291 0 297 0;
#X connect 292 0 293 0;
#X connect 292 0 301 0;
#X connect 294 0 316 0;
#X connect 294 0 299 0;
#X connect 294 0 310 0;
#X connect 295 0 289 0;
#X connect 296 0 313 0;
#X connect 296 0 300 0;
#X connect 296 0 311 0;
#X connect 297 0 298 0;
#X connect 297 1 296 0;
#X connect 297 1 294 0;
#X connect 301 0 317 0;
#X connect 302 0 301 1;
#X connect 304 0 292 0;
#X connect 304 0 312 0;
#X connect 305 0 304 1;
#X connect 306 0 304 1;
#X connect 307 0 304 0;
#X connect 309 0 307 0;
#X connect 310 0 314 0;
#X connect 311 0 295 0;
#X connect 313 0 314 0;
#X connect 314 0 289 0;
#X connect 315 0 164 0;
#X connect 316 0 295 0;
#X connect 317 0 315 0;
#X connect 319 0 199 1;
#X connect 320 0 174 0;
#X connect 321 0 320 0;
#X connect 321 0 374 0;
#X connect 322 0 206 0;
#X connect 322 0 234 0;
#X connect 323 0 322 0;
#X connect 324 0 227 1;
#X connect 325 0 254 1;
#X connect 327 0 282 1;
#X connect 329 0 317 1;
#X connect 330 0 16 0;
#X connect 331 0 169 0;
#X connect 332 0 201 0;
#X connect 333 0 229 0;
#X connect 334 0 256 0;
#X connect 335 0 284 0;
#X connect 336 0 337 0;
#X connect 337 0 21 0;
#X connect 338 0 147 0;
#X connect 339 0 340 0;
#X connect 340 0 24 0;
#X connect 340 0 341 0;
#X connect 342 0 343 1;
#X connect 343 0 166 0;
#X connect 344 0 145 0;
#X connect 345 0 175 0;
#X connect 345 0 170 0;
#X connect 345 0 372 0;
#X connect 346 0 207 0;
#X connect 346 0 202 0;
#X connect 347 0 235 0;
#X connect 347 0 385 0;
#X connect 348 0 262 0;
#X connect 348 0 400 0;
#X connect 350 0 339 0;
#X connect 351 0 49 0;
#X connect 352 0 353 0;
#X connect 352 1 354 0;
#X connect 355 0 45 0;
#X connect 356 0 180 0;
#X connect 357 0 358 0;
#X connect 358 0 174 0;
#X connect 363 0 362 0;
#X connect 364 0 363 1;
#X connect 365 0 363 1;
#X connect 368 0 227 0;
#X connect 369 0 210 0;
#X connect 370 0 371 0;
#X connect 371 0 206 0;
#X connect 372 0 366 0;
#X connect 372 1 367 0;
#X connect 373 0 164 0;
#X connect 374 0 373 1;
#X connect 375 0 373 1;
#X connect 376 0 31 0;
#X connect 377 0 139 0;
#X connect 378 0 138 0;
#X connect 379 0 254 0;
#X connect 380 0 238 0;
#X connect 381 0 382 0;
#X connect 382 0 234 0;
#X connect 385 0 383 0;
#X connect 385 1 384 0;
#X connect 386 0 142 0;
#X connect 387 0 388 0;
#X connect 388 0 389 0;
#X connect 389 0 379 0;
#X connect 390 0 140 0;
#X connect 391 0 141 0;
#X connect 392 0 282 0;
#X connect 393 0 394 0;
#X connect 394 0 392 0;
#X connect 395 0 265 0;
#X connect 396 0 397 0;
#X connect 397 0 261 0;
#X connect 400 0 398 0;
#X connect 400 1 399 0;
#X connect 401 0 143 0;
#X connect 402 0 144 0;
#X restore 110 65 pd play_human;
#X obj 820 69 metro 0.25 70 permin;
#N canvas 333 88 867 745 pluginEffectChain 0;
#X obj 168 220 vstplugin~;
#X obj 636 145 *~;
#X msg 305 151 open -e ValhallaSupermassive.vst3;
#X obj 723 23 bng 15 250 50 0 empty empty empty 17 7 0 10 #fcfcfc #000000 #000000;
#X obj 305 127 loadbang;
#X msg 25 91 param_set 0 \$1;
#X obj 28 25 hsl 128 15 0 1 0 0 empty empty empty -2 -8 0 10 #fcfcfc #000000 #000000 0 1;
#X msg 723 43 1 1000;
#X obj 812 47 del 1000;
#X obj 636 121 osc~ 1000;
#X obj 636 169 *~ 0.2;
#X obj 723 114 vline~;
#X obj 812 71 0 1000;
#X text 14 220 ValhallaSupermassive;
#X obj 168 272 vstplugin~;
#X msg 320 177 open -e LABS.vst3;
#X obj 728 186 vsl 15 64 0 0.2 0 0 empty empty empty 0 -9 0 10 #fcfcfc #000000 #000000 0 1;
#X msg 351 205 open -e RC-20_Retro_Color.vst3;
#X obj 169 31 inlet~;
#X obj 167 353 outlet~;
#X obj 240 354 outlet~;
#X obj 303 96 bng 15 250 50 0 empty empty empty 17 7 0 10 #fcfcfc #000000 #000000;
#X obj 306 28 inlet;
#X obj 450 28 inlet;
#X text 176 10 sound;
#X text 230 6 dry/wet Effect 1;
#X text 372 6 dry/wet Effect 2;
#X floatatom 306 54 5 0 0 0 - - - 0;
#X floatatom 450 54 5 0 0 0 - - - 0;
#X msg 24 137 param_set 0 \$1;
#X obj 415 259 vsl 15 64 0 1 0 0 empty empty empty 0 -9 0 10 #fcfcfc #000000 #000000 0 1;
#X msg 415 337 param_set 6 \$1;
#X text 528 338 feedback;
#X msg 415 365 param_set 7 \$1;
#X text 528 366 density;
#X msg 415 393 param_set 8 \$1;
#X text 528 394 width;
#X msg 415 421 param_set 9 \$1;
#X text 528 422 EQ Low;
#X msg 415 448 param_set 10 \$1;
#X text 528 449 EQ High;
#X msg 415 475 param_set 11 \$1;
#X text 528 476 MOD Rate;
#X msg 415 503 param_set 12 \$1;
#X text 528 504 MOD Depth;
#X text 41 607 ValhallaSupermassive Preset: - ECHOES/Guitar/Palm Mute (LEAD), f 62;
#X text 77 648 RC-20_Retro_Color Preset: - Lush & Crunch Guitar 2 (LEAD) Hotline Phase - VHS;
#X obj 58 475 lp;
#X connect 0 0 14 0;
#X connect 0 1 14 1;
#X connect 1 0 10 0;
#X connect 2 0 14 0;
#X connect 3 0 7 0;
#X connect 3 0 8 0;
#X connect 4 0 2 0;
#X connect 4 0 15 0;
#X connect 4 0 17 0;
#X connect 5 0 0 0;
#X connect 6 0 5 0;
#X connect 7 0 11 0;
#X connect 8 0 12 0;
#X connect 9 0 1 0;
#X connect 11 0 1 1;
#X connect 12 0 11 0;
#X connect 14 0 19 0;
#X connect 14 1 20 0;
#X connect 16 0 10 1;
#X connect 17 0 0 0;
#X connect 18 0 0 0;
#X connect 18 0 0 1;
#X connect 21 0 2 0;
#X connect 21 0 15 0;
#X connect 21 0 17 0;
#X connect 22 0 27 0;
#X connect 23 0 28 0;
#X connect 27 0 5 0;
#X connect 28 0 29 0;
#X connect 29 0 14 0;
#X connect 30 0 31 0;
#X connect 30 0 33 0;
#X connect 30 0 35 0;
#X connect 30 0 37 0;
#X connect 30 0 39 0;
#X connect 30 0 41 0;
#X connect 30 0 43 0;
#X connect 31 0 14 0;
#X connect 33 0 14 0;
#X connect 35 0 14 0;
#X connect 37 0 14 0;
#X connect 39 0 14 0;
#X connect 41 0 14 0;
#X connect 43 0 14 0;
#X restore 74 212 pd pluginEffectChain;
#X obj 142 130 vsl 15 64 0 1 0 0 empty empty empty 0 -9 0 10 #fcfcfc #000000 #000000 0 1;
#X obj 211 130 vsl 15 64 0 1 0 0 empty empty empty 0 -9 0 10 #fcfcfc #000000 #000000 0 1;
#X obj 142 105 tgl 15 0 empty empty empty 17 7 0 10 #fcfcfc #000000 #000000 0 1;
#X obj 211 104 tgl 15 0 empty empty empty 17 7 0 10 #fcfcfc #000000 #000000 0 1;
#X obj 73 259 throw~ left;
#X obj 211 259 throw~ right;
#X obj 73 128 *~;
#X obj 18 104 vsl 19 81 0 1 0 0 empty empty empty 0 -9 0 12 #fcfcfc #000000 #000000 0 1;
#X obj 18 66 tgl 19 0 empty empty empty 0 -10 0 12 #fcfcfc #000000 #000000 0 1;
#X obj 4 30 loadbang;
#X obj 102 751 *~ 0.1;
#X obj 643 337 bng 19 250 50 0 empty empty empty 0 -10 0 12 #fcfcfc #000000 #000000;
#X obj 683 337 bng 19 250 50 0 empty empty empty 0 -10 0 12 #fcfcfc #000000 #000000;
#X obj 723 337 bng 19 250 50 0 empty empty empty 0 -10 0 12 #fcfcfc #000000 #000000;
#X obj 763 337 bng 19 250 50 0 empty empty empty 0 -10 0 12 #fcfcfc #000000 #000000;
#X obj 803 337 bng 19 250 50 0 empty empty empty 0 -10 0 12 #fcfcfc #000000 #000000;
#X obj 443 309 r h1;
#X obj 443 337 bng 19 250 50 0 empty empty empty 0 -10 0 12 #fcfcfc #000000 #000000;
#X obj 483 337 bng 19 250 50 0 empty empty empty 0 -10 0 12 #fcfcfc #000000 #000000;
#X obj 523 337 bng 19 250 50 0 empty empty empty 0 -10 0 12 #fcfcfc #000000 #000000;
#X obj 563 337 bng 19 250 50 0 empty empty empty 0 -10 0 12 #fcfcfc #000000 #000000;
#X obj 603 337 bng 19 250 50 0 empty empty empty 0 -10 0 12 #fcfcfc #000000 #000000;
#X obj 483 309 r h2;
#X obj 523 309 r h3;
#X obj 563 309 r h4;
#X obj 603 309 r h5;
#X obj 643 309 r h6;
#X obj 683 309 r h7;
#X obj 723 309 r h8;
#X obj 763 309 r h9;
#X obj 803 309 r h10;
#X msg 443 440 9;
#X obj 370 407 del 1000;
#X msg 370 442 10;
#X msg 605 439 8;
#X msg 704 440 7;
#X msg 794 437 6;
#X obj 443 470 - 1;
#X msg 1425 88 48 50 53 55 57 58 60 62 65 67 69 70;
#X obj 1425 58 loadbang;
#X msg 1509 29 60 62 65 67 69 70 72 74 77 79 81 82 84 86 89 91 93 94;
#N canvas 333 88 867 745 pluginEffectChain 0;
#X obj 168 220 vstplugin~;
#X obj 636 145 *~;
#X msg 305 151 open -e ValhallaSupermassive.vst3;
#X obj 723 23 bng 15 250 50 0 empty empty empty 17 7 0 10 #fcfcfc #000000 #000000;
#X obj 305 127 loadbang;
#X msg 25 91 param_set 0 \$1;
#X obj 28 25 hsl 128 15 0 1 0 0 empty empty empty -2 -8 0 10 #fcfcfc #000000 #000000 0 1;
#X msg 723 43 1 1000;
#X obj 812 47 del 1000;
#X obj 636 121 osc~ 1000;
#X obj 636 169 *~ 0.2;
#X obj 723 114 vline~;
#X obj 812 71 0 1000;
#X text 14 220 ValhallaSupermassive;
#X obj 168 272 vstplugin~;
#X msg 320 177 open -e LABS.vst3;
#X obj 728 186 vsl 15 64 0 0.2 0 0 empty empty empty 0 -9 0 10 #fcfcfc #000000 #000000 0 1;
#X msg 351 205 open -e RC-20_Retro_Color.vst3;
#X obj 169 31 inlet~;
#X obj 167 353 outlet~;
#X obj 240 354 outlet~;
#X obj 303 96 bng 15 250 50 0 empty empty empty 17 7 0 10 #fcfcfc #000000 #000000;
#X obj 306 28 inlet;
#X obj 450 28 inlet;
#X text 176 10 sound;
#X text 230 6 dry/wet Effect 1;
#X text 372 6 dry/wet Effect 2;
#X floatatom 306 54 5 0 0 0 - - - 0;
#X floatatom 450 54 5 0 0 0 - - - 0;
#X msg 24 137 param_set 0 \$1;
#X obj 415 259 vsl 15 64 0 1 0 0 empty empty empty 0 -9 0 10 #fcfcfc #000000 #000000 0 1;
#X msg 415 337 param_set 6 \$1;
#X text 528 338 feedback;
#X msg 415 365 param_set 7 \$1;
#X text 528 366 density;
#X msg 415 393 param_set 8 \$1;
#X text 528 394 width;
#X msg 415 421 param_set 9 \$1;
#X text 528 422 EQ Low;
#X msg 415 448 param_set 10 \$1;
#X text 528 449 EQ High;
#X msg 415 475 param_set 11 \$1;
#X text 528 476 MOD Rate;
#X msg 415 503 param_set 12 \$1;
#X text 528 504 MOD Depth;
#X text 41 607 ValhallaSupermassive Preset: - ECHOES/Guitar/Palm Mute (LEAD), f 62;
#X text 77 648 RC-20_Retro_Color Preset: - Lush & Crunch Guitar 2 (LEAD) Hotline Phase - VHS;
#X connect 0 0 14 0;
#X connect 0 1 14 1;
#X connect 1 0 10 0;
#X connect 2 0 14 0;
#X connect 3 0 7 0;
#X connect 3 0 8 0;
#X connect 4 0 2 0;
#X connect 4 0 15 0;
#X connect 4 0 17 0;
#X connect 5 0 0 0;
#X connect 6 0 5 0;
#X connect 7 0 11 0;
#X connect 8 0 12 0;
#X connect 9 0 1 0;
#X connect 11 0 1 1;
#X connect 12 0 11 0;
#X connect 14 0 19 0;
#X connect 14 1 20 0;
#X connect 16 0 10 1;
#X connect 17 0 0 0;
#X connect 18 0 0 0;
#X connect 18 0 0 1;
#X connect 21 0 2 0;
#X connect 21 0 15 0;
#X connect 21 0 17 0;
#X connect 22 0 27 0;
#X connect 23 0 28 0;
#X connect 27 0 5 0;
#X connect 28 0 29 0;
#X connect 29 0 14 0;
#X connect 30 0 31 0;
#X connect 30 0 33 0;
#X connect 30 0 35 0;
#X connect 30 0 37 0;
#X connect 30 0 39 0;
#X connect 30 0 41 0;
#X connect 30 0 43 0;
#X connect 31 0 14 0;
#X connect 33 0 14 0;
#X connect 35 0 14 0;
#X connect 37 0 14 0;
#X connect 39 0 14 0;
#X connect 41 0 14 0;
#X connect 43 0 14 0;
#X restore 385 208 pd pluginEffectChain;
#X obj 453 126 vsl 15 64 0 1 0 0 empty empty empty 0 -9 0 10 #fcfcfc #000000 #000000 0 1;
#X obj 522 126 vsl 15 64 0 1 0 0 empty empty empty 0 -9 0 10 #fcfcfc #000000 #000000 0 1;
#X obj 453 101 tgl 15 0 empty empty empty 17 7 0 10 #fcfcfc #000000 #000000 0 1;
#X obj 522 100 tgl 15 0 empty empty empty 17 7 0 10 #fcfcfc #000000 #000000 0 1;
#X obj 384 255 throw~ left;
#X obj 522 255 throw~ right;
#X obj 384 124 *~;
#X obj 329 100 vsl 19 81 0 1 0 0 empty empty empty 0 -9 0 12 #fcfcfc #000000 #000000 0 1;
#X obj 329 62 tgl 19 0 empty empty empty 0 -10 0 12 #fcfcfc #000000 #000000 0 1;
#X msg 1183 27 60 62 64 65 67 69 71 72 74 76 77 79 81 83 84;
#X connect 2 0 40 1;
#X connect 2 0 44 0;
#X connect 3 0 61 0;
#X connect 3 1 62 0;
#X connect 4 0 83 1;
#X connect 6 0 31 0;
#X connect 6 0 71 0;
#X connect 7 0 71 0;
#X connect 8 0 7 0;
#X connect 9 0 10 0;
#X connect 9 0 11 0;
#X connect 9 0 41 0;
#X connect 10 0 9 1;
#X connect 11 0 12 0;
#X connect 12 0 13 0;
#X connect 13 0 49 0;
#X connect 14 0 15 0;
#X connect 14 1 16 0;
#X connect 14 2 17 0;
#X connect 14 3 18 0;
#X connect 14 4 19 0;
#X connect 14 5 20 0;
#X connect 14 6 21 0;
#X connect 14 7 22 0;
#X connect 14 8 23 0;
#X connect 14 9 24 0;
#X connect 14 10 25 0;
#X connect 14 11 26 0;
#X connect 14 12 27 0;
#X connect 14 13 28 0;
#X connect 14 14 29 0;
#X connect 14 15 30 0;
#X connect 31 0 9 0;
#X connect 34 0 69 0;
#X connect 35 0 52 0;
#X connect 36 0 3 1;
#X connect 37 0 3 2;
#X connect 39 0 34 0;
#X connect 40 0 51 0;
#X connect 42 0 36 0;
#X connect 43 0 37 0;
#X connect 45 0 47 1;
#X connect 45 0 48 0;
#X connect 46 0 47 0;
#X connect 47 0 50 0;
#X connect 49 0 14 0;
#X connect 50 0 49 1;
#X connect 51 0 39 1;
#X connect 52 0 39 0;
#X connect 55 0 32 0;
#X connect 56 0 32 1;
#X connect 57 0 56 1;
#X connect 57 0 55 1;
#X connect 58 0 57 0;
#X connect 59 0 65 0;
#X connect 59 0 42 0;
#X connect 59 0 43 0;
#X connect 60 0 40 0;
#X connect 63 0 55 0;
#X connect 64 0 56 0;
#X connect 65 0 4 0;
#X connect 68 0 83 0;
#X connect 69 0 68 0;
#X connect 70 0 79 0;
#X connect 70 1 121 0;
#X connect 71 0 9 0;
#X connect 71 0 46 0;
#X connect 71 0 52 0;
#X connect 71 0 60 0;
#X connect 71 0 66 0;
#X connect 72 0 77 0;
#X connect 72 1 78 0;
#X connect 73 0 72 1;
#X connect 74 0 72 2;
#X connect 75 0 73 0;
#X connect 76 0 74 0;
#X connect 79 0 72 0;
#X connect 80 0 79 1;
#X connect 81 0 80 0;
#X connect 82 0 81 0;
#X connect 82 0 123 0;
#X connect 83 0 3 0;
#X connect 84 0 105 0;
#X connect 84 0 107 0;
#X connect 85 0 105 0;
#X connect 85 0 108 0;
#X connect 86 0 105 0;
#X connect 86 0 108 0;
#X connect 87 0 105 0;
#X connect 87 0 109 0;
#X connect 88 0 105 0;
#X connect 88 0 109 0;
#X connect 89 0 90 0;
#X connect 90 0 104 0;
#X connect 90 0 105 0;
#X connect 91 0 105 0;
#X connect 91 0 104 0;
#X connect 92 0 105 0;
#X connect 92 0 104 0;
#X connect 93 0 105 0;
#X connect 93 0 107 0;
#X connect 94 0 105 0;
#X connect 94 0 107 0;
#X connect 95 0 91 0;
#X connect 96 0 92 0;
#X connect 97 0 93 0;
#X connect 98 0 94 0;
#X connect 99 0 84 0;
#X connect 100 0 85 0;
#X connect 101 0 86 0;
#X connect 102 0 87 0;
#X connect 103 0 88 0;
#X connect 104 0 110 0;
#X connect 105 0 106 0;
#X connect 110 0 2 0;
#X connect 112 0 111 0;
#X connect 112 0 113 0;
#X connect 113 0 33 0;
#X connect 114 0 119 0;
#X connect 114 1 120 0;
#X connect 115 0 114 1;
#X connect 116 0 114 2;
#X connect 117 0 115 0;
#X connect 118 0 116 0;
#X connect 121 0 114 0;
#X connect 122 0 121 1;
#X connect 123 0 122 0;
#X connect 124 0 33 0;
