#N canvas 1916 1022 1920 976 12;
#X obj 73 11 OSC_server;
#X text 56 486 pitch;
#X obj 266 442 hsl 64 15 0 10 0 0 empty empty empty -2 -8 0 10 #fcfcfc #000000 #000000 0 1;
#N canvas 526 99 867 745 pluginEffectChain 0;
#X obj 168 220 vstplugin~;
#X obj 636 145 *~;
#X msg 305 151 open -e ValhallaSupermassive.vst3;
#X obj 723 23 bng 15 250 50 0 empty empty empty 17 7 0 10 #fcfcfc #000000 #000000;
#X obj 305 127 loadbang;
#X msg 25 91 param_set 0 \$1;
#X obj 28 25 hsl 128 15 0 1 0 0 empty empty empty -2 -8 0 10 #fcfcfc #000000 #000000 0 1;
#X msg 723 43 1 1000;
#X obj 812 47 del 1000;
#X obj 636 121 osc~ 1000;
#X obj 636 169 *~ 0.2;
#X obj 723 114 vline~;
#X obj 812 71 0 1000;
#X text 14 220 ValhallaSupermassive;
#X obj 168 272 vstplugin~;
#X msg 320 177 open -e LABS.vst3;
#X obj 728 186 vsl 15 64 0 0.2 0 0 empty empty empty 0 -9 0 10 #fcfcfc #000000 #000000 0 1;
#X msg 351 205 open -e RC-20_Retro_Color.vst3;
#X obj 169 31 inlet~;
#X obj 167 353 outlet~;
#X obj 240 354 outlet~;
#X obj 303 96 bng 15 250 50 0 empty empty empty 17 7 0 10 #fcfcfc #000000 #000000;
#X obj 306 28 inlet;
#X obj 450 28 inlet;
#X text 176 10 sound;
#X text 230 6 dry/wet Effect 1;
#X text 372 6 dry/wet Effect 2;
#X floatatom 306 54 5 0 0 0 - - - 0;
#X floatatom 450 54 5 0 0 0 - - - 0;
#X msg 24 137 param_set 0 \$1;
#X obj 415 259 vsl 15 64 0 1 0 0 empty empty empty 0 -9 0 10 #fcfcfc #000000 #000000 0 1;
#X msg 415 337 param_set 6 \$1;
#X text 528 338 feedback;
#X msg 415 365 param_set 7 \$1;
#X text 528 366 density;
#X msg 415 393 param_set 8 \$1;
#X text 528 394 width;
#X msg 415 421 param_set 9 \$1;
#X text 528 422 EQ Low;
#X msg 415 448 param_set 10 \$1;
#X text 528 449 EQ High;
#X msg 415 475 param_set 11 \$1;
#X text 528 476 MOD Rate;
#X msg 415 503 param_set 12 \$1;
#X text 528 504 MOD Depth;
#X text 20 654 RC-20_Retro_Color Preset: - Magnitude Transition 3 (PAD);
#X text 41 607 ValhallaSupermassive Preset: - SFX/Nebulae/Planetarium (PAD);
#X connect 0 0 14 0;
#X connect 0 1 14 1;
#X connect 1 0 10 0;
#X connect 2 0 14 0;
#X connect 3 0 7 0;
#X connect 3 0 8 0;
#X connect 4 0 2 0;
#X connect 4 0 15 0;
#X connect 4 0 17 0;
#X connect 5 0 0 0;
#X connect 6 0 5 0;
#X connect 7 0 11 0;
#X connect 8 0 12 0;
#X connect 9 0 1 0;
#X connect 11 0 1 1;
#X connect 12 0 11 0;
#X connect 14 0 19 0;
#X connect 14 1 20 0;
#X connect 16 0 10 1;
#X connect 17 0 0 0;
#X connect 18 0 0 0;
#X connect 18 0 0 1;
#X connect 21 0 2 0;
#X connect 21 0 15 0;
#X connect 21 0 17 0;
#X connect 22 0 27 0;
#X connect 23 0 28 0;
#X connect 27 0 5 0;
#X connect 28 0 29 0;
#X connect 29 0 14 0;
#X connect 30 0 31 0;
#X connect 30 0 33 0;
#X connect 30 0 35 0;
#X connect 30 0 37 0;
#X connect 30 0 39 0;
#X connect 30 0 41 0;
#X connect 30 0 43 0;
#X connect 31 0 14 0;
#X connect 33 0 14 0;
#X connect 35 0 14 0;
#X connect 37 0 14 0;
#X connect 39 0 14 0;
#X connect 41 0 14 0;
#X connect 43 0 14 0;
#X restore 102 874 pd pluginEffectChain;
#X obj 65 684 vsl 15 64 0 0.5 0 0 empty empty empty 0 -9 0 10 #fcfcfc #000000 #000000 0 1;
#N canvas 0 50 450 250 (subpatch) 0;
#X array \$0-sus-scale 18 float 3;
#A 0 60 62 65 67 69 70 72 74 77 79 81 82 84 86 89 91 93 94;
#X coords 0 127 18 0 200 127 1 0 0;
#X restore 1689 63 graph;
#X msg 1509 18 60 62 65 67 69 70 72 74 77 79 81 82 84 86 89 91 93 94;
#X obj 820 41 tgl 15 0 empty empty empty 17 7 0 10 #fcfcfc #000000 #000000 0 1;
#X msg 877 35 tempo \$1 permin;
#X floatatom 877 10 5 0 200 0 BPM - - 0;
#X obj 820 95 f;
#X obj 852 95 + 1;
#X obj 820 121 % 16;
#X floatatom 820 147 5 0 0 0 - - - 0;
#X obj 820 179 hradio 15 1 0 16 empty empty empty 0 -8 0 10 #fcfcfc #000000 #000000 0;
#X obj 820 229 sel 0 1 2 3 4 5 6 7 8 9 10 11 12 13 14 15, f 47;
#X obj 820 259 s one;
#X obj 841 285 s two;
#X obj 860 311 s three;
#X obj 881 337 s four;
#X obj 901 259 s five;
#X obj 922 285 s six;
#X obj 942 311 s seven;
#X obj 962 337 s eight;
#X obj 983 259 s nine;
#X obj 1004 285 s ten;
#X obj 1023 311 s eleven;
#X obj 1044 337 s twelve;
#X obj 1064 256 s thirteen;
#X obj 1085 282 s fourteen;
#X obj 1105 308 s fifteen;
#X obj 1125 334 s sixteen;
#X msg 785 68 0;
#X obj 1397 476 r kick;
#X obj 1397 507 bng 15 250 50 0 empty empty empty 17 7 0 10 #fcfcfc #000000 #000000;
#X obj 1397 649 readsf~;
#X obj 1665 341 dac~;
#X msg 1397 611 open kick.wav \, 1;
#N canvas -1928 -8 1536 773 drums 0;
#X obj 61 51 r one;
#X obj 61 90 bng 15 250 50 0 empty empty empty 17 7 0 10 #fcfcfc #000000 #000000;
#X obj 61 123 spigot;
#X obj 100 82 tgl 30 0 empty empty empty 17 7 0 10 #fcfcfc #000000 #000000 0 1;
#X obj 134 91 bng 15 250 50 0 empty empty empty 17 7 0 10 #fcfcfc #000000 #000000;
#X obj 134 124 spigot;
#X obj 173 83 tgl 30 0 empty empty empty 17 7 0 10 #fcfcfc #000000 #000000 0 1;
#X obj 208 91 bng 15 250 50 0 empty empty empty 17 7 0 10 #fcfcfc #000000 #000000;
#X obj 208 124 spigot;
#X obj 247 83 tgl 30 0 empty empty empty 17 7 0 10 #fcfcfc #000000 #000000 0 1;
#X obj 282 91 bng 15 250 50 0 empty empty empty 17 7 0 10 #fcfcfc #000000 #000000;
#X obj 282 124 spigot;
#X obj 321 83 tgl 30 0 empty empty empty 17 7 0 10 #fcfcfc #000000 #000000 0 1;
#X obj 356 91 bng 15 250 50 0 empty empty empty 17 7 0 10 #fcfcfc #000000 #000000;
#X obj 356 124 spigot;
#X obj 395 83 tgl 30 0 empty empty empty 17 7 0 10 #fcfcfc #000000 #000000 0 1;
#X obj 430 90 bng 15 250 50 0 empty empty empty 17 7 0 10 #fcfcfc #000000 #000000;
#X obj 430 123 spigot;
#X obj 469 82 tgl 30 0 empty empty empty 17 7 0 10 #fcfcfc #000000 #000000 0 1;
#X obj 503 90 bng 15 250 50 0 empty empty empty 17 7 0 10 #fcfcfc #000000 #000000;
#X obj 503 123 spigot;
#X obj 542 82 tgl 30 0 empty empty empty 17 7 0 10 #fcfcfc #000000 #000000 0 1;
#X obj 578 88 bng 15 250 50 0 empty empty empty 17 7 0 10 #fcfcfc #000000 #000000;
#X obj 578 121 spigot;
#X obj 617 80 tgl 30 0 empty empty empty 17 7 0 10 #fcfcfc #000000 #000000 0 1;
#X obj 651 88 bng 15 250 50 0 empty empty empty 17 7 0 10 #fcfcfc #000000 #000000;
#X obj 651 121 spigot;
#X obj 690 80 tgl 30 0 empty empty empty 17 7 0 10 #fcfcfc #000000 #000000 0 1;
#X obj 724 89 bng 15 250 50 0 empty empty empty 17 7 0 10 #fcfcfc #000000 #000000;
#X obj 724 122 spigot;
#X obj 763 81 tgl 30 0 empty empty empty 17 7 0 10 #fcfcfc #000000 #000000 0 1;
#X obj 798 89 bng 15 250 50 0 empty empty empty 17 7 0 10 #fcfcfc #000000 #000000;
#X obj 798 122 spigot;
#X obj 837 81 tgl 30 0 empty empty empty 17 7 0 10 #fcfcfc #000000 #000000 0 1;
#X obj 872 89 bng 15 250 50 0 empty empty empty 17 7 0 10 #fcfcfc #000000 #000000;
#X obj 872 122 spigot;
#X obj 911 81 tgl 30 0 empty empty empty 17 7 0 10 #fcfcfc #000000 #000000 0 1;
#X obj 946 89 bng 15 250 50 0 empty empty empty 17 7 0 10 #fcfcfc #000000 #000000;
#X obj 946 122 spigot;
#X obj 985 81 tgl 30 0 empty empty empty 17 7 0 10 #fcfcfc #000000 #000000 0 1;
#X obj 1026 88 bng 15 250 50 0 empty empty empty 17 7 0 10 #fcfcfc #000000 #000000;
#X obj 1026 121 spigot;
#X obj 1065 80 tgl 30 0 empty empty empty 17 7 0 10 #fcfcfc #000000 #000000 0 1;
#X obj 1106 88 bng 15 250 50 0 empty empty empty 17 7 0 10 #fcfcfc #000000 #000000;
#X obj 1106 121 spigot;
#X obj 1145 80 tgl 30 0 empty empty empty 17 7 0 10 #fcfcfc #000000 #000000 0 1;
#X obj 1184 87 bng 15 250 50 0 empty empty empty 17 7 0 10 #fcfcfc #000000 #000000;
#X obj 1184 120 spigot;
#X obj 1223 79 tgl 30 0 empty empty empty 17 7 0 10 #fcfcfc #000000 #000000 0 1;
#X obj 134 52 r two;
#X obj 208 52 r three;
#X obj 282 52 r four;
#X obj 356 52 r five;
#X obj 430 51 r six;
#X obj 503 51 r seven;
#X obj 578 50 r eight;
#X obj 651 49 r nine;
#X obj 724 50 r ten;
#X obj 798 50 r eleven;
#X obj 872 50 r twelve;
#X obj 946 50 r thirteen;
#X obj 1026 49 r fourteen;
#X obj 1106 49 r fifteen;
#X obj 1184 48 r sixteen;
#X obj 510 172 s kick;
#X obj 61 213 bng 15 250 50 0 empty empty empty 17 7 0 10 #fcfcfc #000000 #000000;
#X obj 61 246 spigot;
#X obj 100 203 tgl 30 0 empty empty empty 17 7 0 10 #fcfcfc #000000 #000000 0 1;
#X obj 134 214 bng 15 250 50 0 empty empty empty 17 7 0 10 #fcfcfc #000000 #000000;
#X obj 134 247 spigot;
#X obj 173 203 tgl 30 0 empty empty empty 17 7 0 10 #fcfcfc #000000 #000000 0 1;
#X obj 208 211 bng 15 250 50 0 empty empty empty 17 7 0 10 #fcfcfc #000000 #000000;
#X obj 208 247 spigot;
#X obj 247 203 tgl 30 0 empty empty empty 17 7 0 10 #fcfcfc #000000 #000000 0 1;
#X obj 282 211 bng 15 250 50 0 empty empty empty 17 7 0 10 #fcfcfc #000000 #000000;
#X obj 282 247 spigot;
#X obj 321 203 tgl 30 0 empty empty empty 17 7 0 10 #fcfcfc #000000 #000000 0 1;
#X obj 356 214 bng 15 250 50 0 empty empty empty 17 7 0 10 #fcfcfc #000000 #000000;
#X obj 356 247 spigot;
#X obj 395 203 tgl 30 0 empty empty empty 17 7 0 10 #fcfcfc #000000 #000000 0 1;
#X obj 430 213 bng 15 250 50 0 empty empty empty 17 7 0 10 #fcfcfc #000000 #000000;
#X obj 430 246 spigot;
#X obj 469 203 tgl 30 0 empty empty empty 17 7 0 10 #fcfcfc #000000 #000000 0 1;
#X obj 503 213 bng 15 250 50 0 empty empty empty 17 7 0 10 #fcfcfc #000000 #000000;
#X obj 503 246 spigot;
#X obj 542 203 tgl 30 0 empty empty empty 17 7 0 10 #fcfcfc #000000 #000000 0 1;
#X obj 578 211 bng 15 250 50 0 empty empty empty 17 7 0 10 #fcfcfc #000000 #000000;
#X obj 578 244 spigot;
#X obj 617 203 tgl 30 0 empty empty empty 17 7 0 10 #fcfcfc #000000 #000000 0 1;
#X obj 651 211 bng 15 250 50 0 empty empty empty 17 7 0 10 #fcfcfc #000000 #000000;
#X obj 651 244 spigot;
#X obj 690 203 tgl 30 0 empty empty empty 17 7 0 10 #fcfcfc #000000 #000000 0 1;
#X obj 724 212 bng 15 250 50 0 empty empty empty 17 7 0 10 #fcfcfc #000000 #000000;
#X obj 724 245 spigot;
#X obj 763 203 tgl 30 0 empty empty empty 17 7 0 10 #fcfcfc #000000 #000000 0 1;
#X obj 798 212 bng 15 250 50 0 empty empty empty 17 7 0 10 #fcfcfc #000000 #000000;
#X obj 798 245 spigot;
#X obj 837 203 tgl 30 0 empty empty empty 17 7 0 10 #fcfcfc #000000 #000000 0 1;
#X obj 872 212 bng 15 250 50 0 empty empty empty 17 7 0 10 #fcfcfc #000000 #000000;
#X obj 872 245 spigot;
#X obj 911 203 tgl 30 0 empty empty empty 17 7 0 10 #fcfcfc #000000 #000000 0 1;
#X obj 946 212 bng 15 250 50 0 empty empty empty 17 7 0 10 #fcfcfc #000000 #000000;
#X obj 946 245 spigot;
#X obj 985 203 tgl 30 0 empty empty empty 17 7 0 10 #fcfcfc #000000 #000000 0 1;
#X obj 1026 211 bng 15 250 50 0 empty empty empty 17 7 0 10 #fcfcfc #000000 #000000;
#X obj 1026 244 spigot;
#X obj 1065 203 tgl 30 0 empty empty empty 17 7 0 10 #fcfcfc #000000 #000000 0 1;
#X obj 1106 211 bng 15 250 50 0 empty empty empty 17 7 0 10 #fcfcfc #000000 #000000;
#X obj 1106 244 spigot;
#X obj 1145 203 tgl 30 0 empty empty empty 17 7 0 10 #fcfcfc #000000 #000000 0 1;
#X obj 1184 210 bng 15 250 50 0 empty empty empty 17 7 0 10 #fcfcfc #000000 #000000;
#X obj 1184 243 spigot;
#X obj 1223 203 tgl 30 0 empty empty empty 17 7 0 10 #fcfcfc #000000 #000000 0 1;
#X obj 510 295 s closed_hh;
#X obj 61 342 bng 15 250 50 0 empty empty empty 17 7 0 10 #fcfcfc #000000 #000000;
#X obj 61 375 spigot;
#X obj 100 334 tgl 30 0 empty empty empty 17 7 0 10 #fcfcfc #000000 #000000 0 1;
#X obj 134 343 bng 15 250 50 0 empty empty empty 17 7 0 10 #fcfcfc #000000 #000000;
#X obj 134 376 spigot;
#X obj 173 335 tgl 30 0 empty empty empty 17 7 0 10 #fcfcfc #000000 #000000 0 1;
#X obj 208 343 bng 15 250 50 0 empty empty empty 17 7 0 10 #fcfcfc #000000 #000000;
#X obj 208 376 spigot;
#X obj 247 335 tgl 30 0 empty empty empty 17 7 0 10 #fcfcfc #000000 #000000 0 1;
#X obj 282 343 bng 15 250 50 0 empty empty empty 17 7 0 10 #fcfcfc #000000 #000000;
#X obj 282 376 spigot;
#X obj 321 335 tgl 30 0 empty empty empty 17 7 0 10 #fcfcfc #000000 #000000 0 1;
#X obj 356 343 bng 15 250 50 0 empty empty empty 17 7 0 10 #fcfcfc #000000 #000000;
#X obj 356 376 spigot;
#X obj 395 335 tgl 30 0 empty empty empty 17 7 0 10 #fcfcfc #000000 #000000 0 1;
#X obj 430 342 bng 15 250 50 0 empty empty empty 17 7 0 10 #fcfcfc #000000 #000000;
#X obj 430 375 spigot;
#X obj 469 334 tgl 30 0 empty empty empty 17 7 0 10 #fcfcfc #000000 #000000 0 1;
#X obj 503 342 bng 15 250 50 0 empty empty empty 17 7 0 10 #fcfcfc #000000 #000000;
#X obj 503 375 spigot;
#X obj 542 334 tgl 30 0 empty empty empty 17 7 0 10 #fcfcfc #000000 #000000 0 1;
#X obj 578 340 bng 15 250 50 0 empty empty empty 17 7 0 10 #fcfcfc #000000 #000000;
#X obj 578 373 spigot;
#X obj 617 332 tgl 30 0 empty empty empty 17 7 0 10 #fcfcfc #000000 #000000 0 1;
#X obj 651 340 bng 15 250 50 0 empty empty empty 17 7 0 10 #fcfcfc #000000 #000000;
#X obj 651 373 spigot;
#X obj 690 332 tgl 30 0 empty empty empty 17 7 0 10 #fcfcfc #000000 #000000 0 1;
#X obj 724 341 bng 15 250 50 0 empty empty empty 17 7 0 10 #fcfcfc #000000 #000000;
#X obj 724 374 spigot;
#X obj 763 333 tgl 30 0 empty empty empty 17 7 0 10 #fcfcfc #000000 #000000 0 1;
#X obj 798 341 bng 15 250 50 0 empty empty empty 17 7 0 10 #fcfcfc #000000 #000000;
#X obj 798 374 spigot;
#X obj 837 333 tgl 30 0 empty empty empty 17 7 0 10 #fcfcfc #000000 #000000 0 1;
#X obj 872 341 bng 15 250 50 0 empty empty empty 17 7 0 10 #fcfcfc #000000 #000000;
#X obj 872 374 spigot;
#X obj 911 333 tgl 30 0 empty empty empty 17 7 0 10 #fcfcfc #000000 #000000 0 1;
#X obj 946 341 bng 15 250 50 0 empty empty empty 17 7 0 10 #fcfcfc #000000 #000000;
#X obj 946 374 spigot;
#X obj 985 333 tgl 30 0 empty empty empty 17 7 0 10 #fcfcfc #000000 #000000 0 1;
#X obj 1026 340 bng 15 250 50 0 empty empty empty 17 7 0 10 #fcfcfc #000000 #000000;
#X obj 1026 373 spigot;
#X obj 1065 332 tgl 30 0 empty empty empty 17 7 0 10 #fcfcfc #000000 #000000 0 1;
#X obj 1106 340 bng 15 250 50 0 empty empty empty 17 7 0 10 #fcfcfc #000000 #000000;
#X obj 1106 373 spigot;
#X obj 1145 332 tgl 30 0 empty empty empty 17 7 0 10 #fcfcfc #000000 #000000 0 1;
#X obj 1184 339 bng 15 250 50 0 empty empty empty 17 7 0 10 #fcfcfc #000000 #000000;
#X obj 1184 372 spigot;
#X obj 1223 331 tgl 30 0 empty empty empty 17 7 0 10 #fcfcfc #000000 #000000 0 1;
#X obj 509 424 s snare;
#X obj 1303 182 loadbang;
#X connect 0 0 1 0;
#X connect 0 0 65 0;
#X connect 0 0 114 0;
#X connect 1 0 2 0;
#X connect 2 0 64 0;
#X connect 3 0 2 1;
#X connect 4 0 5 0;
#X connect 5 0 64 0;
#X connect 6 0 5 1;
#X connect 7 0 8 0;
#X connect 8 0 64 0;
#X connect 9 0 8 1;
#X connect 10 0 11 0;
#X connect 11 0 64 0;
#X connect 12 0 11 1;
#X connect 13 0 14 0;
#X connect 14 0 64 0;
#X connect 15 0 14 1;
#X connect 16 0 17 0;
#X connect 17 0 64 0;
#X connect 18 0 17 1;
#X connect 19 0 20 0;
#X connect 20 0 64 0;
#X connect 21 0 20 1;
#X connect 22 0 23 0;
#X connect 23 0 64 0;
#X connect 24 0 23 1;
#X connect 25 0 26 0;
#X connect 26 0 64 0;
#X connect 27 0 26 1;
#X connect 28 0 29 0;
#X connect 29 0 64 0;
#X connect 30 0 29 1;
#X connect 31 0 32 0;
#X connect 32 0 64 0;
#X connect 33 0 32 1;
#X connect 34 0 35 0;
#X connect 35 0 64 0;
#X connect 36 0 35 1;
#X connect 37 0 38 0;
#X connect 38 0 64 0;
#X connect 39 0 38 1;
#X connect 40 0 41 0;
#X connect 41 0 64 0;
#X connect 42 0 41 1;
#X connect 43 0 44 0;
#X connect 44 0 64 0;
#X connect 45 0 44 1;
#X connect 46 0 47 0;
#X connect 46 0 159 0;
#X connect 46 0 110 0;
#X connect 47 0 64 0;
#X connect 48 0 47 1;
#X connect 49 0 4 0;
#X connect 49 0 68 0;
#X connect 49 0 117 0;
#X connect 50 0 7 0;
#X connect 50 0 71 0;
#X connect 50 0 120 0;
#X connect 51 0 10 0;
#X connect 51 0 74 0;
#X connect 51 0 123 0;
#X connect 52 0 13 0;
#X connect 52 0 77 0;
#X connect 52 0 126 0;
#X connect 53 0 16 0;
#X connect 53 0 80 0;
#X connect 53 0 129 0;
#X connect 54 0 19 0;
#X connect 54 0 83 0;
#X connect 54 0 132 0;
#X connect 55 0 22 0;
#X connect 55 0 86 0;
#X connect 55 0 135 0;
#X connect 56 0 25 0;
#X connect 56 0 89 0;
#X connect 56 0 138 0;
#X connect 57 0 28 0;
#X connect 57 0 92 0;
#X connect 57 0 141 0;
#X connect 58 0 31 0;
#X connect 58 0 95 0;
#X connect 58 0 144 0;
#X connect 59 0 34 0;
#X connect 59 0 98 0;
#X connect 59 0 147 0;
#X connect 60 0 37 0;
#X connect 60 0 101 0;
#X connect 60 0 150 0;
#X connect 61 0 40 0;
#X connect 61 0 104 0;
#X connect 61 0 153 0;
#X connect 62 0 43 0;
#X connect 62 0 107 0;
#X connect 62 0 156 0;
#X connect 63 0 46 0;
#X connect 65 0 66 0;
#X connect 66 0 113 0;
#X connect 67 0 66 1;
#X connect 68 0 69 0;
#X connect 69 0 113 0;
#X connect 70 0 69 1;
#X connect 71 0 72 0;
#X connect 72 0 113 0;
#X connect 73 0 72 1;
#X connect 74 0 75 0;
#X connect 75 0 113 0;
#X connect 76 0 75 1;
#X connect 77 0 78 0;
#X connect 78 0 113 0;
#X connect 79 0 78 1;
#X connect 80 0 81 0;
#X connect 81 0 113 0;
#X connect 82 0 81 1;
#X connect 83 0 84 0;
#X connect 84 0 113 0;
#X connect 85 0 84 1;
#X connect 86 0 87 0;
#X connect 87 0 113 0;
#X connect 88 0 87 1;
#X connect 89 0 90 0;
#X connect 90 0 113 0;
#X connect 91 0 90 1;
#X connect 92 0 93 0;
#X connect 93 0 113 0;
#X connect 94 0 93 1;
#X connect 95 0 96 0;
#X connect 96 0 113 0;
#X connect 97 0 96 1;
#X connect 98 0 99 0;
#X connect 99 0 113 0;
#X connect 100 0 99 1;
#X connect 101 0 102 0;
#X connect 102 0 113 0;
#X connect 103 0 102 1;
#X connect 104 0 105 0;
#X connect 105 0 113 0;
#X connect 106 0 105 1;
#X connect 107 0 108 0;
#X connect 108 0 113 0;
#X connect 109 0 108 1;
#X connect 110 0 111 0;
#X connect 111 0 113 0;
#X connect 112 0 111 1;
#X connect 114 0 115 0;
#X connect 115 0 162 0;
#X connect 116 0 115 1;
#X connect 117 0 118 0;
#X connect 118 0 162 0;
#X connect 119 0 118 1;
#X connect 120 0 121 0;
#X connect 121 0 162 0;
#X connect 122 0 121 1;
#X connect 123 0 124 0;
#X connect 124 0 162 0;
#X connect 125 0 124 1;
#X connect 126 0 127 0;
#X connect 127 0 162 0;
#X connect 128 0 127 1;
#X connect 129 0 130 0;
#X connect 130 0 162 0;
#X connect 131 0 130 1;
#X connect 132 0 133 0;
#X connect 133 0 162 0;
#X connect 134 0 133 1;
#X connect 135 0 136 0;
#X connect 136 0 162 0;
#X connect 137 0 136 1;
#X connect 138 0 139 0;
#X connect 139 0 162 0;
#X connect 140 0 139 1;
#X connect 141 0 142 0;
#X connect 142 0 162 0;
#X connect 143 0 142 1;
#X connect 144 0 145 0;
#X connect 145 0 162 0;
#X connect 146 0 145 1;
#X connect 147 0 148 0;
#X connect 148 0 162 0;
#X connect 149 0 148 1;
#X connect 150 0 151 0;
#X connect 151 0 162 0;
#X connect 152 0 151 1;
#X connect 153 0 154 0;
#X connect 154 0 162 0;
#X connect 155 0 154 1;
#X connect 156 0 157 0;
#X connect 157 0 162 0;
#X connect 158 0 157 1;
#X connect 159 0 160 0;
#X connect 160 0 162 0;
#X connect 161 0 160 1;
#X connect 163 0 3 0;
#X connect 163 0 30 0;
#X connect 163 0 33 0;
#X connect 163 0 67 0;
#X connect 163 0 70 0;
#X connect 163 0 73 0;
#X connect 163 0 76 0;
#X connect 163 0 79 0;
#X connect 163 0 82 0;
#X connect 163 0 85 0;
#X connect 163 0 88 0;
#X connect 163 0 91 0;
#X connect 163 0 94 0;
#X connect 163 0 97 0;
#X connect 163 0 100 0;
#X connect 163 0 103 0;
#X connect 163 0 106 0;
#X connect 163 0 109 0;
#X connect 163 0 112 0;
#X connect 163 0 152 0;
#X connect 163 0 128 0;
#X restore 1590 433 pd drums;
#X obj 1574 511 bng 15 250 50 0 empty empty empty 17 7 0 10 #fcfcfc #000000 #000000;
#X obj 1574 653 readsf~;
#X obj 1574 480 r closed_hh;
#X msg 1574 611 open closed_hh.wav \, 1;
#X obj 1755 511 bng 15 250 50 0 empty empty empty 17 7 0 10 #fcfcfc #000000 #000000;
#X obj 1755 653 readsf~;
#X obj 1755 480 r snare;
#X msg 1755 611 open snare.wav \, 1;
#X obj 1509 54 array set \$0-sus-scale;
#X obj 102 541 array get \$0-sus-scale;
#X obj 102 458 bng 15 250 50 0 empty empty empty 17 7 0 10 #fcfcfc #000000 #000000;
#X obj 102 751 *~ 0.5;
#X obj 1397 550 del;
#X obj 1671 488 vsl 15 64 0 100 0 0 empty empty swing 0 -9 0 10 #fcfcfc #000000 #000000 0 1;
#X obj 1397 582 bng 15 250 50 0 empty empty empty 17 7 0 10 #fcfcfc #000000 #000000;
#X obj 1574 555 del;
#X obj 1574 587 bng 15 250 50 0 empty empty empty 17 7 0 10 #fcfcfc #000000 #000000;
#X obj 1755 550 del;
#X obj 1755 582 bng 15 250 50 0 empty empty empty 17 7 0 10 #fcfcfc #000000 #000000;
#X obj 1463 483 vsl 15 64 0 100 0 0 empty empty swing 0 -9 0 10 #fcfcfc #000000 #000000 0 1;
#X obj 1826 483 vsl 15 64 0 100 0 0 empty empty swing 0 -9 0 10 #fcfcfc #000000 #000000 0 1;
#X obj 170 792 vsl 15 64 0 1 0 0 empty empty empty 0 -9 0 10 #fcfcfc #000000 #000000 0 1;
#X obj 239 792 vsl 15 64 0 1 0 0 empty empty empty 0 -9 0 10 #fcfcfc #000000 #000000 0 1;
#X text 924 10 70;
#X obj 102 513 spigot;
#X obj 184 457 -;
#X floatatom 878 124 5 0 0 0 - - - 0;
#X obj 170 767 tgl 15 0 empty empty empty 17 7 0 10 #fcfcfc #000000 #000000 0 1;
#X obj 239 766 tgl 15 0 empty empty empty 17 7 0 10 #fcfcfc #000000 #000000 0 1;
#X floatatom 263 462 5 0 0 0 - - - 0;
#X obj 1152 130 hsl 64 15 0 10 0 0 empty empty empty -2 -8 0 10 #fcfcfc #000000 #000000 0 1;
#X obj 1070 114 random 10;
#X obj 1070 145 -;
#X floatatom 1149 150 5 0 0 0 - - - 0;
#X obj 820 199 spigot;
#X obj 1070 180 >= 0;
#X obj 184 492 >= 0;
#N canvas 192 192 867 745 pluginEffectChain 0;
#X obj 168 220 vstplugin~;
#X obj 636 145 *~;
#X msg 305 151 open -e ValhallaSupermassive.vst3;
#X obj 723 23 bng 15 250 50 0 empty empty empty 17 7 0 10 #fcfcfc #000000 #000000;
#X obj 305 127 loadbang;
#X msg 25 91 param_set 0 \$1;
#X obj 28 25 hsl 128 15 0 1 0 0 empty empty empty -2 -8 0 10 #fcfcfc #000000 #000000 0 1;
#X msg 723 43 1 1000;
#X obj 812 47 del 1000;
#X obj 636 121 osc~ 1000;
#X obj 636 169 *~ 0.2;
#X obj 723 114 vline~;
#X obj 812 71 0 1000;
#X text 14 220 ValhallaSupermassive;
#X obj 168 272 vstplugin~;
#X msg 320 177 open -e LABS.vst3;
#X obj 728 186 vsl 15 64 0 0.2 0 0 empty empty empty 0 -9 0 10 #fcfcfc #000000 #000000 0 1;
#X msg 351 205 open -e RC-20_Retro_Color.vst3;
#X obj 169 31 inlet~;
#X obj 167 353 outlet~;
#X obj 240 354 outlet~;
#X obj 303 96 bng 15 250 50 0 empty empty empty 17 7 0 10 #fcfcfc #000000 #000000;
#X obj 306 28 inlet;
#X obj 450 28 inlet;
#X text 176 10 sound;
#X text 230 6 dry/wet Effect 1;
#X text 372 6 dry/wet Effect 2;
#X floatatom 306 54 5 0 0 0 - - - 0;
#X floatatom 450 54 5 0 0 0 - - - 0;
#X msg 24 137 param_set 0 \$1;
#X obj 415 259 vsl 15 64 0 1 0 0 empty empty empty 0 -9 0 10 #fcfcfc #000000 #000000 0 1;
#X msg 415 337 param_set 6 \$1;
#X text 528 338 feedback;
#X msg 415 365 param_set 7 \$1;
#X text 528 366 density;
#X msg 415 393 param_set 8 \$1;
#X text 528 394 width;
#X msg 415 421 param_set 9 \$1;
#X text 528 422 EQ Low;
#X msg 415 448 param_set 10 \$1;
#X text 528 449 EQ High;
#X msg 415 475 param_set 11 \$1;
#X text 528 476 MOD Rate;
#X msg 415 503 param_set 12 \$1;
#X text 528 504 MOD Depth;
#X text 110 644 RC-20_Retro_Color Preset: - Flux Pitch (DRUMS);
#X text 41 600 ValhallaSupermassive Preset: - REVERBS/C-Large/80s Space Verb (DRUMS), f 71;
#X connect 0 0 14 0;
#X connect 0 1 14 1;
#X connect 1 0 10 0;
#X connect 2 0 14 0;
#X connect 3 0 7 0;
#X connect 3 0 8 0;
#X connect 4 0 2 0;
#X connect 4 0 15 0;
#X connect 4 0 17 0;
#X connect 5 0 0 0;
#X connect 6 0 5 0;
#X connect 7 0 11 0;
#X connect 8 0 12 0;
#X connect 9 0 1 0;
#X connect 11 0 1 1;
#X connect 12 0 11 0;
#X connect 14 0 19 0;
#X connect 14 1 20 0;
#X connect 16 0 10 1;
#X connect 17 0 0 0;
#X connect 18 0 0 0;
#X connect 18 0 0 1;
#X connect 21 0 2 0;
#X connect 21 0 15 0;
#X connect 21 0 17 0;
#X connect 22 0 27 0;
#X connect 23 0 28 0;
#X connect 27 0 5 0;
#X connect 28 0 29 0;
#X connect 29 0 14 0;
#X connect 30 0 31 0;
#X connect 30 0 33 0;
#X connect 30 0 35 0;
#X connect 30 0 37 0;
#X connect 30 0 39 0;
#X connect 30 0 41 0;
#X connect 30 0 43 0;
#X connect 31 0 14 0;
#X connect 33 0 14 0;
#X connect 35 0 14 0;
#X connect 37 0 14 0;
#X connect 39 0 14 0;
#X connect 41 0 14 0;
#X connect 43 0 14 0;
#X restore 1572 856 pd pluginEffectChain;
#X obj 1640 774 vsl 15 64 0 1 0 0 empty empty empty 0 -9 0 10 #fcfcfc #000000 #000000 0 1;
#X obj 1709 774 vsl 15 64 0 1 0 0 empty empty empty 0 -9 0 10 #fcfcfc #000000 #000000 0 1;
#X obj 1640 749 tgl 15 0 empty empty empty 17 7 0 10 #fcfcfc #000000 #000000 0 1;
#X obj 1709 748 tgl 15 0 empty empty empty 17 7 0 10 #fcfcfc #000000 #000000 0 1;
#X text 880 438 pitch;
#X obj 1090 394 hsl 64 15 5 10 0 0 empty empty empty -2 -8 0 10 #fcfcfc #000000 #000000 0 1;
#N canvas 32 32 867 745 pluginEffectChain 0;
#X obj 168 220 vstplugin~;
#X obj 636 145 *~;
#X msg 305 151 open -e ValhallaSupermassive.vst3;
#X obj 723 23 bng 15 250 50 0 empty empty empty 17 7 0 10 #fcfcfc #000000 #000000;
#X obj 305 127 loadbang;
#X msg 25 91 param_set 0 \$1;
#X obj 28 25 hsl 128 15 0 1 0 0 empty empty empty -2 -8 0 10 #fcfcfc #000000 #000000 0 1;
#X msg 723 43 1 1000;
#X obj 812 47 del 1000;
#X obj 636 121 osc~ 1000;
#X obj 636 169 *~ 0.2;
#X obj 723 114 vline~;
#X obj 812 71 0 1000;
#X text 14 220 ValhallaSupermassive;
#X obj 168 272 vstplugin~;
#X msg 320 177 open -e LABS.vst3;
#X obj 728 186 vsl 15 64 0 0.2 0 0 empty empty empty 0 -9 0 10 #fcfcfc #000000 #000000 0 1;
#X msg 351 205 open -e RC-20_Retro_Color.vst3;
#X obj 169 31 inlet~;
#X obj 167 353 outlet~;
#X obj 240 354 outlet~;
#X obj 303 96 bng 15 250 50 0 empty empty empty 17 7 0 10 #fcfcfc #000000 #000000;
#X obj 306 28 inlet;
#X obj 450 28 inlet;
#X text 176 10 sound;
#X text 230 6 dry/wet Effect 1;
#X text 372 6 dry/wet Effect 2;
#X floatatom 306 54 5 0 0 0 - - - 0;
#X floatatom 450 54 5 0 0 0 - - - 0;
#X msg 24 137 param_set 0 \$1;
#X obj 415 259 vsl 15 64 0 1 0 0 empty empty empty 0 -9 0 10 #fcfcfc #000000 #000000 0 1;
#X msg 415 337 param_set 6 \$1;
#X text 528 338 feedback;
#X msg 415 365 param_set 7 \$1;
#X text 528 366 density;
#X msg 415 393 param_set 8 \$1;
#X text 528 394 width;
#X msg 415 421 param_set 9 \$1;
#X text 528 422 EQ Low;
#X msg 415 448 param_set 10 \$1;
#X text 528 449 EQ High;
#X msg 415 475 param_set 11 \$1;
#X text 528 476 MOD Rate;
#X msg 415 503 param_set 12 \$1;
#X text 528 504 MOD Depth;
#X text 20 654 RC-20_Retro_Color Preset: - Dist Fat Iron (BASS);
#X text 41 607 ValhallaSupermassive Preset: - REVERBS/B-Medium/CirrusMinorPlate (BASS), f 74;
#X connect 0 0 14 0;
#X connect 0 1 14 1;
#X connect 1 0 10 0;
#X connect 2 0 14 0;
#X connect 3 0 7 0;
#X connect 3 0 8 0;
#X connect 4 0 2 0;
#X connect 4 0 15 0;
#X connect 4 0 17 0;
#X connect 5 0 0 0;
#X connect 6 0 5 0;
#X connect 7 0 11 0;
#X connect 8 0 12 0;
#X connect 9 0 1 0;
#X connect 11 0 1 1;
#X connect 12 0 11 0;
#X connect 14 0 19 0;
#X connect 14 1 20 0;
#X connect 16 0 10 1;
#X connect 17 0 0 0;
#X connect 18 0 0 0;
#X connect 18 0 0 1;
#X connect 21 0 2 0;
#X connect 21 0 15 0;
#X connect 21 0 17 0;
#X connect 22 0 27 0;
#X connect 23 0 28 0;
#X connect 27 0 5 0;
#X connect 28 0 29 0;
#X connect 29 0 14 0;
#X connect 30 0 31 0;
#X connect 30 0 33 0;
#X connect 30 0 35 0;
#X connect 30 0 37 0;
#X connect 30 0 39 0;
#X connect 30 0 41 0;
#X connect 30 0 43 0;
#X connect 31 0 14 0;
#X connect 33 0 14 0;
#X connect 35 0 14 0;
#X connect 37 0 14 0;
#X connect 39 0 14 0;
#X connect 41 0 14 0;
#X connect 43 0 14 0;
#X restore 926 876 pd pluginEffectChain;
#X obj 893 686 vsl 15 64 0 0.5 0 0 empty empty empty 0 -9 0 10 #fcfcfc #000000 #000000 0 1;
#X obj 926 493 array get \$0-sus-scale;
#X obj 926 410 bng 15 250 50 0 empty empty empty 17 7 0 10 #fcfcfc #000000 #000000;
#X obj 926 753 *~ 0.5;
#X obj 994 794 vsl 15 64 0 1 0 0 empty empty empty 0 -9 0 10 #fcfcfc #000000 #000000 0 1;
#X obj 1063 794 vsl 15 64 0 1 0 0 empty empty empty 0 -9 0 10 #fcfcfc #000000 #000000 0 1;
#X obj 926 465 spigot;
#X obj 1008 409 -;
#X obj 994 769 tgl 15 0 empty empty empty 17 7 0 10 #fcfcfc #000000 #000000 0 1;
#X obj 1063 768 tgl 15 0 empty empty empty 17 7 0 10 #fcfcfc #000000 #000000 0 1;
#X floatatom 1087 414 5 0 0 0 - - - 0;
#X obj 1008 444 >= 0;
#X obj 926 522 f;
#X floatatom 990 572 5 0 0 0 - - - 0;
#X obj 102 485 random 18;
#X floatatom 982 524 5 0 0 0 - - - 0;
#X obj 926 437 random 8;
#X text 1088 372 bass chance 5-10;
#X text 265 420 pad chance 1-10;
#X text 1148 108 drum chance 1-10;
#X obj 1635 310 *~;
#X obj 1721 309 *~;
#X obj 1814 242 vsl 15 64 0 1 0 0 empty empty empty 0 -9 0 10 #fcfcfc #000000 #000000 0 1;
#X obj 1814 216 tgl 15 0 empty empty empty 17 7 0 10 #fcfcfc #000000 #000000 0 1;
#X obj 1553 612 vsl 15 64 0 1 0 0 empty empty empty 0 -9 0 10 #fcfcfc #000000 #000000 0 1;
#X obj 1553 587 tgl 15 0 empty empty empty 17 7 0 10 #fcfcfc #000000 #000000 0 1;
#X obj 65 596 loadbang;
#X obj 926 809 hip~;
#X msg 951 781 300;
#X text 395 493 pitch;
#X obj 605 449 hsl 64 15 0 10 0 0 empty empty empty -2 -8 0 10 #fcfcfc #000000 #000000 0 1;
#X obj 441 548 array get \$0-sus-scale;
#X obj 441 465 bng 15 250 50 0 empty empty empty 17 7 0 10 #fcfcfc #000000 #000000;
#X obj 441 758 *~ 0.5;
#X obj 441 520 spigot;
#X obj 523 464 -;
#X floatatom 602 469 5 0 0 0 - - - 0;
#X obj 523 499 >= 0;
#X obj 1574 679 *~;
#X obj 1573 724 *~ 0.5;
#X obj 412 691 vsl 15 64 0 0.5 0 0 empty empty empty 0 -9 0 10 #fcfcfc #000000 #000000 0 1;
#X obj 184 426 random 10;
#N canvas 64 64 867 745 pluginEffectChain 0;
#X obj 168 220 vstplugin~;
#X obj 636 145 *~;
#X msg 305 151 open -e ValhallaSupermassive.vst3;
#X obj 723 23 bng 15 250 50 0 empty empty empty 17 7 0 10 #fcfcfc #000000 #000000;
#X obj 305 127 loadbang;
#X msg 25 91 param_set 0 \$1;
#X obj 28 25 hsl 128 15 0 1 0 0 empty empty empty -2 -8 0 10 #fcfcfc #000000 #000000 0 1;
#X msg 723 43 1 1000;
#X obj 812 47 del 1000;
#X obj 636 121 osc~ 1000;
#X obj 636 169 *~ 0.2;
#X obj 723 114 vline~;
#X obj 812 71 0 1000;
#X text 14 220 ValhallaSupermassive;
#X obj 168 272 vstplugin~;
#X msg 320 177 open -e LABS.vst3;
#X obj 728 186 vsl 15 64 0 0.2 0 0 empty empty empty 0 -9 0 10 #fcfcfc #000000 #000000 0 1;
#X msg 351 205 open -e RC-20_Retro_Color.vst3;
#X obj 169 31 inlet~;
#X obj 167 353 outlet~;
#X obj 240 354 outlet~;
#X obj 303 96 bng 15 250 50 0 empty empty empty 17 7 0 10 #fcfcfc #000000 #000000;
#X obj 306 28 inlet;
#X obj 450 28 inlet;
#X text 176 10 sound;
#X text 230 6 dry/wet Effect 1;
#X text 372 6 dry/wet Effect 2;
#X floatatom 306 54 5 0 0 0 - - - 0;
#X floatatom 450 54 5 0 0 0 - - - 0;
#X msg 24 137 param_set 0 \$1;
#X obj 415 259 vsl 15 64 0 1 0 0 empty empty empty 0 -9 0 10 #fcfcfc #000000 #000000 0 1;
#X msg 415 337 param_set 6 \$1;
#X text 528 338 feedback;
#X msg 415 365 param_set 7 \$1;
#X text 528 366 density;
#X msg 415 393 param_set 8 \$1;
#X text 528 394 width;
#X msg 415 421 param_set 9 \$1;
#X text 528 422 EQ Low;
#X msg 415 448 param_set 10 \$1;
#X text 528 449 EQ High;
#X msg 415 475 param_set 11 \$1;
#X text 528 476 MOD Rate;
#X msg 415 503 param_set 12 \$1;
#X text 528 504 MOD Depth;
#X text 41 607 ValhallaSupermassive Preset: - ECHOES/Guitar/Palm Mute (LEAD), f 62;
#X text 77 648 RC-20_Retro_Color Preset: - Lush & Crunch Guitar 2 (LEAD) Hotline Phase;
#X connect 0 0 14 0;
#X connect 0 1 14 1;
#X connect 1 0 10 0;
#X connect 2 0 14 0;
#X connect 3 0 7 0;
#X connect 3 0 8 0;
#X connect 4 0 2 0;
#X connect 4 0 15 0;
#X connect 4 0 17 0;
#X connect 5 0 0 0;
#X connect 6 0 5 0;
#X connect 7 0 11 0;
#X connect 8 0 12 0;
#X connect 9 0 1 0;
#X connect 11 0 1 1;
#X connect 12 0 11 0;
#X connect 14 0 19 0;
#X connect 14 1 20 0;
#X connect 16 0 10 1;
#X connect 17 0 0 0;
#X connect 18 0 0 0;
#X connect 18 0 0 1;
#X connect 21 0 2 0;
#X connect 21 0 15 0;
#X connect 21 0 17 0;
#X connect 22 0 27 0;
#X connect 23 0 28 0;
#X connect 27 0 5 0;
#X connect 28 0 29 0;
#X connect 29 0 14 0;
#X connect 30 0 31 0;
#X connect 30 0 33 0;
#X connect 30 0 35 0;
#X connect 30 0 37 0;
#X connect 30 0 39 0;
#X connect 30 0 41 0;
#X connect 30 0 43 0;
#X connect 31 0 14 0;
#X connect 33 0 14 0;
#X connect 35 0 14 0;
#X connect 37 0 14 0;
#X connect 39 0 14 0;
#X connect 41 0 14 0;
#X connect 43 0 14 0;
#X restore 440 867 pd pluginEffectChain;
#X obj 508 785 vsl 15 64 0 1 0 0 empty empty empty 0 -9 0 10 #fcfcfc #000000 #000000 0 1;
#X obj 577 785 vsl 15 64 0 1 0 0 empty empty empty 0 -9 0 10 #fcfcfc #000000 #000000 0 1;
#X obj 508 760 tgl 15 0 empty empty empty 17 7 0 10 #fcfcfc #000000 #000000 0 1;
#X obj 577 759 tgl 15 0 empty empty empty 17 7 0 10 #fcfcfc #000000 #000000 0 1;
#X obj 893 611 loadbang;
#X obj 1008 378 random 10;
#X obj 101 914 throw~ left;
#X obj 239 914 throw~ right;
#X obj 439 914 throw~ left;
#X obj 577 914 throw~ right;
#X obj 926 914 throw~ left;
#X obj 1064 914 throw~ right;
#X obj 1571 923 throw~ left;
#X obj 1709 923 throw~ right;
#X obj 1635 270 catch~ left;
#X obj 1720 270 catch~ right;
#X obj 523 433 random 10;
#X obj 412 669 tgl 15 0 empty empty empty 17 7 0 10 #fcfcfc #000000 #000000 0 1;
#X obj 65 659 tgl 15 0 empty empty empty 17 7 0 10 #fcfcfc #000000 #000000 0 1;
#X obj 893 664 tgl 15 0 empty empty empty 17 7 0 10 #fcfcfc #000000 #000000 0 1;
#X obj 1377 612 vsl 15 64 0 1 0 0 empty empty empty 0 -9 0 10 #fcfcfc #000000 #000000 0 1;
#X obj 1398 679 *~;
#X obj 1397 724 *~ 0.5;
#X obj 1377 587 tgl 15 0 empty empty empty 17 7 0 10 #fcfcfc #000000 #000000 0 1;
#X obj 1734 612 vsl 15 64 0 1 0 0 empty empty empty 0 -9 0 10 #fcfcfc #000000 #000000 0 1;
#X obj 1755 679 *~;
#X obj 1754 724 *~ 0.5;
#X obj 1734 587 tgl 15 0 empty empty empty 17 7 0 10 #fcfcfc #000000 #000000 0 1;
#X obj 441 492 random 12;
#X obj 701 115 s tick;
#N canvas 128 128 450 300 pad 0;
#X obj 58 13 inlet;
#X obj 57 253 outlet~;
#X obj 58 205 *~;
#X obj 163 64 bng 15 250 50 0 empty empty empty 17 7 0 10 #fcfcfc #000000 #000000;
#X obj 58 181 osc~ 1000;
#X floatatom 112 46 5 0 0 0 - - - 0;
#X obj 58 45 mtof;
#N canvas 0 50 547 401 envelope 0;
#X obj 222 18 inlet;
#X obj 222 60 bng 15 250 50 0 empty empty empty 17 7 0 10 #fcfcfc #000000 #000000;
#X obj 246 172 vline~;
#X obj 246 198 pow~ 2;
#X floatatom 279 62 5 0 0 0 - - - 0;
#X floatatom 332 62 5 0 0 0 - - - 0;
#X obj 246 93 pack b f f;
#X msg 246 126 1 \$2 \, 0 \$3 \$2;
#X obj 279 18 inlet;
#X obj 332 18 inlet;
#X obj 245 234 outlet~;
#X connect 0 0 1 0;
#X connect 1 0 6 0;
#X connect 2 0 3 0;
#X connect 3 0 10 0;
#X connect 4 0 6 1;
#X connect 5 0 6 2;
#X connect 6 0 7 0;
#X connect 7 0 2 0;
#X connect 8 0 4 0;
#X connect 9 0 5 0;
#X restore 102 123 pd envelope;
#X f 13;
#X msg 146 93 500;
#X obj 220 55 loadbang;
#X msg 190 93 1000;
#X connect 0 0 6 0;
#X connect 2 0 1 0;
#X connect 4 0 2 0;
#X connect 6 0 4 0;
#X connect 6 0 3 0;
#X connect 6 0 7 0;
#X connect 7 0 2 1;
#X connect 8 0 7 1;
#X connect 9 0 8 0;
#X connect 9 0 10 0;
#X connect 10 0 7 2;
#X restore 244 640 pd pad;
#X obj 103 640 clone pad.cl 64;
#X msg 102 565 next \$1;
#X text 604 427 lead chance 1-10;
#N canvas 880 257 450 388 lead 0;
#X obj 52 270 *~;
#X obj 167 129 bng 15 250 50 0 empty empty empty 17 7 0 10 #fcfcfc #000000 #000000;
#X obj 52 110 mtof;
#N canvas 224 224 547 401 envelope 0;
#X obj 222 18 inlet;
#X obj 222 60 bng 15 250 50 0 empty empty empty 17 7 0 10 #fcfcfc #000000 #000000;
#X obj 246 172 vline~;
#X obj 246 198 pow~ 2;
#X floatatom 279 62 5 0 0 0 - - - 0;
#X floatatom 332 62 5 0 0 0 - - - 0;
#X obj 246 93 pack b f f;
#X msg 246 126 1 \$2 \, 0 \$3 \$2;
#X obj 279 18 inlet;
#X obj 332 18 inlet;
#X obj 245 234 outlet~;
#X connect 0 0 1 0;
#X connect 1 0 6 0;
#X connect 2 0 3 0;
#X connect 3 0 10 0;
#X connect 4 0 6 1;
#X connect 5 0 6 2;
#X connect 6 0 7 0;
#X connect 7 0 2 0;
#X connect 8 0 4 0;
#X connect 9 0 5 0;
#X restore 96 188 pd envelope;
#X f 13;
#X floatatom 298 157 5 0 0 0 - - - 0;
#X floatatom 208 157 5 0 0 0 - - - 0;
#X obj 298 108 random 5000;
#X obj 208 134 + 10;
#X obj 298 134 + 500;
#X obj 167 238 loadbang;
#X obj 208 108 random 50;
#X obj 52 246 phasor~ 1000;
#X obj 52 17 inlet;
#X obj 52 294 outlet~;
#X obj 242 21 inlet;
#X floatatom 298 76 5 0 0 0 - - - 0;
#X obj 298 52 * 1000;
#X obj 208 52 * 100;
#X floatatom 208 76 5 0 0 0 - - - 0;
#X connect 0 0 13 0;
#X connect 1 0 6 0;
#X connect 1 0 10 0;
#X connect 2 0 1 0;
#X connect 2 0 3 0;
#X connect 2 0 11 0;
#X connect 3 0 0 1;
#X connect 4 0 3 2;
#X connect 5 0 3 1;
#X connect 6 0 8 0;
#X connect 7 0 5 0;
#X connect 8 0 4 0;
#X connect 10 0 7 0;
#X connect 11 0 0 0;
#X connect 12 0 2 0;
#X connect 14 0 17 0;
#X connect 14 0 16 0;
#X connect 15 0 6 0;
#X connect 16 0 15 0;
#X connect 17 0 18 0;
#X connect 18 0 10 0;
#X restore 571 643 pd lead;
#X obj 441 643 clone lead.cl 64;
#X msg 441 572 next \$1;
#N canvas 96 96 450 300 bass 0;
#X obj 99 236 *~;
#X obj 99 212 osc~ 1000;
#X obj 99 102 mtof;
#N canvas 0 50 547 401 envelope 0;
#X obj 222 18 inlet;
#X obj 222 60 bng 15 250 50 0 empty empty empty 17 7 0 10 #fcfcfc #000000 #000000;
#X obj 246 172 vline~;
#X obj 246 198 pow~ 2;
#X floatatom 279 62 5 0 0 0 - - - 0;
#X floatatom 332 62 5 0 0 0 - - - 0;
#X obj 246 93 pack b f f;
#X msg 246 126 1 \$2 \, 0 \$3 \$2;
#X obj 279 18 inlet;
#X obj 332 18 inlet;
#X obj 245 234 outlet~;
#X connect 0 0 1 0;
#X connect 1 0 6 0;
#X connect 2 0 3 0;
#X connect 3 0 10 0;
#X connect 4 0 6 1;
#X connect 5 0 6 2;
#X connect 6 0 7 0;
#X connect 7 0 2 0;
#X connect 8 0 4 0;
#X connect 9 0 5 0;
#X restore 132 180 pd envelope;
#X f 13;
#X floatatom 220 148 5 0 0 0 - - - 0;
#X msg 176 147 10;
#X obj 220 99 random 3000;
#X obj 143 121 bng 15 250 50 0 empty empty empty 17 7 0 10 #fcfcfc #000000 #000000;
#X obj 220 125 + 1000;
#X obj 66 128 loadbang;
#X obj 99 28 inlet;
#X obj 99 260 outlet~;
#X connect 0 0 11 0;
#X connect 1 0 0 0;
#X connect 2 0 1 0;
#X connect 2 0 3 0;
#X connect 2 0 7 0;
#X connect 3 0 0 1;
#X connect 4 0 3 2;
#X connect 5 0 3 1;
#X connect 6 0 8 0;
#X connect 7 0 6 0;
#X connect 8 0 4 0;
#X connect 9 0 5 0;
#X connect 10 0 2 0;
#X restore 1067 654 pd bass;
#X msg 926 575 next \$1;
#X obj 926 653 clone bass.cl 64;
#X msg 652 581 65;
#X obj 506 692 catch~ voice1;
#X obj 926 551 - 24;
#N canvas 191 1017 1920 976 play_human 1;
#X floatatom 1644 493 5 0 0 0 - - - 0;
#X floatatom 1686 454 5 0 0 0 - - - 0;
#X floatatom 1727 486 5 0 0 0 - - - 0;
#X floatatom 1769 538 5 0 0 0 - - - 0;
#X obj 1603 461 bng 15 250 50 0 empty empty empty 17 7 0 10 #fcfcfc #000000 #000000;
#X text 1530 461 /endpoint;
#X text 1570 494 person_id;
#X floatatom 1810 457 5 0 0 0 - - - 0;
#X text 1712 485 x;
#X text 1651 455 area;
#X text 1754 537 y;
#X obj 1603 423 unpack s f f f f f f, f 36;
#X floatatom 1852 486 5 0 0 0 - - - 0;
#X text 1767 457 speed;
#X text 1773 486 confidence;
#X obj 1603 390 inlet;
#X obj 62 10 r h1;
#X obj 243 10 r h2;
#X obj 422 10 r h3;
#X obj 603 10 r h4;
#X obj 782 10 r h5;
#X obj 963 10 r h6;
#X obj 1142 10 r h7;
#X obj 1323 10 r h8;
#X obj 1502 10 r h9;
#X obj 1683 10 r h10;
#X text 14 416 pitch;
#X obj 181 372 hsl 32 15 0 10 0 0 empty empty empty -2 -8 0 10 #fcfcfc #000000 #000000 0 1;
#X obj 100 380 bng 15 250 50 0 empty empty empty 17 7 0 10 #fcfcfc #000000 #000000;
#X obj 60 891 *~ 0.5;
#X obj 142 387 -;
#X floatatom 178 392 5 0 0 0 - - - 0;
#X obj 142 422 >= 0;
#X obj 31 834 vsl 15 64 0 0.5 0 0 empty empty empty 0 -9 0 10 #fcfcfc #000000 #000000 0 1;
#N canvas 64 64 867 745 pluginEffectChain 1;
#X obj 168 220 vstplugin~;
#X obj 636 145 *~;
#X msg 305 151 open -e ValhallaSupermassive.vst3;
#X obj 723 23 bng 15 250 50 0 empty empty empty 17 7 0 10 #fcfcfc #000000 #000000;
#X obj 305 127 loadbang;
#X msg 25 91 param_set 0 \$1;
#X obj 28 25 hsl 128 15 0 1 0 0 empty empty empty -2 -8 0 10 #fcfcfc #000000 #000000 0 1;
#X msg 723 43 1 1000;
#X obj 812 47 del 1000;
#X obj 636 121 osc~ 1000;
#X obj 636 169 *~ 0.2;
#X obj 723 114 vline~;
#X obj 812 71 0 1000;
#X text 14 220 ValhallaSupermassive;
#X obj 168 272 vstplugin~;
#X msg 320 177 open -e LABS.vst3;
#X obj 728 186 vsl 15 64 0 0.2 0 0 empty empty empty 0 -9 0 10 #fcfcfc #000000 #000000 0 1;
#X msg 351 205 open -e RC-20_Retro_Color.vst3;
#X obj 169 31 inlet~;
#X obj 167 353 outlet~;
#X obj 240 354 outlet~;
#X obj 303 96 bng 15 250 50 0 empty empty empty 17 7 0 10 #fcfcfc #000000 #000000;
#X obj 306 28 inlet;
#X obj 450 28 inlet;
#X text 176 10 sound;
#X text 230 6 dry/wet Effect 1;
#X text 372 6 dry/wet Effect 2;
#X floatatom 306 54 5 0 0 0 - - - 0;
#X floatatom 450 54 5 0 0 0 - - - 0;
#X msg 24 137 param_set 0 \$1;
#X obj 415 259 vsl 15 64 0 1 0 0 empty empty empty 0 -9 0 10 #fcfcfc #000000 #000000 0 1;
#X msg 415 337 param_set 6 \$1;
#X text 528 338 feedback;
#X msg 415 365 param_set 7 \$1;
#X text 528 366 density;
#X msg 415 393 param_set 8 \$1;
#X text 528 394 width;
#X msg 415 421 param_set 9 \$1;
#X text 528 422 EQ Low;
#X msg 415 448 param_set 10 \$1;
#X text 528 449 EQ High;
#X msg 415 475 param_set 11 \$1;
#X text 528 476 MOD Rate;
#X msg 415 503 param_set 12 \$1;
#X text 528 504 MOD Depth;
#X text 41 607 ValhallaSupermassive Preset: - ECHOES/Guitar/Palm Mute (LEAD), f 62;
#X text 77 648 RC-20_Retro_Color Preset: - Lush & Crunch Guitar 2 (LEAD) Hotline Phase;
#X connect 0 0 14 0;
#X connect 0 1 14 1;
#X connect 1 0 10 0;
#X connect 2 0 14 0;
#X connect 3 0 7 0;
#X connect 3 0 8 0;
#X connect 4 0 2 0;
#X connect 4 0 15 0;
#X connect 4 0 17 0;
#X connect 5 0 0 0;
#X connect 6 0 5 0;
#X connect 7 0 11 0;
#X connect 8 0 12 0;
#X connect 9 0 1 0;
#X connect 11 0 1 1;
#X connect 12 0 11 0;
#X connect 14 0 19 0;
#X connect 14 1 20 0;
#X connect 16 0 10 1;
#X connect 17 0 0 0;
#X connect 18 0 0 0;
#X connect 18 0 0 1;
#X connect 21 0 2 0;
#X connect 21 0 15 0;
#X connect 21 0 17 0;
#X connect 22 0 27 0;
#X connect 23 0 28 0;
#X connect 27 0 5 0;
#X connect 28 0 29 0;
#X connect 29 0 14 0;
#X connect 30 0 31 0;
#X connect 30 0 33 0;
#X connect 30 0 35 0;
#X connect 30 0 37 0;
#X connect 30 0 39 0;
#X connect 30 0 41 0;
#X connect 30 0 43 0;
#X connect 31 0 14 0;
#X connect 33 0 14 0;
#X connect 35 0 14 0;
#X connect 37 0 14 0;
#X connect 39 0 14 0;
#X connect 41 0 14 0;
#X connect 43 0 14 0;
#X restore 639 820 pd pluginEffectChain;
#X obj 707 738 vsl 15 64 0 1 0 0 empty empty empty 0 -9 0 10 #fcfcfc #000000 #000000 0 1;
#X obj 776 738 vsl 15 64 0 1 0 0 empty empty empty 0 -9 0 10 #fcfcfc #000000 #000000 0 1;
#X obj 707 713 tgl 15 0 empty empty empty 17 7 0 10 #fcfcfc #000000 #000000 0 1;
#X obj 776 712 tgl 15 0 empty empty empty 17 7 0 10 #fcfcfc #000000 #000000 0 1;
#X obj 638 867 throw~ left;
#X obj 776 867 throw~ right;
#X obj 142 326 random 10;
#X obj 31 592 tgl 15 0 empty empty empty 17 7 0 10 #fcfcfc #000000 #000000 0 1;
#X msg 60 515 next \$1;
#X floatatom 77 540 5 0 0 0 - - - 0;
#X obj 142 299 r tick;
#X floatatom 62 61 5 0 0 0 - - - 0;
#X floatatom 89 91 5 0 0 0 - - - 0;
#X floatatom 116 117 5 0 0 0 - - - 0;
#X floatatom 143 64 5 0 0 0 - - - 0;
#X obj 62 34 unpack f f f f f;
#X floatatom 171 92 5 0 0 0 - - - 0;
#X obj 62 128 bng 19 250 50 0 empty empty empty 0 -10 0 12 #fcfcfc #000000 #000000;
#X obj 62 152 del 1000;
#X obj 62 176 bng 19 250 50 0 empty empty empty 0 -10 0 12 #fcfcfc #000000 #000000;
#X obj 62 237 tgl 19 0 empty empty empty 0 -10 0 12 #fcfcfc #000000 #000000 0 1;
#X obj 62 261 == 0;
#X obj 97 188 spigot;
#X floatatom 243 61 5 0 0 0 - - - 0;
#X floatatom 270 91 5 0 0 0 - - - 0;
#X floatatom 297 117 5 0 0 0 - - - 0;
#X floatatom 324 64 5 0 0 0 - - - 0;
#X floatatom 352 92 5 0 0 0 - - - 0;
#X obj 243 128 bng 19 250 50 0 empty empty empty 0 -10 0 12 #fcfcfc #000000 #000000;
#X obj 243 152 del 1000;
#X obj 243 176 bng 19 250 50 0 empty empty empty 0 -10 0 12 #fcfcfc #000000 #000000;
#X obj 243 237 tgl 19 0 empty empty empty 0 -10 0 12 #fcfcfc #000000 #000000 0 1;
#X obj 243 261 == 0;
#X obj 278 188 spigot;
#X obj 243 34 unpack f f f f f;
#X floatatom 423 61 5 0 0 0 - - - 0;
#X floatatom 450 91 5 0 0 0 - - - 0;
#X floatatom 477 117 5 0 0 0 - - - 0;
#X floatatom 504 64 5 0 0 0 - - - 0;
#X floatatom 532 92 5 0 0 0 - - - 0;
#X obj 423 128 bng 19 250 50 0 empty empty empty 0 -10 0 12 #fcfcfc #000000 #000000;
#X obj 423 152 del 1000;
#X obj 423 176 bng 19 250 50 0 empty empty empty 0 -10 0 12 #fcfcfc #000000 #000000;
#X obj 423 237 tgl 19 0 empty empty empty 0 -10 0 12 #fcfcfc #000000 #000000 0 1;
#X obj 423 261 == 0;
#X obj 458 188 spigot;
#X floatatom 603 61 5 0 0 0 - - - 0;
#X floatatom 630 91 5 0 0 0 - - - 0;
#X floatatom 657 117 5 0 0 0 - - - 0;
#X floatatom 684 64 5 0 0 0 - - - 0;
#X floatatom 712 92 5 0 0 0 - - - 0;
#X obj 603 128 bng 19 250 50 0 empty empty empty 0 -10 0 12 #fcfcfc #000000 #000000;
#X obj 603 152 del 1000;
#X obj 603 176 bng 19 250 50 0 empty empty empty 0 -10 0 12 #fcfcfc #000000 #000000;
#X obj 603 237 tgl 19 0 empty empty empty 0 -10 0 12 #fcfcfc #000000 #000000 0 1;
#X obj 603 261 == 0;
#X obj 638 188 spigot;
#X floatatom 782 61 5 0 0 0 - - - 0;
#X floatatom 809 91 5 0 0 0 - - - 0;
#X floatatom 836 117 5 0 0 0 - - - 0;
#X floatatom 863 64 5 0 0 0 - - - 0;
#X floatatom 891 92 5 0 0 0 - - - 0;
#X obj 782 128 bng 19 250 50 0 empty empty empty 0 -10 0 12 #fcfcfc #000000 #000000;
#X obj 782 152 del 1000;
#X obj 782 176 bng 19 250 50 0 empty empty empty 0 -10 0 12 #fcfcfc #000000 #000000;
#X obj 782 237 tgl 19 0 empty empty empty 0 -10 0 12 #fcfcfc #000000 #000000 0 1;
#X obj 782 261 == 0;
#X obj 817 188 spigot;
#X floatatom 963 61 5 0 0 0 - - - 0;
#X floatatom 990 91 5 0 0 0 - - - 0;
#X floatatom 1017 117 5 0 0 0 - - - 0;
#X floatatom 1044 64 5 0 0 0 - - - 0;
#X floatatom 1072 92 5 0 0 0 - - - 0;
#X obj 963 128 bng 19 250 50 0 empty empty empty 0 -10 0 12 #fcfcfc #000000 #000000;
#X obj 963 152 del 1000;
#X obj 963 176 bng 19 250 50 0 empty empty empty 0 -10 0 12 #fcfcfc #000000 #000000;
#X obj 963 237 tgl 19 0 empty empty empty 0 -10 0 12 #fcfcfc #000000 #000000 0 1;
#X obj 963 261 == 0;
#X obj 998 188 spigot;
#X floatatom 1142 61 5 0 0 0 - - - 0;
#X floatatom 1169 91 5 0 0 0 - - - 0;
#X floatatom 1196 117 5 0 0 0 - - - 0;
#X floatatom 1223 64 5 0 0 0 - - - 0;
#X floatatom 1251 92 5 0 0 0 - - - 0;
#X obj 1142 128 bng 19 250 50 0 empty empty empty 0 -10 0 12 #fcfcfc #000000 #000000;
#X obj 1142 152 del 1000;
#X obj 1142 176 bng 19 250 50 0 empty empty empty 0 -10 0 12 #fcfcfc #000000 #000000;
#X obj 1142 237 tgl 19 0 empty empty empty 0 -10 0 12 #fcfcfc #000000 #000000 0 1;
#X obj 1142 261 == 0;
#X obj 1177 188 spigot;
#X floatatom 1323 61 5 0 0 0 - - - 0;
#X floatatom 1350 91 5 0 0 0 - - - 0;
#X floatatom 1377 117 5 0 0 0 - - - 0;
#X floatatom 1404 64 5 0 0 0 - - - 0;
#X floatatom 1432 92 5 0 0 0 - - - 0;
#X obj 1323 128 bng 19 250 50 0 empty empty empty 0 -10 0 12 #fcfcfc #000000 #000000;
#X obj 1323 152 del 1000;
#X obj 1323 176 bng 19 250 50 0 empty empty empty 0 -10 0 12 #fcfcfc #000000 #000000;
#X obj 1323 237 tgl 19 0 empty empty empty 0 -10 0 12 #fcfcfc #000000 #000000 0 1;
#X obj 1323 261 == 0;
#X obj 1358 188 spigot;
#X floatatom 1502 61 5 0 0 0 - - - 0;
#X floatatom 1529 91 5 0 0 0 - - - 0;
#X floatatom 1556 117 5 0 0 0 - - - 0;
#X floatatom 1583 64 5 0 0 0 - - - 0;
#X floatatom 1611 92 5 0 0 0 - - - 0;
#X obj 1502 128 bng 19 250 50 0 empty empty empty 0 -10 0 12 #fcfcfc #000000 #000000;
#X obj 1502 152 del 1000;
#X obj 1502 176 bng 19 250 50 0 empty empty empty 0 -10 0 12 #fcfcfc #000000 #000000;
#X obj 1502 237 tgl 19 0 empty empty empty 0 -10 0 12 #fcfcfc #000000 #000000 0 1;
#X obj 1502 261 == 0;
#X obj 1537 188 spigot;
#X floatatom 1683 61 5 0 0 0 - - - 0;
#X floatatom 1710 91 5 0 0 0 - - - 0;
#X floatatom 1737 117 5 0 0 0 - - - 0;
#X floatatom 1764 64 5 0 0 0 - - - 0;
#X floatatom 1792 92 5 0 0 0 - - - 0;
#X obj 1683 128 bng 19 250 50 0 empty empty empty 0 -10 0 12 #fcfcfc #000000 #000000;
#X obj 1683 152 del 1000;
#X obj 1683 176 bng 19 250 50 0 empty empty empty 0 -10 0 12 #fcfcfc #000000 #000000;
#X obj 1683 237 tgl 19 0 empty empty empty 0 -10 0 12 #fcfcfc #000000 #000000 0 1;
#X obj 1683 261 == 0;
#X obj 1718 188 spigot;
#X obj 422 34 unpack f f f f f;
#X obj 603 34 unpack f f f f f;
#X obj 782 34 unpack f f f f f;
#X obj 963 34 unpack f f f f f;
#X obj 1142 34 unpack f f f f f;
#X obj 1323 34 unpack f f f f f;
#X obj 1502 34 unpack f f f f f;
#X obj 1683 34 unpack f f f f f;
#X obj 31 662 sel 0;
#X obj 31 773 line 0 100;
#X obj 81 687 sel 1;
#X obj 31 612 t b f;
#X obj 31 636 bng 19 250 50 0 empty empty empty 0 -10 0 12 #fcfcfc #000000 #000000;
#X msg 31 714 0.5 \, 0 1000 10;
#X obj 79 663 bng 19 250 50 0 empty empty empty 0 -10 0 12 #fcfcfc #000000 #000000;
#X obj 129 687 bng 19 250 50 0 empty empty empty 0 -10 0 12 #fcfcfc #000000 #000000;
#X obj 60 566 clone lead.cl 3;
#X msg 162 543 1;
#X obj 60 415 random 18;
#N canvas 64 64 1229 631 new_note 0;
#X floatatom 34 76 5 0 0 0 - - - 0;
#X floatatom 154 126 5 0 0 0 - - - 0;
#X floatatom 94 100 5 0 0 0 - - - 0;
#X floatatom 274 174 5 0 0 0 - - - 0;
#X floatatom 394 226 5 0 0 0 - - - 0;
#X floatatom 334 197 5 0 0 0 - - - 0;
#X floatatom 214 150 5 0 0 0 - - - 0;
#X floatatom 454 250 5 0 0 0 - - - 0;
#X obj 34 52 moses 100;
#X obj 94 76 moses 200;
#X obj 154 102 moses 300;
#X obj 214 126 moses 400;
#X obj 274 150 moses 500;
#X obj 334 173 moses 600;
#X obj 394 202 moses 700;
#X obj 454 226 moses 800;
#X floatatom 514 274 5 0 0 0 - - - 0;
#X floatatom 641 320 5 0 0 0 - - - 0;
#X floatatom 574 297 5 0 0 0 - - - 0;
#X floatatom 775 366 5 0 0 0 - - - 0;
#X floatatom 842 390 5 0 0 0 - - - 0;
#X floatatom 708 343 5 0 0 0 - - - 0;
#X obj 514 250 moses 900;
#X obj 574 273 moses 1000;
#X obj 641 296 moses 1100;
#X obj 708 319 moses 1200;
#X obj 775 342 moses 1300;
#X obj 842 366 moses 1400;
#X floatatom 909 390 5 0 0 0 - - - 0;
#X obj 394 273 random 3;
#X obj 394 249 bng 19 250 50 0 empty empty empty 0 -10 0 12 #fcfcfc #000000 #000000;
#X floatatom 394 321 5 0 0 0 - - - 0;
#X obj 34 124 random 3;
#X obj 34 100 bng 19 250 50 0 empty empty empty 0 -10 0 12 #fcfcfc #000000 #000000;
#X floatatom 34 148 5 0 0 0 - - - 0;
#X obj 94 148 random 3;
#X obj 94 124 bng 19 250 50 0 empty empty empty 0 -10 0 12 #fcfcfc #000000 #000000;
#X obj 94 172 + 1;
#X floatatom 94 196 5 0 0 0 - - - 0;
#X obj 154 172 random 3;
#X obj 154 148 bng 19 250 50 0 empty empty empty 0 -10 0 12 #fcfcfc #000000 #000000;
#X floatatom 154 220 5 0 0 0 - - - 0;
#X obj 214 196 random 3;
#X obj 214 172 bng 19 250 50 0 empty empty empty 0 -10 0 12 #fcfcfc #000000 #000000;
#X floatatom 214 244 5 0 0 0 - - - 0;
#X obj 274 220 random 3;
#X obj 274 196 bng 19 250 50 0 empty empty empty 0 -10 0 12 #fcfcfc #000000 #000000;
#X floatatom 274 268 5 0 0 0 - - - 0;
#X obj 334 244 random 3;
#X obj 334 220 bng 19 250 50 0 empty empty empty 0 -10 0 12 #fcfcfc #000000 #000000;
#X floatatom 334 292 5 0 0 0 - - - 0;
#X obj 454 297 random 3;
#X obj 454 273 bng 19 250 50 0 empty empty empty 0 -10 0 12 #fcfcfc #000000 #000000;
#X floatatom 454 345 5 0 0 0 - - - 0;
#X obj 514 321 random 3;
#X obj 514 297 bng 19 250 50 0 empty empty empty 0 -10 0 12 #fcfcfc #000000 #000000;
#X floatatom 514 369 5 0 0 0 - - - 0;
#X obj 574 345 random 3;
#X obj 574 321 bng 19 250 50 0 empty empty empty 0 -10 0 12 #fcfcfc #000000 #000000;
#X floatatom 574 393 5 0 0 0 - - - 0;
#X obj 641 367 random 3;
#X obj 641 343 bng 19 250 50 0 empty empty empty 0 -10 0 12 #fcfcfc #000000 #000000;
#X floatatom 641 415 5 0 0 0 - - - 0;
#X obj 708 391 random 3;
#X obj 708 367 bng 19 250 50 0 empty empty empty 0 -10 0 12 #fcfcfc #000000 #000000;
#X floatatom 708 439 5 0 0 0 - - - 0;
#X obj 775 414 random 3;
#X obj 775 390 bng 19 250 50 0 empty empty empty 0 -10 0 12 #fcfcfc #000000 #000000;
#X floatatom 775 462 5 0 0 0 - - - 0;
#X obj 842 437 random 3;
#X obj 842 413 bng 19 250 50 0 empty empty empty 0 -10 0 12 #fcfcfc #000000 #000000;
#X floatatom 842 485 5 0 0 0 - - - 0;
#X obj 909 437 random 3;
#X obj 909 413 bng 19 250 50 0 empty empty empty 0 -10 0 12 #fcfcfc #000000 #000000;
#X floatatom 909 485 5 0 0 0 - - - 0;
#X obj 154 196 + 2;
#X obj 214 220 + 3;
#X obj 274 244 + 4;
#X obj 334 268 + 5;
#X obj 394 297 + 6;
#X obj 454 321 + 7;
#X obj 514 345 + 8;
#X obj 574 369 + 9;
#X obj 641 391 + 10;
#X obj 708 415 + 11;
#X obj 775 438 + 12;
#X obj 842 461 + 13;
#X obj 909 461 + 14;
#X obj 34 11 inlet;
#X obj 397 565 outlet;
#X obj 397 523 array get \$0-sus-scale;
#X floatatom 327 547 5 0 0 0 - - - 0;
#X obj 553 36 inlet;
#X connect 0 0 33 0;
#X connect 1 0 40 0;
#X connect 2 0 36 0;
#X connect 3 0 46 0;
#X connect 4 0 30 0;
#X connect 5 0 49 0;
#X connect 6 0 43 0;
#X connect 7 0 52 0;
#X connect 8 0 0 0;
#X connect 8 1 9 0;
#X connect 9 0 2 0;
#X connect 9 1 10 0;
#X connect 10 0 1 0;
#X connect 10 1 11 0;
#X connect 11 0 6 0;
#X connect 11 1 12 0;
#X connect 12 0 3 0;
#X connect 12 1 13 0;
#X connect 13 0 5 0;
#X connect 13 1 14 0;
#X connect 14 0 4 0;
#X connect 14 1 15 0;
#X connect 15 0 7 0;
#X connect 15 1 22 0;
#X connect 16 0 55 0;
#X connect 17 0 61 0;
#X connect 18 0 58 0;
#X connect 19 0 67 0;
#X connect 20 0 70 0;
#X connect 21 0 64 0;
#X connect 22 0 16 0;
#X connect 22 1 23 0;
#X connect 23 0 18 0;
#X connect 23 1 24 0;
#X connect 24 0 17 0;
#X connect 24 1 25 0;
#X connect 25 0 21 0;
#X connect 25 1 26 0;
#X connect 26 0 19 0;
#X connect 26 1 27 0;
#X connect 27 0 20 0;
#X connect 27 1 28 0;
#X connect 28 0 73 0;
#X connect 29 0 79 0;
#X connect 30 0 29 0;
#X connect 31 0 90 0;
#X connect 32 0 34 0;
#X connect 33 0 32 0;
#X connect 34 0 90 0;
#X connect 35 0 37 0;
#X connect 36 0 35 0;
#X connect 37 0 38 0;
#X connect 38 0 90 0;
#X connect 39 0 75 0;
#X connect 40 0 39 0;
#X connect 41 0 90 0;
#X connect 42 0 76 0;
#X connect 43 0 42 0;
#X connect 44 0 90 0;
#X connect 45 0 77 0;
#X connect 46 0 45 0;
#X connect 47 0 90 0;
#X connect 48 0 78 0;
#X connect 49 0 48 0;
#X connect 50 0 90 0;
#X connect 51 0 80 0;
#X connect 52 0 51 0;
#X connect 53 0 90 0;
#X connect 54 0 81 0;
#X connect 55 0 54 0;
#X connect 56 0 90 0;
#X connect 57 0 82 0;
#X connect 58 0 57 0;
#X connect 59 0 90 0;
#X connect 60 0 83 0;
#X connect 61 0 60 0;
#X connect 62 0 90 0;
#X connect 63 0 84 0;
#X connect 64 0 63 0;
#X connect 65 0 90 0;
#X connect 66 0 85 0;
#X connect 67 0 66 0;
#X connect 68 0 90 0;
#X connect 69 0 86 0;
#X connect 70 0 69 0;
#X connect 71 0 90 0;
#X connect 72 0 87 0;
#X connect 73 0 72 0;
#X connect 74 0 90 0;
#X connect 75 0 41 0;
#X connect 76 0 44 0;
#X connect 77 0 47 0;
#X connect 78 0 50 0;
#X connect 79 0 31 0;
#X connect 80 0 53 0;
#X connect 81 0 56 0;
#X connect 82 0 59 0;
#X connect 83 0 62 0;
#X connect 84 0 65 0;
#X connect 85 0 68 0;
#X connect 86 0 71 0;
#X connect 87 0 74 0;
#X connect 88 0 8 0;
#X connect 90 0 91 0;
#X connect 90 0 89 0;
#X connect 92 0 32 1;
#X connect 92 0 35 1;
#X connect 92 0 39 1;
#X connect 92 0 42 1;
#X connect 92 0 45 1;
#X connect 92 0 48 1;
#X connect 92 0 29 1;
#X connect 92 0 51 1;
#X connect 92 0 54 1;
#X connect 92 0 57 1;
#X connect 92 0 60 1;
#X connect 92 0 63 1;
#X connect 92 0 66 1;
#X connect 92 0 69 1;
#X connect 92 0 72 1;
#X restore 60 490 pd new_note;
#X msg 134 462 3;
#X msg 179 463 5;
#X obj 54 459 spigot;
#X text 169 351 chance;
#X obj 72 334 f;
#X text 194 416 pitch;
#X obj 361 372 hsl 32 15 0 10 0 0 empty empty empty -2 -8 0 10 #fcfcfc #000000 #000000 0 1;
#X obj 280 380 bng 15 250 50 0 empty empty empty 17 7 0 10 #fcfcfc #000000 #000000;
#X obj 240 891 *~ 0.5;
#X obj 322 387 -;
#X floatatom 358 392 5 0 0 0 - - - 0;
#X obj 322 422 >= 0;
#X obj 211 834 vsl 15 64 0 0.5 0 0 empty empty empty 0 -9 0 10 #fcfcfc #000000 #000000 0 1;
#X obj 322 326 random 10;
#X obj 211 592 tgl 15 0 empty empty empty 17 7 0 10 #fcfcfc #000000 #000000 0 1;
#X msg 240 515 next \$1;
#X floatatom 257 540 5 0 0 0 - - - 0;
#X obj 322 299 r tick;
#X obj 211 662 sel 0;
#X obj 211 773 line 0 100;
#X obj 261 687 sel 1;
#X obj 211 612 t b f;
#X obj 211 636 bng 19 250 50 0 empty empty empty 0 -10 0 12 #fcfcfc #000000 #000000;
#X msg 211 714 0.5 \, 0 1000 10;
#X obj 259 663 bng 19 250 50 0 empty empty empty 0 -10 0 12 #fcfcfc #000000 #000000;
#X obj 309 687 bng 19 250 50 0 empty empty empty 0 -10 0 12 #fcfcfc #000000 #000000;
#X obj 240 566 clone lead.cl 3;
#X msg 342 543 1;
#X obj 240 415 random 18;
#N canvas 64 64 1229 631 new_note 0;
#X floatatom 34 76 5 0 0 0 - - - 0;
#X floatatom 154 126 5 0 0 0 - - - 0;
#X floatatom 94 100 5 0 0 0 - - - 0;
#X floatatom 274 174 5 0 0 0 - - - 0;
#X floatatom 394 226 5 0 0 0 - - - 0;
#X floatatom 334 197 5 0 0 0 - - - 0;
#X floatatom 214 150 5 0 0 0 - - - 0;
#X floatatom 454 250 5 0 0 0 - - - 0;
#X obj 34 52 moses 100;
#X obj 94 76 moses 200;
#X obj 154 102 moses 300;
#X obj 214 126 moses 400;
#X obj 274 150 moses 500;
#X obj 334 173 moses 600;
#X obj 394 202 moses 700;
#X obj 454 226 moses 800;
#X floatatom 514 274 5 0 0 0 - - - 0;
#X floatatom 641 320 5 0 0 0 - - - 0;
#X floatatom 574 297 5 0 0 0 - - - 0;
#X floatatom 775 366 5 0 0 0 - - - 0;
#X floatatom 842 390 5 0 0 0 - - - 0;
#X floatatom 708 343 5 0 0 0 - - - 0;
#X obj 514 250 moses 900;
#X obj 574 273 moses 1000;
#X obj 641 296 moses 1100;
#X obj 708 319 moses 1200;
#X obj 775 342 moses 1300;
#X obj 842 366 moses 1400;
#X floatatom 909 390 5 0 0 0 - - - 0;
#X obj 394 273 random 3;
#X obj 394 249 bng 19 250 50 0 empty empty empty 0 -10 0 12 #fcfcfc #000000 #000000;
#X floatatom 394 321 5 0 0 0 - - - 0;
#X obj 34 124 random 3;
#X obj 34 100 bng 19 250 50 0 empty empty empty 0 -10 0 12 #fcfcfc #000000 #000000;
#X floatatom 34 148 5 0 0 0 - - - 0;
#X obj 94 148 random 3;
#X obj 94 124 bng 19 250 50 0 empty empty empty 0 -10 0 12 #fcfcfc #000000 #000000;
#X obj 94 172 + 1;
#X floatatom 94 196 5 0 0 0 - - - 0;
#X obj 154 172 random 3;
#X obj 154 148 bng 19 250 50 0 empty empty empty 0 -10 0 12 #fcfcfc #000000 #000000;
#X floatatom 154 220 5 0 0 0 - - - 0;
#X obj 214 196 random 3;
#X obj 214 172 bng 19 250 50 0 empty empty empty 0 -10 0 12 #fcfcfc #000000 #000000;
#X floatatom 214 244 5 0 0 0 - - - 0;
#X obj 274 220 random 3;
#X obj 274 196 bng 19 250 50 0 empty empty empty 0 -10 0 12 #fcfcfc #000000 #000000;
#X floatatom 274 268 5 0 0 0 - - - 0;
#X obj 334 244 random 3;
#X obj 334 220 bng 19 250 50 0 empty empty empty 0 -10 0 12 #fcfcfc #000000 #000000;
#X floatatom 334 292 5 0 0 0 - - - 0;
#X obj 454 297 random 3;
#X obj 454 273 bng 19 250 50 0 empty empty empty 0 -10 0 12 #fcfcfc #000000 #000000;
#X floatatom 454 345 5 0 0 0 - - - 0;
#X obj 514 321 random 3;
#X obj 514 297 bng 19 250 50 0 empty empty empty 0 -10 0 12 #fcfcfc #000000 #000000;
#X floatatom 514 369 5 0 0 0 - - - 0;
#X obj 574 345 random 3;
#X obj 574 321 bng 19 250 50 0 empty empty empty 0 -10 0 12 #fcfcfc #000000 #000000;
#X floatatom 574 393 5 0 0 0 - - - 0;
#X obj 641 367 random 3;
#X obj 641 343 bng 19 250 50 0 empty empty empty 0 -10 0 12 #fcfcfc #000000 #000000;
#X floatatom 641 415 5 0 0 0 - - - 0;
#X obj 708 391 random 3;
#X obj 708 367 bng 19 250 50 0 empty empty empty 0 -10 0 12 #fcfcfc #000000 #000000;
#X floatatom 708 439 5 0 0 0 - - - 0;
#X obj 775 414 random 3;
#X obj 775 390 bng 19 250 50 0 empty empty empty 0 -10 0 12 #fcfcfc #000000 #000000;
#X floatatom 775 462 5 0 0 0 - - - 0;
#X obj 842 437 random 3;
#X obj 842 413 bng 19 250 50 0 empty empty empty 0 -10 0 12 #fcfcfc #000000 #000000;
#X floatatom 842 485 5 0 0 0 - - - 0;
#X obj 909 437 random 3;
#X obj 909 413 bng 19 250 50 0 empty empty empty 0 -10 0 12 #fcfcfc #000000 #000000;
#X floatatom 909 485 5 0 0 0 - - - 0;
#X obj 154 196 + 2;
#X obj 214 220 + 3;
#X obj 274 244 + 4;
#X obj 334 268 + 5;
#X obj 394 297 + 6;
#X obj 454 321 + 7;
#X obj 514 345 + 8;
#X obj 574 369 + 9;
#X obj 641 391 + 10;
#X obj 708 415 + 11;
#X obj 775 438 + 12;
#X obj 842 461 + 13;
#X obj 909 461 + 14;
#X obj 34 11 inlet;
#X obj 397 565 outlet;
#X obj 397 523 array get \$0-sus-scale;
#X floatatom 327 547 5 0 0 0 - - - 0;
#X obj 553 36 inlet;
#X connect 0 0 33 0;
#X connect 1 0 40 0;
#X connect 2 0 36 0;
#X connect 3 0 46 0;
#X connect 4 0 30 0;
#X connect 5 0 49 0;
#X connect 6 0 43 0;
#X connect 7 0 52 0;
#X connect 8 0 0 0;
#X connect 8 1 9 0;
#X connect 9 0 2 0;
#X connect 9 1 10 0;
#X connect 10 0 1 0;
#X connect 10 1 11 0;
#X connect 11 0 6 0;
#X connect 11 1 12 0;
#X connect 12 0 3 0;
#X connect 12 1 13 0;
#X connect 13 0 5 0;
#X connect 13 1 14 0;
#X connect 14 0 4 0;
#X connect 14 1 15 0;
#X connect 15 0 7 0;
#X connect 15 1 22 0;
#X connect 16 0 55 0;
#X connect 17 0 61 0;
#X connect 18 0 58 0;
#X connect 19 0 67 0;
#X connect 20 0 70 0;
#X connect 21 0 64 0;
#X connect 22 0 16 0;
#X connect 22 1 23 0;
#X connect 23 0 18 0;
#X connect 23 1 24 0;
#X connect 24 0 17 0;
#X connect 24 1 25 0;
#X connect 25 0 21 0;
#X connect 25 1 26 0;
#X connect 26 0 19 0;
#X connect 26 1 27 0;
#X connect 27 0 20 0;
#X connect 27 1 28 0;
#X connect 28 0 73 0;
#X connect 29 0 79 0;
#X connect 30 0 29 0;
#X connect 31 0 90 0;
#X connect 32 0 34 0;
#X connect 33 0 32 0;
#X connect 34 0 90 0;
#X connect 35 0 37 0;
#X connect 36 0 35 0;
#X connect 37 0 38 0;
#X connect 38 0 90 0;
#X connect 39 0 75 0;
#X connect 40 0 39 0;
#X connect 41 0 90 0;
#X connect 42 0 76 0;
#X connect 43 0 42 0;
#X connect 44 0 90 0;
#X connect 45 0 77 0;
#X connect 46 0 45 0;
#X connect 47 0 90 0;
#X connect 48 0 78 0;
#X connect 49 0 48 0;
#X connect 50 0 90 0;
#X connect 51 0 80 0;
#X connect 52 0 51 0;
#X connect 53 0 90 0;
#X connect 54 0 81 0;
#X connect 55 0 54 0;
#X connect 56 0 90 0;
#X connect 57 0 82 0;
#X connect 58 0 57 0;
#X connect 59 0 90 0;
#X connect 60 0 83 0;
#X connect 61 0 60 0;
#X connect 62 0 90 0;
#X connect 63 0 84 0;
#X connect 64 0 63 0;
#X connect 65 0 90 0;
#X connect 66 0 85 0;
#X connect 67 0 66 0;
#X connect 68 0 90 0;
#X connect 69 0 86 0;
#X connect 70 0 69 0;
#X connect 71 0 90 0;
#X connect 72 0 87 0;
#X connect 73 0 72 0;
#X connect 74 0 90 0;
#X connect 75 0 41 0;
#X connect 76 0 44 0;
#X connect 77 0 47 0;
#X connect 78 0 50 0;
#X connect 79 0 31 0;
#X connect 80 0 53 0;
#X connect 81 0 56 0;
#X connect 82 0 59 0;
#X connect 83 0 62 0;
#X connect 84 0 65 0;
#X connect 85 0 68 0;
#X connect 86 0 71 0;
#X connect 87 0 74 0;
#X connect 88 0 8 0;
#X connect 90 0 91 0;
#X connect 90 0 89 0;
#X connect 92 0 32 1;
#X connect 92 0 35 1;
#X connect 92 0 39 1;
#X connect 92 0 42 1;
#X connect 92 0 45 1;
#X connect 92 0 48 1;
#X connect 92 0 29 1;
#X connect 92 0 51 1;
#X connect 92 0 54 1;
#X connect 92 0 57 1;
#X connect 92 0 60 1;
#X connect 92 0 63 1;
#X connect 92 0 66 1;
#X connect 92 0 69 1;
#X connect 92 0 72 1;
#X restore 240 490 pd new_note;
#X msg 314 462 3;
#X msg 359 463 5;
#X obj 234 459 spigot;
#X text 349 351 chance;
#X obj 252 334 f;
#X obj 261 801 line 0.25 100;
#X obj 81 801 line 0.25 100;
#X msg 81 743 0 \, 0.25 1000 10;
#X msg 261 743 0 \, 0.25 1000 10;
#X text 275 934 TODO: line starting from current value;
#X connect 11 0 4 0;
#X connect 11 1 0 0;
#X connect 11 2 1 0;
#X connect 11 3 2 0;
#X connect 11 4 3 0;
#X connect 11 5 7 0;
#X connect 11 6 12 0;
#X connect 15 0 11 0;
#X connect 16 0 50 0;
#X connect 17 0 69 0;
#X connect 18 0 158 0;
#X connect 19 0 159 0;
#X connect 20 0 160 0;
#X connect 21 0 161 0;
#X connect 22 0 162 0;
#X connect 23 0 163 0;
#X connect 24 0 164 0;
#X connect 25 0 165 0;
#X connect 27 0 30 1;
#X connect 27 0 31 0;
#X connect 28 0 176 0;
#X connect 28 0 182 0;
#X connect 29 0 34 0;
#X connect 30 0 32 0;
#X connect 32 0 180 1;
#X connect 33 0 29 1;
#X connect 34 0 39 0;
#X connect 34 1 40 0;
#X connect 35 0 34 1;
#X connect 36 0 34 2;
#X connect 37 0 35 0;
#X connect 38 0 36 0;
#X connect 41 0 30 0;
#X connect 42 0 169 0;
#X connect 43 0 44 0;
#X connect 43 0 174 0;
#X connect 45 0 41 0;
#X connect 45 0 28 0;
#X connect 47 0 182 1;
#X connect 50 0 46 0;
#X connect 50 0 52 0;
#X connect 50 1 47 0;
#X connect 50 2 48 0;
#X connect 50 3 49 0;
#X connect 50 4 51 0;
#X connect 52 0 53 0;
#X connect 52 0 57 0;
#X connect 53 0 54 0;
#X connect 54 0 55 0;
#X connect 55 0 56 0;
#X connect 55 0 42 0;
#X connect 56 0 57 1;
#X connect 57 0 55 0;
#X connect 58 0 63 0;
#X connect 59 0 212 1;
#X connect 63 0 64 0;
#X connect 63 0 68 0;
#X connect 64 0 65 0;
#X connect 65 0 66 0;
#X connect 66 0 67 0;
#X connect 66 0 192 0;
#X connect 67 0 68 1;
#X connect 68 0 66 0;
#X connect 69 0 58 0;
#X connect 69 1 59 0;
#X connect 69 2 60 0;
#X connect 69 3 61 0;
#X connect 69 4 62 0;
#X connect 70 0 75 0;
#X connect 75 0 76 0;
#X connect 75 0 80 0;
#X connect 76 0 77 0;
#X connect 77 0 78 0;
#X connect 78 0 79 0;
#X connect 79 0 80 1;
#X connect 80 0 78 0;
#X connect 81 0 86 0;
#X connect 86 0 87 0;
#X connect 86 0 91 0;
#X connect 87 0 88 0;
#X connect 88 0 89 0;
#X connect 89 0 90 0;
#X connect 90 0 91 1;
#X connect 91 0 89 0;
#X connect 92 0 97 0;
#X connect 97 0 98 0;
#X connect 97 0 102 0;
#X connect 98 0 99 0;
#X connect 99 0 100 0;
#X connect 100 0 101 0;
#X connect 101 0 102 1;
#X connect 102 0 100 0;
#X connect 103 0 108 0;
#X connect 108 0 109 0;
#X connect 108 0 113 0;
#X connect 109 0 110 0;
#X connect 110 0 111 0;
#X connect 111 0 112 0;
#X connect 112 0 113 1;
#X connect 113 0 111 0;
#X connect 114 0 119 0;
#X connect 119 0 120 0;
#X connect 119 0 124 0;
#X connect 120 0 121 0;
#X connect 121 0 122 0;
#X connect 122 0 123 0;
#X connect 123 0 124 1;
#X connect 124 0 122 0;
#X connect 125 0 130 0;
#X connect 130 0 131 0;
#X connect 130 0 135 0;
#X connect 131 0 132 0;
#X connect 132 0 133 0;
#X connect 133 0 134 0;
#X connect 134 0 135 1;
#X connect 135 0 133 0;
#X connect 136 0 141 0;
#X connect 141 0 142 0;
#X connect 141 0 146 0;
#X connect 142 0 143 0;
#X connect 143 0 144 0;
#X connect 144 0 145 0;
#X connect 145 0 146 1;
#X connect 146 0 144 0;
#X connect 147 0 152 0;
#X connect 152 0 153 0;
#X connect 152 0 157 0;
#X connect 153 0 154 0;
#X connect 154 0 155 0;
#X connect 155 0 156 0;
#X connect 156 0 157 1;
#X connect 157 0 155 0;
#X connect 158 0 70 0;
#X connect 158 1 71 0;
#X connect 158 2 72 0;
#X connect 158 3 73 0;
#X connect 158 4 74 0;
#X connect 159 0 81 0;
#X connect 159 1 82 0;
#X connect 159 2 83 0;
#X connect 159 3 84 0;
#X connect 159 4 85 0;
#X connect 160 0 92 0;
#X connect 160 1 93 0;
#X connect 160 2 94 0;
#X connect 160 3 95 0;
#X connect 160 4 96 0;
#X connect 161 0 103 0;
#X connect 161 1 104 0;
#X connect 161 2 105 0;
#X connect 161 3 106 0;
#X connect 161 4 107 0;
#X connect 162 0 114 0;
#X connect 162 1 115 0;
#X connect 162 2 116 0;
#X connect 162 3 117 0;
#X connect 162 4 118 0;
#X connect 163 0 125 0;
#X connect 163 1 126 0;
#X connect 163 2 127 0;
#X connect 163 3 128 0;
#X connect 163 4 129 0;
#X connect 164 0 136 0;
#X connect 164 1 137 0;
#X connect 164 2 138 0;
#X connect 164 3 139 0;
#X connect 164 4 140 0;
#X connect 165 0 147 0;
#X connect 165 1 148 0;
#X connect 165 2 149 0;
#X connect 165 3 150 0;
#X connect 165 4 151 0;
#X connect 166 0 171 0;
#X connect 166 0 172 0;
#X connect 167 0 33 0;
#X connect 168 0 215 0;
#X connect 168 0 173 0;
#X connect 169 0 170 0;
#X connect 169 1 168 0;
#X connect 169 1 166 0;
#X connect 171 0 167 0;
#X connect 174 0 29 0;
#X connect 175 0 174 1;
#X connect 177 0 43 0;
#X connect 178 0 177 1;
#X connect 179 0 177 1;
#X connect 180 0 177 0;
#X connect 182 0 180 0;
#X connect 184 0 187 1;
#X connect 184 0 188 0;
#X connect 185 0 206 0;
#X connect 185 0 212 0;
#X connect 186 0 34 0;
#X connect 187 0 189 0;
#X connect 189 0 210 1;
#X connect 190 0 186 1;
#X connect 191 0 187 0;
#X connect 192 0 199 0;
#X connect 193 0 194 0;
#X connect 193 0 204 0;
#X connect 195 0 191 0;
#X connect 195 0 185 0;
#X connect 196 0 201 0;
#X connect 196 0 202 0;
#X connect 197 0 190 0;
#X connect 198 0 216 0;
#X connect 198 0 203 0;
#X connect 199 0 200 0;
#X connect 199 1 198 0;
#X connect 199 1 196 0;
#X connect 201 0 197 0;
#X connect 204 0 186 0;
#X connect 205 0 204 1;
#X connect 207 0 193 0;
#X connect 208 0 207 1;
#X connect 209 0 207 1;
#X connect 210 0 207 0;
#X connect 212 0 210 0;
#X connect 213 0 190 0;
#X connect 214 0 33 0;
#X connect 215 0 214 0;
#X connect 216 0 213 0;
#X restore 73 53 pd play_human;
#X floatatom 458 607 5 0 0 0 - - - 0;
#X floatatom 585 523 5 0 0 0 - - - 0;
#X obj 820 69 metro 0.25 70 permin;
#X connect 0 0 170 0;
#X connect 2 0 64 1;
#X connect 2 0 68 0;
#X connect 3 0 133 0;
#X connect 3 1 134 0;
#X connect 4 0 50 1;
#X connect 6 0 47 0;
#X connect 7 0 32 0;
#X connect 7 0 173 0;
#X connect 8 0 173 0;
#X connect 9 0 8 0;
#X connect 10 0 11 0;
#X connect 10 0 12 0;
#X connect 10 0 65 0;
#X connect 11 0 10 1;
#X connect 12 0 13 0;
#X connect 13 0 14 0;
#X connect 14 0 73 0;
#X connect 15 0 16 0;
#X connect 15 1 17 0;
#X connect 15 2 18 0;
#X connect 15 3 19 0;
#X connect 15 4 20 0;
#X connect 15 5 21 0;
#X connect 15 6 22 0;
#X connect 15 7 23 0;
#X connect 15 8 24 0;
#X connect 15 9 25 0;
#X connect 15 10 26 0;
#X connect 15 11 27 0;
#X connect 15 12 28 0;
#X connect 15 13 29 0;
#X connect 15 14 30 0;
#X connect 15 15 31 0;
#X connect 32 0 10 0;
#X connect 33 0 34 0;
#X connect 34 0 51 0;
#X connect 35 0 148 0;
#X connect 37 0 35 0;
#X connect 39 0 54 0;
#X connect 40 0 122 0;
#X connect 41 0 39 0;
#X connect 42 0 40 0;
#X connect 43 0 56 0;
#X connect 44 0 152 0;
#X connect 45 0 43 0;
#X connect 46 0 44 0;
#X connect 48 0 159 0;
#X connect 49 0 98 0;
#X connect 50 0 3 0;
#X connect 51 0 53 0;
#X connect 52 0 54 1;
#X connect 53 0 37 0;
#X connect 54 0 55 0;
#X connect 55 0 42 0;
#X connect 56 0 57 0;
#X connect 57 0 46 0;
#X connect 58 0 51 1;
#X connect 59 0 56 1;
#X connect 60 0 3 1;
#X connect 61 0 3 2;
#X connect 63 0 48 0;
#X connect 64 0 75 0;
#X connect 66 0 60 0;
#X connect 67 0 61 0;
#X connect 69 0 71 1;
#X connect 69 0 72 0;
#X connect 70 0 71 0;
#X connect 71 0 74 0;
#X connect 73 0 15 0;
#X connect 74 0 73 1;
#X connect 75 0 63 1;
#X connect 76 0 139 0;
#X connect 76 1 140 0;
#X connect 77 0 76 1;
#X connect 78 0 76 2;
#X connect 79 0 77 0;
#X connect 80 0 78 0;
#X connect 82 0 91 1;
#X connect 82 0 94 0;
#X connect 83 0 137 0;
#X connect 83 1 138 0;
#X connect 84 0 87 1;
#X connect 85 0 96 0;
#X connect 85 0 99 0;
#X connect 86 0 100 0;
#X connect 87 0 111 0;
#X connect 88 0 83 1;
#X connect 89 0 83 2;
#X connect 90 0 85 0;
#X connect 91 0 95 0;
#X connect 92 0 88 0;
#X connect 93 0 89 0;
#X connect 95 0 90 1;
#X connect 96 0 169 0;
#X connect 98 0 63 0;
#X connect 100 0 90 0;
#X connect 104 0 36 0;
#X connect 105 0 36 1;
#X connect 106 0 105 1;
#X connect 106 0 104 1;
#X connect 107 0 106 0;
#X connect 108 0 122 1;
#X connect 109 0 108 0;
#X connect 110 0 145 0;
#X connect 110 0 66 0;
#X connect 110 0 67 0;
#X connect 111 0 83 0;
#X connect 112 0 111 1;
#X connect 114 0 119 1;
#X connect 114 0 120 0;
#X connect 115 0 163 0;
#X connect 116 0 155 0;
#X connect 116 0 143 0;
#X connect 117 0 126 0;
#X connect 118 0 115 0;
#X connect 119 0 121 0;
#X connect 121 0 118 1;
#X connect 122 0 123 0;
#X connect 123 0 76 0;
#X connect 124 0 117 1;
#X connect 125 0 64 0;
#X connect 126 0 135 0;
#X connect 126 1 136 0;
#X connect 127 0 126 1;
#X connect 128 0 126 2;
#X connect 129 0 127 0;
#X connect 130 0 128 0;
#X connect 131 0 112 0;
#X connect 131 0 146 0;
#X connect 131 0 92 0;
#X connect 131 0 93 0;
#X connect 132 0 91 0;
#X connect 141 0 104 0;
#X connect 142 0 105 0;
#X connect 143 0 119 0;
#X connect 144 0 124 0;
#X connect 145 0 4 0;
#X connect 146 0 84 0;
#X connect 147 0 148 1;
#X connect 148 0 149 0;
#X connect 149 0 76 0;
#X connect 150 0 147 0;
#X connect 151 0 152 1;
#X connect 152 0 153 0;
#X connect 153 0 76 0;
#X connect 154 0 151 0;
#X connect 155 0 118 0;
#X connect 155 0 172 0;
#X connect 158 0 50 0;
#X connect 159 0 158 0;
#X connect 162 0 117 0;
#X connect 163 0 162 0;
#X connect 163 0 171 0;
#X connect 164 0 87 0;
#X connect 167 0 164 0;
#X connect 167 0 162 0;
#X connect 168 0 117 0;
#X connect 169 0 97 0;
#X connect 169 0 164 0;
#X connect 169 0 165 0;
#X connect 173 0 10 0;
#X connect 173 0 70 0;
#X connect 173 0 98 0;
#X connect 173 0 100 0;
#X connect 173 0 125 0;
#X connect 173 0 132 0;
#X connect 173 0 156 0;
