#N canvas -1025 157 781 485 12;
#X obj 52 270 *~;
#X obj 167 129 bng 15 250 50 0 empty empty empty 17 7 0 10 #fcfcfc #000000 #000000;
#X obj 52 110 mtof;
#N canvas 224 224 547 401 envelope 0;
#X obj 222 18 inlet;
#X obj 222 60 bng 15 250 50 0 empty empty empty 17 7 0 10 #fcfcfc #000000 #000000;
#X obj 246 172 vline~;
#X obj 246 198 pow~ 2;
#X floatatom 279 62 5 0 0 0 - - - 0;
#X floatatom 332 62 5 0 0 0 - - - 0;
#X obj 246 93 pack b f f;
#X msg 246 126 1 \$2 \, 0 \$3 \$2;
#X obj 279 18 inlet;
#X obj 332 18 inlet;
#X obj 245 234 outlet~;
#X connect 0 0 1 0;
#X connect 1 0 6 0;
#X connect 2 0 3 0;
#X connect 3 0 10 0;
#X connect 4 0 6 1;
#X connect 5 0 6 2;
#X connect 6 0 7 0;
#X connect 7 0 2 0;
#X connect 8 0 4 0;
#X connect 9 0 5 0;
#X restore 96 188 pd envelope;
#X f 13;
#X floatatom 298 157 5 0 0 0 - - - 0;
#X floatatom 208 157 5 0 0 0 - - - 0;
#X obj 208 134 + 10;
#X obj 298 134 + 500;
#X obj 167 238 loadbang;
#X obj 208 108 random 50;
#X obj 52 246 phasor~ 1000;
#X obj 52 17 inlet;
#X obj 52 294 outlet~;
#X obj 242 21 inlet;
#X floatatom 298 76 5 0 0 0 - - - 0;
#X floatatom 208 76 5 0 0 0 - - - 0;
#X obj 208 52 * 50;
#X obj 298 52 * 800;
#X obj 298 108 random 4000;
#X connect 0 0 12 0;
#X connect 1 0 9 0;
#X connect 1 0 18 0;
#X connect 2 0 1 0;
#X connect 2 0 3 0;
#X connect 2 0 10 0;
#X connect 3 0 0 1;
#X connect 4 0 3 2;
#X connect 5 0 3 1;
#X connect 6 0 5 0;
#X connect 7 0 4 0;
#X connect 9 0 6 0;
#X connect 10 0 0 0;
#X connect 11 0 2 0;
#X connect 13 0 16 0;
#X connect 13 0 17 0;
#X connect 14 0 18 0;
#X connect 15 0 9 0;
#X connect 16 0 15 0;
#X connect 17 0 14 0;
#X connect 18 0 7 0;
