#N canvas 903 297 653 449 12;
#X floatatom 187 176 5 0 0 0 - - - 0;
#X floatatom 220 202 5 0 0 0 - - - 0;
#X floatatom 254 220 5 0 0 0 - - - 0;
#X floatatom 287 244 5 0 0 0 - - - 0;
#X obj 154 154 bng 15 250 50 0 empty empty empty 17 7 0 10 #fcfcfc #000000 #000000;
#X text 81 154 /endpoint;
#X text 113 177 person_id;
#X obj 49 114 outlet;
#X obj 49 44 udpreceive 9001;
#X obj 49 68 unpackOSC;
#X obj 412 229 route 1 2 3 4 5 6 7 8 9 10;
#X obj 92 313 unpack f f f f;
#X floatatom 92 337 5 0 0 0 - - - 0;
#X obj 412 255 s h1;
#X obj 92 289 r h1;
#X obj 429 278 s h2;
#X obj 447 301 s h3;
#X obj 465 255 s h4;
#X obj 483 278 s h5;
#X obj 501 301 s h6;
#X obj 519 255 s h7;
#X obj 537 278 s h8;
#X obj 555 301 s h8;
#X obj 573 254 s h9;
#X obj 591 278 s h10;
#X obj 154 116 unpack s f f f f f f, f 29;
#X obj 425 170 pack f f f f f f;
#X text 180 203 area;
#X text 231 221 x;
#X text 269 243 y;
#X floatatom 320 175 5 0 0 0 - - - 0;
#X floatatom 352 203 5 0 0 0 - - - 0;
#X text 275 176 speed;
#X text 274 203 confidence;
#X connect 8 0 9 0;
#X connect 9 0 7 0;
#X connect 9 0 25 0;
#X connect 10 0 13 0;
#X connect 10 1 15 0;
#X connect 10 2 16 0;
#X connect 10 3 17 0;
#X connect 10 4 18 0;
#X connect 10 5 19 0;
#X connect 10 6 20 0;
#X connect 10 7 21 0;
#X connect 10 8 22 0;
#X connect 10 9 23 0;
#X connect 10 10 24 0;
#X connect 11 0 12 0;
#X connect 14 0 11 0;
#X connect 25 0 4 0;
#X connect 25 1 0 0;
#X connect 25 1 26 0;
#X connect 25 2 1 0;
#X connect 25 2 26 1;
#X connect 25 3 2 0;
#X connect 25 3 26 2;
#X connect 25 4 3 0;
#X connect 25 4 26 3;
#X connect 25 5 26 4;
#X connect 25 5 30 0;
#X connect 25 6 26 5;
#X connect 25 6 31 0;
#X connect 26 0 10 0;
