#N canvas 514 221 653 300 12;
#X obj 49 16 udpreceive 9001;
#X obj 49 40 unpackOSC;
#X obj 154 66 unpack s f f f f, f 29;
#X floatatom 204 126 5 0 0 0 - - -;
#X floatatom 254 147 5 0 0 0 - - -;
#X floatatom 304 170 5 0 0 0 - - -;
#X floatatom 354 193 5 0 0 0 - - -;
#X obj 154 104 bng 15 250 50 0 empty empty empty 17 7 0 10 -262144
-1 -1;
#X text 81 104 /endpoint;
#X text 130 127 person_id;
#X text 224 148 red;
#X text 261 171 green;
#X text 317 192 blue;
#X obj 49 64 outlet;
#X connect 0 0 1 0;
#X connect 1 0 2 0;
#X connect 1 0 13 0;
#X connect 2 0 7 0;
#X connect 2 1 3 0;
#X connect 2 2 4 0;
#X connect 2 3 5 0;
#X connect 2 4 6 0;
