#N canvas 514 221 653 300 12;
#X obj 154 116 unpack s f f f f, f 29;
#X floatatom 204 176 5 0 0 0 - - - 0;
#X floatatom 254 197 5 0 0 0 - - - 0;
#X floatatom 304 220 5 0 0 0 - - - 0;
#X floatatom 354 243 5 0 0 0 - - - 0;
#X obj 154 154 bng 15 250 50 0 empty empty empty 17 7 0 10 #fcfcfc #000000 #000000;
#X text 81 154 /endpoint;
#X text 130 177 person_id;
#X text 224 198 red;
#X text 261 221 green;
#X text 317 242 blue;
#X obj 49 114 outlet;
#X msg 49 33 udpreceive 9001;
#X msg 49 57 unpackOSC;
#X connect 0 0 5 0;
#X connect 0 1 1 0;
#X connect 0 2 2 0;
#X connect 0 3 3 0;
#X connect 0 4 4 0;
#X connect 12 0 13 0;
#X connect 13 0 11 0;
#X connect 13 0 0 0;
